<?xml version="1.0" standalone="no"?><!DOCTYPE svg PUBLIC "-//W3C//DTD SVG 1.1//EN" "http://www.w3.org/Graphics/SVG/1.1/DTD/svg11.dtd"><svg t="1681528706810" class="icon" viewBox="0 0 1024 1024" version="1.1" xmlns="http://www.w3.org/2000/svg" p-id="20248" xmlns:xlink="http://www.w3.org/1999/xlink" width="128" height="128"><path d="M740.27204 515.869018c-16.765743 0-33.531486 2.579345-49.007556 6.448362L579.062972 296.624685c16.765743-12.896725 28.372796-30.952141 33.531486-51.586902l162.498741 24.503779c7.738035 32.241814 37.400504 58.035264 72.221662 58.035264 41.269521 0 74.801008-32.241814 74.801008-73.511335S888.584383 180.554156 848.604534 180.554156c-29.662469 0-55.455919 18.055416-67.062972 42.559194l-166.367758-24.503778c-10.31738-43.848866-49.007557-76.09068-96.725441-76.09068-54.166247 0-99.304786 43.848866-99.304786 98.015113 0 54.166247 43.848866 98.015113 99.304786 98.015113 6.448363 0 12.896725-1.289673 19.345088-2.579345l109.622166 223.11335c-63.193955 32.241814-107.042821 98.015113-107.042821 174.105794 0 5.15869 0 9.027708 1.289673 12.896725l-215.375315 18.055416c-14.186398-56.745592-65.7733-99.304786-127.677582-99.304786C123.808564 644.836272 64.483627 704.161209 64.483627 775.093199s59.324937 130.256927 132.836272 130.256927c68.352645 0 123.808564-50.297229 131.5466-114.780856l221.823677-19.345089c25.793451 79.959698 100.594458 137.994962 190.871537 137.994963C851.183879 909.219144 941.460957 821.521411 941.460957 711.899244 938.881612 603.566751 849.894207 515.869018 740.27204 515.869018z" fill="#ffffff" p-id="20249"></path></svg>