<?xml version="1.0" standalone="no"?><!DOCTYPE svg PUBLIC "-//W3C//DTD SVG 1.1//EN" "http://www.w3.org/Graphics/SVG/1.1/DTD/svg11.dtd"><svg t="1703778887863" class="icon" viewBox="0 0 1024 1024" version="1.1" xmlns="http://www.w3.org/2000/svg" p-id="4232" xmlns:xlink="http://www.w3.org/1999/xlink" width="128" height="128"><path d="M975.36 117.76H48.64C22.016 117.76 0 139.776 0 166.4v691.2c0 26.624 22.016 48.64 48.64 48.64h926.72c26.624 0 48.64-22.016 48.64-48.64v-691.2c0-26.624-22.016-48.64-48.64-48.64zM926.72 808.96H97.28V215.04h829.44v593.92z" fill="#040000" p-id="4233"></path><path d="M191.488 712.704h347.136c13.824 0 24.576-12.288 23.04-26.112-12.288-91.136-85.504-162.304-177.664-171.008C436.224 506.88 475.648 461.312 475.648 406.528c0-60.928-49.664-110.592-110.592-110.592s-110.592 49.664-110.592 110.592c0 54.784 39.936 99.84 91.648 109.056-92.16 8.704-165.376 79.872-177.664 171.008-1.536 13.824 9.216 26.112 23.04 26.112zM614.4 399.36h207.36c20.992 0 38.4-17.408 38.4-38.4s-17.408-38.4-38.4-38.4H614.4c-20.992 0-38.4 17.408-38.4 38.4s17.408 38.4 38.4 38.4zM821.76 471.04h-136.704c-20.992 0-38.4 17.408-38.4 38.4s17.408 38.4 38.4 38.4h136.704c20.992 0 38.4-17.408 38.4-38.4s-17.408-38.4-38.4-38.4zM821.76 619.52h-105.984c-20.992 0-38.4 17.408-38.4 38.4s17.408 38.4 38.4 38.4h105.984c20.992 0 38.4-17.408 38.4-38.4s-17.408-38.4-38.4-38.4z" fill="#040000" p-id="4234"></path></svg>