<?xml version="1.0" standalone="no"?><!DOCTYPE svg PUBLIC "-//W3C//DTD SVG 1.1//EN" "http://www.w3.org/Graphics/SVG/1.1/DTD/svg11.dtd"><svg t="1711610221634" class="icon" viewBox="0 0 1024 1024" version="1.1" xmlns="http://www.w3.org/2000/svg" p-id="5157" xmlns:xlink="http://www.w3.org/1999/xlink" width="128" height="128"><path d="M848 864l-96 0c-8.832 0-16-7.168-16-16s7.168-16 16-16l80 0 0-80c0-8.832 7.168-16 16-16 8.8 0 16 7.168 16 16l0 96c0 8.832-7.2 16-16 16zM848 672c-8.832 0-16-7.168-16-16l0-96c0-8.832 7.168-16 16-16 8.8 0 16 7.168 16 16l0 96c0 8.832-7.2 16-16 16zM848 480c-8.832 0-16-7.168-16-16l0-96c0-8.832 7.168-16 16-16 8.8 0 16 7.168 16 16l0 96c0 8.832-7.2 16-16 16zM848 288c-8.832 0-16-7.168-16-16l0-80-80 0c-8.832 0-16-7.168-16-16s7.168-16 16-16l96 0c8.8 0 16 7.168 16 16l0 96c0 8.832-7.2 16-16 16zM656 864l-96 0c-8.832 0-16-7.168-16-16s7.168-16 16-16l96 0c8.8 0 16 7.168 16 16s-7.2 16-16 16zM656 192l-96 0c-8.832 0-16-7.168-16-16s7.168-16 16-16l96 0c8.8 0 16 7.168 16 16s-7.2 16-16 16zM638.016 480c17.664 0 32 14.304 32 32 0 17.664-14.336 32-32 32l-96 0 0 96c0 17.664-14.336 32-32 32-17.696 0-32-14.336-32-32l0-96-96 0c-17.664 0-32-14.336-32-32 0-17.696 14.304-32 32-32l96 0 0-96c0-17.696 14.304-32 32-32 17.664 0 32 14.304 32 32l0 96 96 0zM464 192l-96 0c-8.832 0-16-7.168-16-16s7.168-16 16-16l96 0c8.8 0 16 7.168 16 16s-7.2 16-16 16zM272 864l-96 0c-8.832 0-16-7.168-16-16l0-96c0-8.832 7.168-16 16-16s16 7.168 16 16l0 80 80 0c8.832 0 16 7.168 16 16s-7.168 16-16 16zM272 192l-80 0 0 80c0 8.832-7.168 16-16 16s-16-7.168-16-16l0-96c0-8.832 7.168-16 16-16l96 0c8.832 0 16 7.168 16 16s-7.168 16-16 16zM176 352c8.832 0 16 7.168 16 16l0 96c0 8.832-7.168 16-16 16s-16-7.168-16-16l0-96c0-8.832 7.168-16 16-16zM176 544c8.832 0 16 7.168 16 16l0 96c0 8.832-7.168 16-16 16s-16-7.168-16-16l0-96c0-8.832 7.168-16 16-16zM368 832l96 0c8.8 0 16 7.168 16 16s-7.2 16-16 16l-96 0c-8.832 0-16-7.168-16-16s7.168-16 16-16z" p-id="5158" fill="#515151"></path></svg>