<?xml version="1.0" standalone="no"?><!DOCTYPE svg PUBLIC "-//W3C//DTD SVG 1.1//EN" "http://www.w3.org/Graphics/SVG/1.1/DTD/svg11.dtd"><svg t="1703574034060" class="icon" viewBox="0 0 1024 1024" version="1.1" xmlns="http://www.w3.org/2000/svg" p-id="19085" xmlns:xlink="http://www.w3.org/1999/xlink" width="128" height="128"><path d="M447.992945 863.99365H32.003528V662.614133l191.9873-191.998589 100.684114 100.684114a15.962253 15.962253 0 0 0 22.6226 0l340.693639-340.68235 180.653423 180.642134c1.490111 1.5014 3.285018 2.698005 5.271833 3.522082l0.214486 0.056443c1.817484 0.722478 3.793011 1.15145 5.870135 1.15145s4.041363-0.428971 5.870136-1.15145l0.214486-0.056443c3.951053-1.625576 7.089318-4.763841 8.703605-8.714894l0.079021-0.248352c0.71119-1.806196 1.128872-3.747856 1.140161-5.802403V32.003528A32.059971 32.059971 0 0 0 863.99365 0H32.003528A32.037394 32.037394 0 0 0 0 32.003528v831.990122a32.037394 32.037394 0 0 0 32.003528 31.992239h415.989417a15.984831 15.984831 0 1 0 0-31.992239zM863.99365 32.003528v329.37105L699.30248 196.683409a15.99612 15.99612 0 0 0-22.622599 0l-340.693639 340.693639-100.684114-100.695403c-5.994312-5.994312-16.616999-6.0056-22.6226 0L32.003528 617.357645V32.003528h831.990122z" p-id="19086"></path><path d="M768.028222 512.011289c-141.413824 0-255.960489 114.648264-255.96049 256.016933 0 141.368669 114.546665 255.971778 255.96049 255.971778S1024 909.40818 1024 768.028222c0-141.357381-114.546665-256.016933-255.971778-256.016933z m0 479.985183c-123.487333 0-223.96825-100.469628-223.968251-223.96825 0-123.521199 100.469628-224.013405 223.968251-224.013406s223.96825 100.480917 223.96825 224.013406c0 123.498622-100.469628 223.96825-223.96825 223.96825zM239.975659 351.99365a111.961548 111.961548 0 0 0 111.984125-111.984125c0-61.850909-50.110638-112.006703-111.984125-112.006703-61.862198 0-111.984125 50.155793-111.984126 112.006703 0 61.839621 50.121927 111.984125 111.984126 111.984125z m0-191.998589c44.105038 0 79.991886 35.898137 79.991886 80.003175 0 44.105038-35.886848 79.991886-79.991886 79.991886-44.105038 0-79.980598-35.886848-79.980598-79.991886 0-44.105038 35.886848-80.003175 79.980598-80.003175z" p-id="19087"></path><path d="M895.997178 752.009525h-112.017992v-112.017992a15.984831 15.984831 0 1 0-31.992239 0v112.017992h-111.995414a15.984831 15.984831 0 1 0 0 31.992239h111.995414v111.995414a15.984831 15.984831 0 1 0 31.992239 0V784.001764h112.017992a15.984831 15.984831 0 1 0 0-31.992239z" p-id="19088"></path></svg>