<?xml version="1.0" standalone="no"?><!DOCTYPE svg PUBLIC "-//W3C//DTD SVG 1.1//EN" "http://www.w3.org/Graphics/SVG/1.1/DTD/svg11.dtd"><svg t="1703690706637" class="icon" viewBox="0 0 1024 1024" version="1.1" xmlns="http://www.w3.org/2000/svg" p-id="8647" xmlns:xlink="http://www.w3.org/1999/xlink" width="128" height="128"><path d="M936 320c13.2 0 24-10.8 24-24v-80c0-13.2-10.8-24-24-24h-40V96c0-53-43-96-96-96H160C107 0 64 43 64 96v832c0 53 43 96 96 96h640c53 0 96-43 96-96v-96h40c13.2 0 24-10.8 24-24v-80c0-13.2-10.8-24-24-24h-40v-128h40c13.2 0 24-10.8 24-24v-80c0-13.2-10.8-24-24-24h-40v-128h40z m-136 608H160V96h640v832zM480 512c70.6 0 128-57.4 128-128s-57.4-128-128-128-128 57.4-128 128 57.4 128 128 128z m-179.2 256h358.4c24.8 0 44.8-17.2 44.8-38.4v-38.4c0-63.6-60.2-115.2-134.4-115.2-21.6 0-37.4 16-89.6 16-53.8 0-66.8-16-89.6-16-74.2 0-134.4 51.6-134.4 115.2v38.4c0 21.2 20 38.4 44.8 38.4z" p-id="8648"></path></svg>