<?xml version="1.0" standalone="no"?><!DOCTYPE svg PUBLIC "-//W3C//DTD SVG 1.1//EN" "http://www.w3.org/Graphics/SVG/1.1/DTD/svg11.dtd"><svg t="1712123794867" class="icon" viewBox="0 0 1024 1024" version="1.1" xmlns="http://www.w3.org/2000/svg" p-id="7970" xmlns:xlink="http://www.w3.org/1999/xlink" width="128" height="128"><path d="M395.117714 655.213714l149.723429 89.526857-34.596572 62.025143-46.08-27.574857 0.512 2.633143c10.166857 45.860571 34.596571 87.552 70.729143 118.857143 89.234286 77.238857 221.622857 66.194286 295.570286-24.502857l53.906286 46.518857c-98.596571 121.051429-275.017143 135.68-394.093715 32.841143a292.790857 292.790857 0 0 1-93.110857-153.307429l-1.316571-5.997714-27.794286 49.810286-59.977143-35.84 86.528-155.062858zM69.193143 286.866286v644.608h206.262857a35.84 35.84 0 1 1 0 71.68H73.142857a73.142857 73.142857 0 0 1-73.142857-73.142857V73.508571a73.142857 73.142857 0 0 1 73.142857-73.142857h822.125714a73.142857 73.142857 0 0 1 73.142858 73.142857v322.048a34.596571 34.596571 0 1 1-69.266286 0V286.866286H69.193143z m609.718857 139.629714c59.465143 4.388571 116.077714 28.16 161.718857 67.730286a292.717714 292.717714 0 0 1 93.110857 153.234285l1.170286 6.436572 28.013714-50.249143 59.977143 35.84-86.528 155.062857-149.723428-89.6 34.596571-62.025143 45.860571 27.355429-0.292571-2.340572a219.428571 219.428571 0 0 0-70.802286-118.930285 208.164571 208.164571 0 0 0-141.092571-51.419429l-12.434286 0.731429a203.995429 203.995429 0 0 0-133.193143 65.097143l-8.777143 9.947428-53.906285-46.518857a272.310857 272.310857 0 0 1 201.728-100.937143l16.237714-0.219428 14.336 0.731428zM69.193143 215.259429h829.952V72.045714H69.193143v143.213715z" fill="#515151" p-id="7971"></path></svg>