<?xml version="1.0" standalone="no"?><!DOCTYPE svg PUBLIC "-//W3C//DTD SVG 1.1//EN" "http://www.w3.org/Graphics/SVG/1.1/DTD/svg11.dtd"><svg t="1693012312073" class="icon" viewBox="0 0 1024 1024" version="1.1" xmlns="http://www.w3.org/2000/svg" p-id="18025" xmlns:xlink="http://www.w3.org/1999/xlink" width="128" height="128"><path d="M787.1 733.8L531.7 519.5c-5.8-4.8-12.9-7.1-19.9-7h-0.6c-6.6 0.1-13.2 2.4-18.7 7L237.1 733.8c-12.6 10.6-14.3 29.6-3.7 42.3 10.6 12.6 29.6 14.3 42.3 3.7l236.5-198.4 236.3 198.4c12.7 10.6 31.7 8.9 42.3-3.7 10.6-12.7 8.9-31.7-3.7-42.3zM275.7 459.1l236.5-198.4 236.3 198.4c12.7 10.6 31.7 8.9 42.3-3.7 10.6-12.7 8.9-31.7-3.7-42.3L531.7 198.8c-5.8-4.8-12.9-7.1-19.9-7h-0.6c-6.6 0.1-13.2 2.4-18.7 7L237.1 413.1c-12.6 10.6-14.3 29.6-3.7 42.3 10.6 12.6 29.6 14.3 42.3 3.7z" p-id="18026"></path></svg>