<?xml version="1.0" standalone="no"?><!DOCTYPE svg PUBLIC "-//W3C//DTD SVG 1.1//EN" "http://www.w3.org/Graphics/SVG/1.1/DTD/svg11.dtd"><svg t="1683453160765" class="icon" viewBox="0 0 1024 1024" version="1.1" xmlns="http://www.w3.org/2000/svg" p-id="9186" xmlns:xlink="http://www.w3.org/1999/xlink" width="128" height="128"><path d="M926.037333 225.706667l-127.872-127.872A42.496 42.496 0 0 0 768 85.333333H256a42.496 42.496 0 0 0-30.165333 12.501334L97.962667 225.706667A42.410667 42.410667 0 0 0 85.333333 255.957333V810.666667a85.333333 85.333333 0 0 0 85.333334 85.333333h682.666666a85.333333 85.333333 0 0 0 85.333334-85.333333V255.957333a42.410667 42.410667 0 0 0-12.629334-30.250666zM273.664 170.666667h476.672l42.666667 42.666666H230.997333l42.666667-42.666666zM725.333333 554.666667v42.666666H298.666667v-170.666666h85.333333v85.333333h256v-85.333333h85.333333v128z" p-id="9187" fill="#ffffff"></path></svg>