<?xml version="1.0" standalone="no"?><!DOCTYPE svg PUBLIC "-//W3C//DTD SVG 1.1//EN" "http://www.w3.org/Graphics/SVG/1.1/DTD/svg11.dtd"><svg t="1711094422776" class="icon" viewBox="0 0 1024 1024" version="1.1" xmlns="http://www.w3.org/2000/svg" p-id="20787" xmlns:xlink="http://www.w3.org/1999/xlink" width="128" height="128"><path d="M553.936 504l79.2 79.2a16 16 0 0 1 0 22.624l-11.312 11.312a16 16 0 0 1-22.624 0l-79.2-79.2-79.2 79.2a16 16 0 0 1-22.624 0l-11.312-11.312a16 16 0 0 1 0-22.624l79.2-79.2-79.2-79.2a16 16 0 0 1 0-22.624l11.312-11.312a16 16 0 0 1 22.624 0l79.2 79.2 79.2-79.2a16 16 0 0 1 22.624 0l11.312 11.312a16 16 0 0 1 0 22.624l-79.2 79.2zM512 800c159.056 0 288-128.944 288-288s-128.944-288-288-288-288 128.944-288 288 128.944 288 288 288z m0 48c-185.568 0-336-150.432-336-336s150.432-336 336-336 336 150.432 336 336-150.432 336-336 336z" fill="#000000" p-id="20788"></path></svg>