<?xml version="1.0" standalone="no"?><!DOCTYPE svg PUBLIC "-//W3C//DTD SVG 1.1//EN" "http://www.w3.org/Graphics/SVG/1.1/DTD/svg11.dtd"><svg t="1711176162745" class="icon" viewBox="0 0 1024 1024" version="1.1" xmlns="http://www.w3.org/2000/svg" p-id="25201" xmlns:xlink="http://www.w3.org/1999/xlink" width="128" height="128"><path d="M928 466.432c0-48.48-38.912-88-86.816-88h-205.824v-174.08c0-59.776-47.904-108.352-106.88-108.352h-28.672c-58.944 0-106.88 48.576-106.88 108.32v174.112H182.752C134.912 378.432 96 417.856 96 466.432c0 39.584 26.144 72.768 61.728 83.808v307.04c0 39.04 31.264 70.72 69.76 70.72h574.4c38.464 0 69.76-31.68 69.76-70.72v-308.8A87.808 87.808 0 0 0 928 466.464z m-481.376-262.08c0-29.76 23.872-53.952 53.184-53.952h28.672c29.312 0 53.216 24.224 53.216 53.92v174.112h-135.072v-174.08zM801.856 873.6H713.28v-111.552a26.944 26.944 0 0 0-26.784-27.168 27.008 27.008 0 0 0-26.816 27.168V873.6h-118.08v-111.552a26.944 26.944 0 0 0-26.816-27.168 26.944 26.944 0 0 0-26.784 27.168V873.6h-118.176v-111.552a26.944 26.944 0 0 0-26.816-27.168 26.944 26.944 0 0 0-26.784 27.168V873.6H227.488a16.224 16.224 0 0 1-16.064-16.32v-302.912H817.92v302.848a16.256 16.256 0 0 1-16.096 16.384z m39.392-373.664H182.752c-18.272 0-33.056-15.04-33.056-33.504 0-18.528 14.848-33.6 33.056-33.6h658.432c18.24 0 33.12 15.072 33.12 33.6 0 18.528-14.848 33.504-33.056 33.504z" fill="#515151" p-id="25202"></path></svg>