<?xml version="1.0" standalone="no"?><!DOCTYPE svg PUBLIC "-//W3C//DTD SVG 1.1//EN" "http://www.w3.org/Graphics/SVG/1.1/DTD/svg11.dtd"><svg t="1681541962900" class="icon" viewBox="0 0 1024 1024" version="1.1" xmlns="http://www.w3.org/2000/svg" p-id="30913" xmlns:xlink="http://www.w3.org/1999/xlink" width="128" height="128"><path d="M928 544c0-192.872-131.26-355.081-309.322-402.187C604.226 96.678 561.932 64 512 64s-92.226 32.678-106.678 77.813C227.26 188.919 96 351.128 96 544c0 48.741 8.386 95.522 23.788 138.984C104.886 702.004 96 725.964 96 752c0 61.856 50.144 112 112 112 11.308 0 22.221-1.682 32.511-4.799C313.374 922.016 408.25 960 512 960s198.626-37.984 271.489-100.799A111.966 111.966 0 0 0 816 864c61.856 0 112-50.144 112-112 0-26.036-8.886-49.996-23.788-69.016C919.614 639.522 928 592.741 928 544zM295.672 821.694C310.897 802.566 320 778.347 320 752c0-61.856-50.144-112-112-112-11.59 0-22.769 1.761-33.284 5.029C165.144 613.028 160 579.115 160 544c0-157.034 102.833-290.045 244.831-335.382C418.797 254.563 461.491 288 512 288s93.203-33.437 107.169-79.382C761.167 253.955 864 386.966 864 544c0 35.115-5.144 69.028-14.716 101.029C838.769 641.761 827.59 640 816 640c-61.856 0-112 50.144-112 112 0 26.347 9.103 50.566 24.328 69.694C668.644 868.255 593.563 896 512 896s-156.644-27.745-216.328-74.306z" p-id="30914"></path><path d="M512 608c-17.6 0-32-14.4-32-32V352c0-17.6 14.4-32 32-32s32 14.4 32 32v224c0 17.6-14.4 32-32 32zM512 768c-26.4 0-48-21.6-48-48s21.6-48 48-48 48 21.6 48 48-21.6 48-48 48z" p-id="30915"></path></svg>