<?xml version="1.0" standalone="no"?><!DOCTYPE svg PUBLIC "-//W3C//DTD SVG 1.1//EN" "http://www.w3.org/Graphics/SVG/1.1/DTD/svg11.dtd"><svg t="1683453347454" class="icon" viewBox="0 0 1024 1024" version="1.1" xmlns="http://www.w3.org/2000/svg" p-id="9592" xmlns:xlink="http://www.w3.org/1999/xlink" width="128" height="128"><path d="M319.452659 129.102357 103.179964 129.102357c-9.122775 0-16.519232 7.396457-16.519232 16.519232l0 732.75273c0 9.122775 7.396457 16.519232 16.519232 16.519232l216.272695 0c9.122775 0 16.519232-7.396457 16.519232-16.519232L335.971891 145.621589C335.971891 136.498814 328.575434 129.102357 319.452659 129.102357zM302.93445 861.85611 119.699196 861.85611 119.699196 162.140821l183.235254 0L302.93445 861.85611z" p-id="9593" fill="#ffffff"></path><path d="M169.921018 526.490016l82.790588 0c7.461949 0 13.510712-6.048763 13.510712-13.510712L266.222317 227.048109c0-7.461949-6.048763-13.510712-13.510712-13.510712l-82.790588 0c-7.461949 0-13.510712 6.048763-13.510712 13.510712l0 285.931195C156.410306 520.441253 162.459069 526.490016 169.921018 526.490016zM183.431729 240.558821l55.769165 0L239.200894 499.468592 183.431729 499.468592 183.431729 240.558821z" p-id="9594" fill="#ffffff"></path><path d="M211.3158 692.196035c34.026978 0 61.71048-28.879748 61.71048-64.376193s-27.683503-64.376193-61.71048-64.376193-61.71048 28.879748-61.71048 64.376193S177.288822 692.196035 211.3158 692.196035zM211.3158 596.48109c15.810081 0 28.67304 14.058181 28.67304 31.338752s-12.861936 31.338752-28.67304 31.338752-28.67304-14.058181-28.67304-31.338752S195.505719 596.48109 211.3158 596.48109z" p-id="9595" fill="#ffffff"></path><path d="M620.136859 129.102357 403.863141 129.102357c-9.122775 0-16.519232 7.396457-16.519232 16.519232l0 732.75273c0 9.122775 7.396457 16.519232 16.519232 16.519232l216.273718 0c9.122775 0 16.519232-7.396457 16.519232-16.519232L636.656091 145.621589C636.655068 136.498814 629.259634 129.102357 620.136859 129.102357zM603.617627 861.85611 420.382373 861.85611 420.382373 162.140821l183.236278 0L603.618651 861.85611z" p-id="9596" fill="#ffffff"></path><path d="M470.604194 526.507412l82.790588 0c7.461949 0 13.511735-6.049786 13.511735-13.511735L566.906517 227.031736c0-7.461949-6.049786-13.511735-13.511735-13.511735l-82.790588 0c-7.461949 0-13.511735 6.049786-13.511735 13.511735l0 285.96394C457.092459 520.457626 463.142246 526.507412 470.604194 526.507412zM484.115929 240.543472l55.767118 0 0 258.939447-55.767118 0L484.115929 240.543472z" p-id="9597" fill="#ffffff"></path><path d="M512 692.196035c34.026978 0 61.71048-28.879748 61.71048-64.376193s-27.683503-64.376193-61.71048-64.376193-61.71048 28.879748-61.71048 64.376193S477.973022 692.196035 512 692.196035zM512 596.48109c15.810081 0 28.67304 14.058181 28.67304 31.338752s-12.861936 31.338752-28.67304 31.338752-28.67304-14.058181-28.67304-31.338752S496.189919 596.48109 512 596.48109z" p-id="9598" fill="#ffffff"></path><path d="M920.820036 129.102357 704.546318 129.102357c-9.122775 0-16.519232 7.396457-16.519232 16.519232l0 732.75273c0 9.122775 7.396457 16.519232 16.519232 16.519232l216.273718 0c9.122775 0 16.519232-7.396457 16.519232-16.519232L937.339268 145.621589C937.338245 136.498814 929.942811 129.102357 920.820036 129.102357zM904.300804 861.85611 721.06555 861.85611 721.06555 162.140821l183.236278 0L904.301827 861.85611z" p-id="9599" fill="#ffffff"></path><path d="M771.288394 526.507412l82.790588 0c7.461949 0 13.511735-6.049786 13.511735-13.511735L867.590717 227.031736c0-7.461949-6.049786-13.511735-13.511735-13.511735l-82.790588 0c-7.461949 0-13.511735 6.049786-13.511735 13.511735l0 285.96394C757.776659 520.457626 763.826446 526.507412 771.288394 526.507412zM784.80013 240.543472l55.767118 0 0 258.939447-55.767118 0L784.80013 240.543472z" p-id="9600" fill="#ffffff"></path><path d="M812.683177 692.196035c34.026978 0 61.71048-28.879748 61.71048-64.376193s-27.683503-64.376193-61.71048-64.376193-61.71048 28.879748-61.71048 64.376193S778.656199 692.196035 812.683177 692.196035zM812.683177 596.48109c15.810081 0 28.67304 14.058181 28.67304 31.338752s-12.861936 31.338752-28.67304 31.338752-28.67304-14.058181-28.67304-31.338752S796.873096 596.48109 812.683177 596.48109z" p-id="9601" fill="#ffffff"></path></svg>