<?xml version="1.0" standalone="no"?><!DOCTYPE svg PUBLIC "-//W3C//DTD SVG 1.1//EN" "http://www.w3.org/Graphics/SVG/1.1/DTD/svg11.dtd"><svg t="1681529168004" class="icon" viewBox="0 0 1024 1024" version="1.1" xmlns="http://www.w3.org/2000/svg" p-id="23170" xmlns:xlink="http://www.w3.org/1999/xlink" width="128" height="128"><path d="M808.684608 351.795275l-595.217307-5.151323c-29.851888-0.277316-53.839209-24.700565-53.600779-54.565756l0.474814-54.103222c0.264013-29.865191 24.700565-53.892421 54.579059-53.628408l162.310689 1.400906 0.449231-54.089919c0.264013-29.878494 24.700565-53.892421 54.579059-53.640688l162.310689 1.399883c29.877471 0.264013 53.891398 24.700565 53.627385 54.579059l-0.475837 54.103222 162.310689 1.399883c29.877471 0.251733 53.891398 24.687262 53.627385 54.565756l-0.475837 54.103222C862.946442 328.033082 838.536496 352.032682 808.684608 351.795275zM593.855798 160.571069c0.132006-14.939247-11.887748-27.157523-26.813692-27.276227l-108.207467-0.938372c-14.95255-0.132006-27.157523 11.874445-27.28953 26.813692l-0.237407 27.052123 162.310689 1.399883L593.855798 160.571069zM808.156582 405.89952l-3.751441 432.81452c-0.50142 59.755965-49.374524 107.782795-109.131513 107.267049l-378.696971-3.275603c-59.756989-0.5137-107.784842-49.386804-107.282399-109.143793l3.751441-432.813496L808.156582 405.89952zM615.28076 810.022581c-0.132006 14.94027 11.862165 27.157523 26.813692 27.28953 14.95255 0.119727 27.157523-11.887748 27.28953-26.828019l2.827395-324.606029c0.132006-14.939247-11.862165-27.14422-26.813692-27.276227-14.95255-0.132006-27.157523 11.874445-27.28953 26.813692L615.28076 810.022581zM480.047776 808.847825c-0.132006 14.94027 11.862165 27.157523 26.814716 27.28953 14.925944 0.132006 27.1565-11.875468 27.28953-26.813692l2.799766-324.607052c0.132006-14.939247-11.887748-27.157523-26.813692-27.28953-14.95255-0.132006-27.157523 11.874445-27.28953 26.813692L480.047776 808.847825zM344.789209 807.684326c-0.132006 14.94027 11.861142 27.157523 26.813692 27.28953 14.95255 0.119727 27.157523-11.887748 27.28953-26.825972l2.800789-324.608076c0.132006-14.939247-11.861142-27.157523-26.813692-27.276227-14.95255-0.132006-27.157523 11.874445-27.28953 26.813692L344.789209 807.684326z" fill="#ffffff" p-id="23171"></path></svg>