<?xml version="1.0" standalone="no"?><!DOCTYPE svg PUBLIC "-//W3C//DTD SVG 1.1//EN" "http://www.w3.org/Graphics/SVG/1.1/DTD/svg11.dtd"><svg t="1711475191866" class="icon" viewBox="0 0 1024 1024" version="1.1" xmlns="http://www.w3.org/2000/svg" p-id="13510" xmlns:xlink="http://www.w3.org/1999/xlink" width="128" height="128"><path d="M119.466667 546.133333H17.066667a17.066667 17.066667 0 1 0 0 34.133334h102.4c9.4208 0 17.066667 7.662933 17.066666 17.066666v375.466667c0 9.403733-7.645867 17.066667-17.066666 17.066667H17.066667a17.066667 17.066667 0 1 0 0 34.133333h102.4c28.228267 0 51.2-22.971733 51.2-51.2V597.333333c0-28.228267-22.971733-51.2-51.2-51.2M1014.852267 716.8c-18.824533-32.6144-60.7232-43.776-92.194134-25.5488l-196.420266 95.624533C695.7056 802.133333 664.8832 802.133333 597.333333 802.133333c-66.030933 0-166.843733-16.674133-167.867733-16.827733a17.032533 17.032533 0 1 0-5.597867 33.655467C428.100267 819.677867 528.452267 836.266667 597.333333 836.266667c70.8608 0 106.427733 0 143.991467-18.7904L938.666667 721.373867c7.8848-4.539733 17.066667-5.768533 25.9072-3.413334 8.789333 2.372267 16.162133 8.021333 20.701866 15.906134 4.573867 7.901867 5.7856 17.1008 3.4304 25.9072a34.269867 34.269867 0 0 1-16.384 21.009066l-230.7584 143.616C741.085867 924.7232 691.848533 955.733333 580.266667 955.733333c-96.750933 0-246.2208-82.363733-248.3712-83.524266C330.3424 871.424 293.3248 853.333333 221.866667 853.333333a17.066667 17.066667 0 1 0 0 34.133334c62.071467 0 94.0544 14.933333 94.122666 14.933333v-0.017067C322.440533 905.966933 474.658133 989.866667 580.266667 989.866667c123.221333 0 177.8688-35.498667 179.677866-36.7104L989.866667 810.052267a67.7888 67.7888 0 0 0 31.7952-41.437867A67.754667 67.754667 0 0 0 1014.852267 716.8" fill="#231F1F" p-id="13511"></path><path d="M221.866667 648.533333h136.533333c19.9168 0 53.76 25.3952 83.626667 47.786667 37.444267 28.091733 72.823467 54.613333 104.106666 54.613333h102.4c25.924267 0 38.792533 11.758933 39.133867 12.066134a17.015467 17.015467 0 0 0 24.132267 0 17.0496 17.0496 0 0 0 0-24.132267C709.546667 736.6144 688.5888 716.8 648.533333 716.8h-102.4c-19.9168 0-53.76-25.3952-83.626666-47.786667-37.444267-28.091733-72.823467-54.613333-104.106667-54.613333h-136.533333a17.066667 17.066667 0 1 0 0 34.133333M682.666667 546.133333c131.754667 0 238.933333-107.178667 238.933333-238.933333S814.421333 68.266667 682.666667 68.266667s-238.933333 107.178667-238.933334 238.933333 107.178667 238.933333 238.933334 238.933333z m0-443.733333c112.930133 0 204.8 91.869867 204.8 204.8s-91.869867 204.8-204.8 204.8-204.8-91.869867-204.8-204.8S569.736533 102.4 682.666667 102.4z" fill="#231F1F" p-id="13512"></path><path d="M682.666667 392.533333c-18.824533 0-34.133333-15.3088-34.133334-34.133333a17.066667 17.066667 0 1 0-34.133333 0c0 31.709867 21.828267 58.2144 51.2 65.8432V426.666667a17.066667 17.066667 0 1 0 34.133333 0v-2.423467c29.371733-7.6288 51.2-34.133333 51.2-65.8432 0-37.649067-30.6176-68.266667-68.266666-68.266667-18.824533 0-34.133333-15.3088-34.133334-34.133333s15.3088-34.133333 34.133334-34.133333c18.807467 0 34.133333 15.3088 34.133333 34.133333a17.066667 17.066667 0 1 0 34.133333 0c0-31.709867-21.828267-58.2144-51.2-65.8432V187.733333a17.066667 17.066667 0 1 0-34.133333 0v2.423467c-29.371733 7.6288-51.2 34.133333-51.2 65.8432 0 37.649067 30.6176 68.266667 68.266667 68.266667 18.807467 0 34.133333 15.3088 34.133333 34.133333s-15.325867 34.133333-34.133333 34.133333M85.333333 913.066667c0-14.114133-11.485867-25.6-25.6-25.6S34.133333 898.952533 34.133333 913.066667 45.6192 938.666667 59.733333 938.666667 85.333333 927.1808 85.333333 913.066667" fill="#231F1F" p-id="13513"></path><path d="M682.666667 614.4c169.386667 0 307.2-137.813333 307.2-307.2S852.053333 0 682.666667 0 375.466667 137.813333 375.466667 307.2s137.813333 307.2 307.2 307.2z m0-580.266667c150.562133 0 273.066667 122.504533 273.066666 273.066667s-122.504533 273.066667-273.066666 273.066667-273.066667-122.504533-273.066667-273.066667S532.104533 34.133333 682.666667 34.133333z" fill="#231F1F" p-id="13514"></path></svg>