<?xml version="1.0" standalone="no"?><!DOCTYPE svg PUBLIC "-//W3C//DTD SVG 1.1//EN" "http://www.w3.org/Graphics/SVG/1.1/DTD/svg11.dtd"><svg t="1712124801899" class="icon" viewBox="0 0 1028 1024" version="1.1" xmlns="http://www.w3.org/2000/svg" p-id="23940" xmlns:xlink="http://www.w3.org/1999/xlink" width="128.5" height="128"><path d="M516.113067 938.666667c-12.8 0-21.333333-4.266667-29.866667-12.8l-170.666667-170.666667c-17.066667-17.066667-17.066667-42.666667 0-59.733333s42.666667-17.066667 59.733334 0l140.8 140.8 140.8-140.8c17.066667-17.066667 42.666667-17.066667 59.733333 0s17.066667 42.666667 0 59.733333l-170.666667 170.666667c-8.533333 8.533333-17.066667 12.8-29.866666 12.8z" p-id="23941" fill="#515151"></path><path d="M516.113067 938.666667c-25.6 0-42.666667-17.066667-42.666667-42.666667v-384c0-25.6 17.066667-42.666667 42.666667-42.666667s42.666667 17.066667 42.666666 42.666667v384c0 25.6-17.066667 42.666667-42.666666 42.666667z" p-id="23942" fill="#515151"></path><path d="M895.8464 814.933333c-12.8 0-25.6-4.266667-34.133333-17.066666-12.8-21.333333-8.533333-46.933333 8.533333-59.733334 38.4-25.6 64-64 68.266667-110.933333s-4.266667-89.6-29.866667-128c-29.866667-46.933333-85.333333-72.533333-140.8-72.533333h-55.466667c-21.333333 0-38.4-12.8-42.666666-34.133334-42.666667-157.866667-204.8-256-362.666667-213.333333-72.533333 21.333333-136.533333 68.266667-174.933333 136.533333-42.666667 68.266667-55.466667 149.333333-34.133334 226.133334 12.8 46.933333 34.133333 89.6 64 123.733333 17.066667 17.066667 12.8 42.666667-4.266666 59.733333-17.066667 17.066667-42.666667 12.8-59.733334-4.266666-38.4-46.933333-68.266667-102.4-85.333333-157.866667-25.6-98.133333-12.8-200.533333 42.666667-290.133333 51.2-89.6 136.533333-149.333333 234.666666-174.933334C486.2464 46.933333 686.779733 153.6 750.779733 341.333333h21.333334c85.333333 0 162.133333 42.666667 209.066666 106.666667 38.4 55.466667 55.466667 123.733333 42.666667 192s-46.933333 128-106.666667 166.4c-4.266667 4.266667-12.8 8.533333-21.333333 8.533333z" p-id="23943" fill="#515151"></path></svg>