<?xml version="1.0" standalone="no"?><!DOCTYPE svg PUBLIC "-//W3C//DTD SVG 1.1//EN" "http://www.w3.org/Graphics/SVG/1.1/DTD/svg11.dtd"><svg t="1703817442643" class="icon" viewBox="0 0 1024 1024" version="1.1" xmlns="http://www.w3.org/2000/svg" p-id="4222" xmlns:xlink="http://www.w3.org/1999/xlink" width="128" height="128"><path d="M398.6 801.4l-82.4-22.1 33.6-125.4A468.8 468.8 0 0 1 211.7 574l-91.9 91.9-60.4-60.4 91.9-91.9A467.5 467.5 0 0 1 50.1 297.3l84-15.3C166.5 461.3 323.4 597.3 512 597.3c188.6 0 345.5-136 377.9-315.3l84 15.3a467.5 467.5 0 0 1-101.1 216.4l91.9 91.9-60.4 60.4-91.9-91.9A468.8 468.8 0 0 1 674.3 654l33.6 125.4-82.4 22.1-33.6-125.4a472.4 472.4 0 0 1-159.6 0l-33.6 125.4z" p-id="4223"></path></svg>