<?xml version="1.0" standalone="no"?><!DOCTYPE svg PUBLIC "-//W3C//DTD SVG 1.1//EN" "http://www.w3.org/Graphics/SVG/1.1/DTD/svg11.dtd"><svg t="1692978640072" class="icon" viewBox="0 0 1024 1024" version="1.1" xmlns="http://www.w3.org/2000/svg" p-id="10735" xmlns:xlink="http://www.w3.org/1999/xlink" width="128" height="128"><path d="M512 213.333333c-157.44 0-297.557333 93.44-419.413333 274.858667l-7.978667 11.946667a21.333333 21.333333 0 0 0 0 23.765333l7.978667 11.904C214.442667 717.226667 354.56 810.666667 512 810.666667c157.44 0 297.557333-93.44 419.413333-274.858667l7.978667-11.946667a21.333333 21.333333 0 0 0 0-23.765333l-7.978667-11.904C809.557333 306.773333 669.44 213.333333 512 213.333333z m11.349333 85.546667c113.450667 4.266667 219.050667 72.533333 317.610667 208.768l3.114667 4.352-3.114667 4.352C739.114667 657.152 629.76 725.333333 512 725.333333l-11.349333-0.213333c-113.450667-4.266667-219.050667-72.533333-317.610667-208.768L179.882667 512l3.157333-4.352C284.885333 366.848 394.24 298.666667 512 298.666667l11.349333 0.213333z" fill="#434A54" p-id="10736"></path><path d="M512 384a128 128 0 1 0 0 256 128 128 0 0 0 0-256z m0 85.333333a42.666667 42.666667 0 1 1 0 85.333334 42.666667 42.666667 0 0 1 0-85.333334z" fill="#434A54" p-id="10737"></path></svg>