<?xml version="1.0" standalone="no"?><!DOCTYPE svg PUBLIC "-//W3C//DTD SVG 1.1//EN" "http://www.w3.org/Graphics/SVG/1.1/DTD/svg11.dtd"><svg t="1711100980982" class="icon" viewBox="0 0 1024 1024" version="1.1" xmlns="http://www.w3.org/2000/svg" p-id="32264" xmlns:xlink="http://www.w3.org/1999/xlink" width="128" height="128"><path d="M832 64c35.346 0 64 28.654 64 64v792c0 22.091-17.909 40.002-40 40.002-8.62 0-17.01-2.787-23.918-7.941L517.979 735.636a10 10 0 0 0-11.96 0L191.92 952.06c-17.707 13.21-42.77 9.564-55.98-8.143A40 40 0 0 1 128 920V128c0-35.346 28.654-64 64-64h640z m-8 72H200v720.203l262.967-178.277c29.087-21.7 68.978-21.7 98.065 0L824 856.203V136z m-308.184 59.959a10 10 0 0 1 5.427 5.427l48.44 117.315a10 10 0 0 0 8.47 6.153l126.542 9.817c5.506 0.427 9.623 5.237 9.196 10.743a10 10 0 0 1-3.484 6.838l-96.604 82.322a10 10 0 0 0-3.236 9.956l29.768 123.383c1.295 5.368-2.007 10.77-7.376 12.066a10 10 0 0 1-7.58-1.2L517.235 512.34a10 10 0 0 0-10.47 0l-108.144 66.438c-4.706 2.89-10.864 1.42-13.755-3.286a10 10 0 0 1-1.2-7.58l29.767-123.383a10 10 0 0 0-3.236-9.956l-96.604-82.322a10 10 0 1 1 5.713-17.581l126.541-9.817a10 10 0 0 0 8.47-6.153l48.44-117.315c2.108-5.105 7.955-7.535 13.06-5.427z" fill="#595959" p-id="32265"></path></svg>