<?xml version="1.0" standalone="no"?><!DOCTYPE svg PUBLIC "-//W3C//DTD SVG 1.1//EN" "http://www.w3.org/Graphics/SVG/1.1/DTD/svg11.dtd"><svg t="1697265927275" class="icon" viewBox="0 0 1024 1024" version="1.1" xmlns="http://www.w3.org/2000/svg" p-id="10794" xmlns:xlink="http://www.w3.org/1999/xlink" width="128" height="128"><path d="M919.897525 358.131587l-99.934037 0 0-70.948889c0-26.119891-21.178345-47.299259-47.300282-47.299259l-72.40403 0 0-94.482885L200.662671 145.400554l0 94.482885-92.149746 0c-26.120914 0-47.299259 21.178345-47.299259 47.299259l0 543.940456c0 26.120914 21.178345 47.300282 47.299259 47.300282l18.291598 0 644.451638 0 1.408069 0c7.438413 0 14.389732-1.86958 20.648272-4.919033 17.923208-7.691169 33.418111-23.696702 38.753629-42.38125l121.620965-425.692309C961.144952 379.309932 946.018439 358.131587 919.897525 358.131587zM650.97368 192.699814l0 165.431773L275.444864 358.131587c-8.66024 0-17.367553 2.494821-25.51921 6.559393L249.925654 192.699814 650.97368 192.699814zM109.851409 772.183787c-0.11461-1.222851-0.391926-2.424212-0.391926-3.695159L109.459482 325.659011c0-21.547759 18.475793-38.984896 41.294498-38.984896l49.90869 0 0 167.671791L109.851409 772.183787zM771.718695 358.131587l-71.458495 0 0-71.456449 30.140461 0c22.840194 0 41.318034 17.437138 41.318034 38.984896L771.718695 358.131587z" p-id="10795"></path></svg>