<?xml version="1.0" standalone="no"?><!DOCTYPE svg PUBLIC "-//W3C//DTD SVG 1.1//EN" "http://www.w3.org/Graphics/SVG/1.1/DTD/svg11.dtd"><svg t="1683453397020" class="icon" viewBox="0 0 1024 1024" version="1.1" xmlns="http://www.w3.org/2000/svg" p-id="9803" xmlns:xlink="http://www.w3.org/1999/xlink" width="128" height="128"><path d="M192 96v832h640V96z m64 64h224v32h64V160h224v704H256z m224 64v64h64V224z m0 96v64h64v-64z m0 96v70.016c-36.992 13.344-64 48.608-64 89.984 0 52.64 43.36 96 96 96s96-43.36 96-96c0-41.376-27.008-76.64-64-90.016V416z m32 128c18.016 0 32 14.016 32 32 0 18.016-14.016 32-32 32-18.016 0-32-14.016-32-32 0-18.016 14.016-32 32-32z" p-id="9804" fill="#ffffff"></path></svg>