<?xml version="1.0" standalone="no"?><!DOCTYPE svg PUBLIC "-//W3C//DTD SVG 1.1//EN" "http://www.w3.org/Graphics/SVG/1.1/DTD/svg11.dtd"><svg t="1711604110047" class="icon" viewBox="0 0 1024 1024" version="1.1" xmlns="http://www.w3.org/2000/svg" p-id="3244" xmlns:xlink="http://www.w3.org/1999/xlink" width="128" height="128"><path d="M512 300.8C396.8 300.8 307.2 396.8 307.2 512c0 57.6 25.6 115.2 70.4 153.6 12.8 12.8 32 12.8 44.8 0 12.8-12.8 12.8-32 0-44.8C384 595.2 364.8 556.8 364.8 512c0-83.2 64-147.2 147.2-147.2 83.2 0 147.2 64 147.2 147.2 0 83.2-64 147.2-147.2 147.2L505.6 659.2c-12.8 0-25.6 6.4-25.6 19.2-6.4 19.2-19.2 38.4-32 51.2-12.8 12.8-12.8 32 0 44.8 6.4 6.4 12.8 6.4 19.2 6.4 6.4 0 12.8 0 19.2-6.4 19.2-19.2 32-38.4 38.4-57.6 108.8-6.4 198.4-96 198.4-211.2C723.2 396.8 627.2 300.8 512 300.8zM121.6 512c0-115.2 38.4-224 115.2-307.2 12.8-12.8 12.8-32 0-44.8-12.8-12.8-32-12.8-44.8 0C108.8 262.4 64 384 64 512c0 128 44.8 249.6 134.4 345.6 6.4 6.4 12.8 12.8 25.6 12.8 6.4 0 12.8 0 19.2-6.4 12.8-12.8 12.8-32 0-44.8C166.4 736 121.6 627.2 121.6 512zM825.6 166.4c-12.8-12.8-32-12.8-44.8 0-12.8 12.8-12.8 32 0 44.8 76.8 83.2 115.2 198.4 115.2 307.2 0 115.2-38.4 224-115.2 307.2-12.8 12.8-12.8 32 0 44.8 6.4 6.4 12.8 6.4 19.2 6.4 6.4 0 19.2-6.4 25.6-12.8C915.2 761.6 960 640 960 512 960 384 915.2 262.4 825.6 166.4zM288 307.2C275.2 300.8 256 300.8 243.2 313.6c-38.4 57.6-64 128-64 198.4 0 70.4 19.2 140.8 64 198.4 6.4 6.4 12.8 12.8 25.6 12.8 6.4 0 12.8 0 19.2-6.4 12.8-12.8 19.2-25.6 6.4-44.8C262.4 627.2 243.2 569.6 243.2 512c0-57.6 19.2-115.2 51.2-160C300.8 339.2 300.8 320 288 307.2zM838.4 512c0-70.4-19.2-140.8-64-198.4-12.8-12.8-25.6-19.2-44.8-6.4-12.8 12.8-19.2 25.6-6.4 44.8 32 44.8 51.2 102.4 51.2 160 0 57.6-19.2 115.2-51.2 160-12.8 12.8-6.4 32 6.4 44.8 6.4 6.4 12.8 6.4 19.2 6.4 6.4 0 19.2-6.4 25.6-12.8C819.2 652.8 838.4 582.4 838.4 512z" p-id="3245" fill="#515151"></path></svg>