<?xml version="1.0" standalone="no"?><!DOCTYPE svg PUBLIC "-//W3C//DTD SVG 1.1//EN" "http://www.w3.org/Graphics/SVG/1.1/DTD/svg11.dtd"><svg t="1711212505762" class="icon" viewBox="0 0 1024 1024" version="1.1" xmlns="http://www.w3.org/2000/svg" p-id="34244" xmlns:xlink="http://www.w3.org/1999/xlink" width="128" height="128"><path d="M512 64c247.424 0 448 200.576 448 448s-200.576 448-448 448S64 759.424 64 512 264.576 64 512 64z m0 704a254.88 254.88 0 0 1-156.96-53.76l-91.008 90.976A382.464 382.464 0 0 0 512 896c94.528 0 181.056-34.144 247.968-90.784l-91.008-90.944A254.88 254.88 0 0 1 512 768z m293.216-503.968l-90.944 91.008A254.88 254.88 0 0 1 768 512c0 59.136-20.064 113.6-53.76 156.96l90.976 91.008A382.464 382.464 0 0 0 896 512c0-94.528-34.144-181.056-90.784-247.968zM128 512c0 94.528 34.144 181.056 90.784 247.968l90.944-91.008A254.88 254.88 0 0 1 256 512c0-59.136 20.064-113.6 53.76-156.96L218.752 264.032A382.464 382.464 0 0 0 128 512z m384-192a192 192 0 1 0 0 384 192 192 0 0 0 0-384z m0-192a382.464 382.464 0 0 0-247.968 90.784l91.008 90.944A254.88 254.88 0 0 1 512 256c59.136 0 113.6 20.064 156.96 53.76l91.008-90.976A382.464 382.464 0 0 0 512 128z" p-id="34245"></path></svg>