<?xml version="1.0" standalone="no"?><!DOCTYPE svg PUBLIC "-//W3C//DTD SVG 1.1//EN" "http://www.w3.org/Graphics/SVG/1.1/DTD/svg11.dtd"><svg t="1711175921589" class="icon" viewBox="0 0 1024 1024" version="1.1" xmlns="http://www.w3.org/2000/svg" p-id="23137" xmlns:xlink="http://www.w3.org/1999/xlink" width="128" height="128"><path d="M631.188986 743.329161c-2.563204 0-3.844806 0-6.40801-1.281602-14.097622-3.844806-21.787234-16.660826-19.22403-30.758448 1.281602-7.689612 10.252816-43.574468 23.068836-62.798498 11.534418-16.660826 42.292866-42.292866 53.827284-49.982478 78.177722-56.390488 125.596996-147.38423 125.596997-244.785982 0-166.60826-134.56821-301.176471-301.176471-301.176471C342.828536 53.827284 208.260325 188.395494 208.260325 355.003755c0 115.34418 58.953692 219.153942 155.073843 270.418022 12.81602 6.40801 16.660826 21.787234 10.252816 34.603254-6.40801 12.81602-21.787234 16.660826-34.603254 10.252816C226.202753 610.042553 156.996245 488.290363 156.996245 355.003755 156.996245 160.20025 314.633292 2.563204 506.873592 2.563204c194.803504 0 352.440551 157.637046 352.440551 352.440551 0 112.780976-55.108886 220.435544-146.102629 285.797246-11.534418 7.689612-35.884856 29.476846-41.011264 37.166458-5.126408 7.689612-12.81602 32.04005-15.379224 44.85607-3.844806 12.81602-14.097622 20.505632-25.63204 20.505632z" fill="" p-id="23138"></path><path d="M510.718398 1024c-55.108886 0-102.52816-38.44806-102.52816-82.022528 0-14.097622 11.534418-25.63204 25.63204-25.63204s25.63204 11.534418 25.63204 25.63204c0 10.252816 19.22403 30.758448 51.26408 30.758448 29.476846 0 48.700876-17.942428 48.700876-30.758448 0-14.097622 11.534418-25.63204 25.63204-25.63204s25.63204 11.534418 25.63204 25.63204c0 44.85607-46.137672 82.022528-99.964956 82.022528z" fill="" p-id="23139"></path><path d="M503.028786 589.536921c-14.097622 0-25.63204-11.534418-25.63204-25.63204v-87.148936c0-43.574468 42.292866-71.769712 69.206508-83.30413 39.729662-28.195244 60.235294-66.643304 56.390488-102.52816-6.40801-46.137672-48.700876-82.022528-96.12015-82.022529-51.26408 1.281602-93.556946 44.85607-93.556946 94.838549 0 14.097622-11.534418 25.63204-25.63204 25.63204s-25.63204-11.534418-25.63204-25.63204c0-79.459324 64.0801-144.821026 144.821026-146.102629 73.051314-1.281602 137.131414 53.827284 147.38423 125.596997 7.689612 56.390488-21.787234 114.062578-80.740926 152.510638-1.281602 1.281602-3.844806 2.563204-5.126408 2.563204-7.689612 2.563204-38.44806 17.942428-38.44806 35.884856v89.71214c-1.281602 14.097622-12.81602 25.63204-26.913642 25.63204z" fill="" p-id="23140"></path><path d="M510.718398 643.364205m-30.758448 0a30.758448 30.758448 0 1 0 61.516896 0 30.758448 30.758448 0 1 0-61.516896 0Z" fill="" p-id="23141"></path><path d="M388.966208 789.466834c-11.534418 0-23.068836-8.971214-25.63204-20.505632-2.563204-14.097622 6.40801-26.913642 20.505632-29.476847L624.780976 692.065081c14.097622-2.563204 26.913642 6.40801 29.476846 20.505632 2.563204 14.097622-6.40801 26.913642-20.505632 29.476846l-242.222778 46.137673c0 1.281602-1.281602 1.281602-2.563204 1.281602z" fill="" p-id="23142"></path><path d="M396.65582 897.121402c-11.534418 0-21.787234-7.689612-24.350438-19.22403-2.563204-14.097622 5.126408-28.195244 19.22403-30.758448l235.814768-55.108886c14.097622-2.563204 28.195244 5.126408 30.758448 19.22403 2.563204 14.097622-5.126408 28.195244-19.22403 30.758448L403.06383 897.121402h-6.40801z" fill="" p-id="23143"></path></svg>