<?xml version="1.0" standalone="no"?><!DOCTYPE svg PUBLIC "-//W3C//DTD SVG 1.1//EN" "http://www.w3.org/Graphics/SVG/1.1/DTD/svg11.dtd"><svg t="1711200653085" class="icon" viewBox="0 0 1024 1024" version="1.1" xmlns="http://www.w3.org/2000/svg" p-id="33237" xmlns:xlink="http://www.w3.org/1999/xlink" width="128" height="128"><path d="M512 896c-106.057 0-201.143-43.886-270.629-109.714-69.485-69.486-109.714-164.572-109.714-270.629 0-106.057 43.886-201.143 109.714-270.628C310.857 175.543 405.943 135.314 512 135.314c106.057 0 201.143 43.886 270.629 109.715 69.485 69.485 109.714 164.571 109.714 270.628 0 106.057-43.886 201.143-109.714 270.629C713.143 852.114 618.057 896 512 896zM277.943 771.657C340.114 826.514 420.57 859.43 512 859.43s171.886-32.915 234.057-87.772l-128-128c-29.257 21.943-62.171 36.572-102.4 36.572-40.228 0-73.143-14.629-102.4-36.572l-135.314 128z m-25.6-493.714C197.486 340.114 164.57 424.229 164.57 512c0 87.771 32.915 171.886 87.772 234.057l128-128c-21.943-29.257-36.572-62.171-36.572-102.4 0-40.228 14.629-73.143 36.572-102.4l-128-135.314zM640 614.4l128 128c54.857-62.171 87.771-142.629 87.771-234.057S822.857 336.457 768 274.286l-10.971 18.285L640 409.6c21.943 29.257 36.571 62.171 36.571 102.4 0 40.229-14.628 73.143-36.571 102.4zM512 384c-69.486 0-128 58.514-128 128s58.514 128 128 128 128-58.514 128-128-58.514-128-128-128z m0-36.571c40.229 0 73.143 14.628 102.4 36.571l128-128c-62.171-54.857-142.629-87.771-234.057-87.771-87.772 0-171.886 32.914-234.057 87.771l128 128c36.571-21.943 69.485-36.571 109.714-36.571z" fill="#515151" p-id="33238"></path></svg>