<?xml version="1.0" standalone="no"?><!DOCTYPE svg PUBLIC "-//W3C//DTD SVG 1.1//EN" "http://www.w3.org/Graphics/SVG/1.1/DTD/svg11.dtd"><svg t="1681528792510" class="icon" viewBox="0 0 1024 1024" version="1.1" xmlns="http://www.w3.org/2000/svg" p-id="22125" xmlns:xlink="http://www.w3.org/1999/xlink" width="128" height="128"><path d="M936.96 479.232H705.536c-7.508992-41.643008-25.771008-76.971008-54.784-105.984S586.411008 325.972992 544.768 318.464V87.04c107.179008 10.24 196.779008 51.371008 268.8 123.392S926.72 372.052992 936.96 479.232z m0 65.536c-10.24 107.179008-51.371008 196.779008-123.392 268.8S651.947008 926.72 544.768 936.96V705.536c41.643008-7.508992 76.971008-25.771008 105.984-54.784S698.027008 586.411008 705.536 544.768h231.424z m-849.92 0h231.424c7.508992 41.643008 25.771008 76.971008 54.784 105.984S437.588992 698.027008 479.232 705.536v231.424c-107.179008-10.24-196.779008-51.371008-268.8-123.392S97.28 651.947008 87.04 544.768z m0-65.536c10.24-107.179008 51.371008-196.779008 123.392-268.8S372.052992 97.28 479.232 87.04v231.424c-41.643008 7.508992-76.971008 25.771008-105.984 54.784S325.972992 437.588992 318.464 479.232H87.04z" p-id="22126" fill="#ffffff"></path></svg>