<?xml version="1.0" standalone="no"?><!DOCTYPE svg PUBLIC "-//W3C//DTD SVG 1.1//EN" "http://www.w3.org/Graphics/SVG/1.1/DTD/svg11.dtd"><svg t="1696949335262" class="icon" viewBox="0 0 1098 1024" version="1.1" xmlns="http://www.w3.org/2000/svg" p-id="4047" xmlns:xlink="http://www.w3.org/1999/xlink" width="137.25" height="128"><path d="M365.717333 329.152q0 45.717333-32 77.717333t-77.717333 32-77.717333-32-32-77.717333 32-77.717333 77.717333-32 77.717333 32 32 77.717333zM950.848 548.565333l0 256-804.565333 0 0-109.717333 182.848-182.848 91.434667 91.434667 292.565333-292.565333zM1005.717333 146.282667l-914.282667 0q-7.424 0-12.864 5.418667t-5.418667 12.864l0 694.848q0 7.424 5.418667 12.864t12.864 5.418667l914.282667 0q7.424 0 12.864-5.418667t5.418667-12.864l0-694.848q0-7.424-5.418667-12.864t-12.864-5.418667zM1097.152 164.565333l0 694.848q0 37.717333-26.858667 64.576t-64.576 26.858667l-914.282667 0q-37.717333 0-64.576-26.858667t-26.858667-64.576l0-694.848q0-37.717333 26.858667-64.576t64.576-26.858667l914.282667 0q37.717333 0 64.576 26.858667t26.858667 64.576z" fill="#515151" p-id="4048"></path></svg>