<?xml version="1.0" standalone="no"?><!DOCTYPE svg PUBLIC "-//W3C//DTD SVG 1.1//EN" "http://www.w3.org/Graphics/SVG/1.1/DTD/svg11.dtd"><svg t="1681541457036" class="icon" viewBox="0 0 1024 1024" version="1.1" xmlns="http://www.w3.org/2000/svg" p-id="27992" xmlns:xlink="http://www.w3.org/1999/xlink" width="128" height="128"><path d="M864 512C864 317.595768 706.40423 160 512 160 317.595768 160 160 317.595768 160 512 160 706.40423 317.595768 864 512 864 706.40423 864 864 706.40423 864 512ZM64 512C64 264.576432 264.576432 64 512 64 759.423565 64 960 264.576432 960 512 960 759.423565 759.423565 960 512 960 264.576432 960 64 759.423565 64 512Z" fill="#ffffff" p-id="27993"></path><path d="M448 319.987679C448 284.64826 476.407348 256 512 256 547.346224 256 576 284.397866 576 319.987679L576 512.012321C576 547.35174 547.592652 576 512 576 476.653776 576 448 547.602134 448 512.012321L448 319.987679ZM448 704C448 668.653779 476.407348 640 512 640 547.346224 640 576 668.407347 576 704 576 739.346221 547.592652 768 512 768 476.653776 768 448 739.592653 448 704Z" fill="#ffffff" p-id="27994"></path></svg>