<?xml version="1.0" encoding="utf-8"?>
<!-- Generator: Adobe Illustrator 22.1.0, SVG Export Plug-In . SVG Version: 6.00 Build 0)  -->
<svg version="1.1" id="图层_1" xmlns="http://www.w3.org/2000/svg" xmlns:xlink="http://www.w3.org/1999/xlink" x="0px" y="0px"
	 viewBox="0 0 60 60" style="enable-background:new 0 0 60 60;" xml:space="preserve">
<style type="text/css">
	.st0{fill:#5D8EF9;}
	.st1{fill:#D5EBF7;}
	.st2{fill:#FFBE1B;}
	.st3{fill:#2371F5;}
	.st4{fill:#FFFFFF;}
</style>
<g>
	<g>
		<path class="st0" d="M39,28.8l-4.3,4.3v-4.3h-2.3c-1.7,0-3.1-1.4-3.1-3.1v-2.7c-7,0.1-12.7,5.8-12.7,12.8
			c0,7.1,5.7,12.8,12.8,12.8c7.1,0,12.8-5.7,12.8-12.8c0-2.6-0.8-4.9-2-6.9H39z"/>
		<path class="st1" d="M34.7,33.1v-4.3h-2.3c-1.6,0-2.9-1.2-3.1-2.7c-5.3,0-9.5,4.3-9.5,9.6c0,5.3,4.3,9.6,9.6,9.6
			c5.3,0,9.6-4.3,9.6-9.6c0-2-0.6-3.8-1.6-5.4L34.7,33.1z"/>
		<path class="st2" d="M19.5,47.4l0.3,0.1l-0.3,0.1c-1.9,0.5-3.3,1.9-3.8,3.8l-0.1,0.3l-0.1-0.3c-0.5-1.9-1.9-3.3-3.8-3.8l-0.3-0.1
			l0.3-0.1c1.9-0.5,3.3-1.9,3.8-3.8l0.1-0.3l0.1,0.3C16.2,45.5,17.6,46.9,19.5,47.4L19.5,47.4z"/>
		<path class="st3" d="M25.2,16.5l0.4,0.1l-0.4,0.1c-2.1,0.5-3.7,2.1-4.2,4.2l-0.1,0.4l-0.1-0.4c-0.5-2.1-2.1-3.7-4.2-4.2l-0.4-0.1
			l0.4-0.1c2.1-0.5,3.7-2.1,4.2-4.2l0.1-0.4l0.1,0.4C21.5,14.4,23.1,16,25.2,16.5L25.2,16.5z"/>
		<path class="st3" d="M16.4,23.4l0.2,0.1l-0.2,0.1c-1.4,0.3-2.5,1.4-2.8,2.8l-0.1,0.2l-0.1-0.2c-0.3-1.4-1.4-2.5-2.8-2.8l-0.2-0.1
			l0.2-0.1c1.4-0.3,2.5-1.4,2.8-2.8l0.1-0.2l0.1,0.2C14,22,15.1,23.1,16.4,23.4L16.4,23.4z"/>
		<path class="st3" d="M46.2,15H32.4c-1.7,0-3.1,1.4-3.1,3.1v7.5c0,1.7,1.4,3.1,3.1,3.1h2.3v4.3l4.3-4.3h7.2c1.7,0,3.1-1.4,3.1-3.1
			v-7.5C49.3,16.4,47.9,15,46.2,15z"/>
		<path class="st0" d="M50.8,38.6l0.2,0.1l-0.2,0.1c-1.4,0.4-2.6,1.5-2.9,2.9l-0.1,0.2l-0.1-0.2c-0.4-1.4-1.5-2.6-2.9-2.9l-0.2-0.1
			l0.2-0.1c1.4-0.4,2.6-1.5,2.9-2.9l0.1-0.2l0.1,0.2C48.2,37.1,49.3,38.2,50.8,38.6L50.8,38.6z"/>
		<g>
			<path class="st3" d="M28.2,32.5h2.3l0.4,4.2l1.5-4.2h3l-3,8.3h-3l-0.6-4.2l-1.7,4.2h-3L23.5,33l-0.4-0.6h3.2l0.4,4.2L28.2,32.5z"
				/>
		</g>
	</g>
	<g>
		<g>
			<path class="st4" d="M36.4,17.7h6.3c0.3,0,0.5,0.2,0.5,0.5V26c0,0.2-0.1,0.4-0.3,0.5c-0.2,0.1-0.4,0.1-0.5,0l-2.6-1.6
				c-0.2-0.1-0.4-0.1-0.6,0l-2.6,1.6c-0.2,0.1-0.4,0.1-0.5,0c-0.2-0.1-0.3-0.3-0.3-0.5v-7.7C35.9,18,36.1,17.7,36.4,17.7L36.4,17.7z
				 M39.1,20.4h-1c-0.3,0-0.5,0.2-0.5,0.5c0,0.3,0.2,0.5,0.5,0.5h1v1c0,0.3,0.2,0.5,0.5,0.5c0.3,0,0.5-0.2,0.5-0.5v-1h1
				c0.3,0,0.5-0.2,0.5-0.5c0-0.3-0.2-0.5-0.5-0.5h-1v-1c0-0.3-0.2-0.5-0.5-0.5c-0.3,0-0.5,0.2-0.5,0.5V20.4z M39.1,20.4"/>
		</g>
	</g>
</g>
</svg>
