<?xml version="1.0" standalone="no"?><!DOCTYPE svg PUBLIC "-//W3C//DTD SVG 1.1//EN" "http://www.w3.org/Graphics/SVG/1.1/DTD/svg11.dtd"><svg t="1718253442259" class="icon" viewBox="0 0 1243 1024" version="1.1" xmlns="http://www.w3.org/2000/svg" p-id="3142" width="155.375" height="128" xmlns:xlink="http://www.w3.org/1999/xlink"><path d="M335.725714 274.212571h-15.579428l-29.037715 119.734858h73.618286l-29.037714-119.734858z m587.227429 239.469715c15.689143 34.706286 36.534857 62.793143 59.611428 86.710857 23.04-23.917714 46.336-52.004571 62.025143-86.710857h-121.636571z" fill="#4C7BF7" p-id="3143"></path><path d="M1130.203429 182.454857H679.350857l93.988572 621.897143a82.944 82.944 0 0 1-26.88 68.132571l-159.195429 150.016h542.939429c60.050286 0 108.873143-40.301714 108.873142-89.819428V274.212571c0-49.517714-48.859429-91.794286-108.873142-91.794285z m0 331.227429h-9.728c-20.626286 54.601143-53.394286 97.389714-87.405715 131.072 26.624 20.114286 55.149714 36.571429 83.492572 55.076571 15.652571 10.313143 18.176 29.147429 5.632 42.057143-12.470857 12.909714-35.401143 14.994286-51.017143 4.644571-30.793143-20.041143-59.684571-36.827429-88.612572-58.697142-28.891429 21.869714-55.405714 38.656-86.235428 58.697142-15.579429 10.349714-38.509714 8.265143-51.017143-4.644571-12.544-12.909714-9.984-31.744 5.632-42.057143 28.379429-18.468571 54.491429-34.962286 81.115429-55.076571a363.227429 363.227429 0 0 1-85.028572-131.072h-9.691428c-20.077714 0-36.315429-13.385143-36.315429-29.952 0-16.530286 16.274286-29.915429 36.315429-29.915429h108.909714v-29.952c0-16.530286 16.237714-29.915429 36.315428-29.915428 20.041143 0 36.278857 13.385143 36.278858 29.915428v29.952h111.323428c20.077714 0 36.315429 13.385143 36.315429 29.915429 0 16.530286-16.237714 29.952-36.278857 29.952z" fill="#4C7BF7" p-id="3144"></path><path d="M590.884571 79.506286C584.118857 34.669714 537.636571 0.877714 482.852571 0.877714H108.909714C48.859429 0.841143 0 41.069714 0 90.624v662.454857c0 49.517714 48.859429 89.782857 108.909714 89.782857h572.452572c10.605714-9.984 19.492571-16.237714 19.858285-29.257143 0.109714-3.291429-109.824-730.88-110.336-734.134857z m-145.737142 493.421714c-19.236571 3.291429-38.765714-7.021714-42.715429-23.442286l-23.186286-95.670857H276.589714l-23.186285 95.670857c-3.913143 16.164571-22.820571 26.806857-42.715429 23.442286-19.638857-3.218286-32.402286-19.017143-28.452571-35.218286L254.829714 238.445714c3.401143-13.970286 18.285714-24.064 35.584-24.064h75.008c17.298286 0 32.182857 10.093714 35.620572 24.064l72.594285 299.300572c3.913143 16.237714-8.850286 32-28.489142 35.218285z m-20.992 329.837714l6.217142 41.069715c4.169143 27.501714 26.331429 55.515429 62.793143 69.558857l121.856-110.628572h-190.902857z" fill="#4C7BF7" p-id="3145"></path></svg>