<?xml version="1.0" standalone="no"?><!DOCTYPE svg PUBLIC "-//W3C//DTD SVG 1.1//EN" "http://www.w3.org/Graphics/SVG/1.1/DTD/svg11.dtd"><svg t="1704091672569" class="icon" viewBox="0 0 1024 1024" version="1.1" xmlns="http://www.w3.org/2000/svg" p-id="8986" xmlns:xlink="http://www.w3.org/1999/xlink" width="200" height="200"><path d="M512 64a32 32 0 0 0-32 32v416a32 32 0 0 0 64 0V96a32 32 0 0 0-32-32z m171.328 33.952a32 32 0 0 0-24.704 59.072l0.224 0.064C798.048 214.752 896 351.936 896 512c0 212.096-171.904 384-384 384S128 724.096 128 512c0-160.064 97.92-297.248 237.152-354.912a32 32 0 1 0-24.672-59.04l0.224-0.064c-162.4 67.264-276.672 227.328-276.672 414.048 0 247.424 200.576 448 448 448s448-200.576 448-448c0-186.752-114.24-346.784-276.672-414.048z" p-id="8987"></path></svg>