<?xml version="1.0" standalone="no"?><!DOCTYPE svg PUBLIC "-//W3C//DTD SVG 1.1//EN" "http://www.w3.org/Graphics/SVG/1.1/DTD/svg11.dtd"><svg t="1703762321224" class="icon" viewBox="0 0 1026 1024" version="1.1" xmlns="http://www.w3.org/2000/svg" p-id="8687" xmlns:xlink="http://www.w3.org/1999/xlink" width="128.25" height="128"><path d="M832.292571 136.338286l55.881143 130.633143 55.881143-130.633143h82.066286l-96.914286 226.596571 95.232 222.646857h-82.139428l-54.125715-126.610285-54.198857 126.537142H751.908571l95.232-222.573714-96.914285-226.596571h82.066285zM90.624 138.971429l107.081143 318.317714 106.934857-318.317714h83.968v446.025142h-73.142857l-0.073143-243.565714-79.433143 236.763429H159.597714L73.142857 321.389714v263.68H0V138.971429h90.697143z m518.070857-3.437715l121.197714 449.462857H653.165714l-27.355428-100.937142H521.216L491.373714 585.142857h-77.531428L547.108571 135.606857h61.586286z m-32.694857 163.913143l-28.891429 97.28h55.076572l-26.185143-97.28zM1024 782.409143v73.142857H0v-73.142857z" fill="#999999" p-id="8688"></path></svg>