<?xml version="1.0" standalone="no"?><!DOCTYPE svg PUBLIC "-//W3C//DTD SVG 1.1//EN" "http://www.w3.org/Graphics/SVG/1.1/DTD/svg11.dtd"><svg t="1711541599889" class="icon" viewBox="0 0 1024 1024" version="1.1" xmlns="http://www.w3.org/2000/svg" p-id="5274" xmlns:xlink="http://www.w3.org/1999/xlink" width="128" height="128"><path d="M915.693 97.645L565.67 356.634 630.765 204 915.693 97.645z" fill="#8E8E8E" p-id="5275"></path><path d="M108.307 97.645l346.886 261.408L393.235 204 108.307 97.645zM789.626 698.144l-93.139 142.285 199.405 54.88 57.12-194.074-163.386-3.091zM71.302 701.235l56.762 194.074 199.046-54.88-92.78-142.285-163.028 3.091z" fill="#8D8D8D" p-id="5276"></path><path d="M316.358 457.792l-55.418 83.552 197.344 9.005-6.541-212.397-135.385 119.84zM707.597 457.792L570.15 335.533l-4.525 214.816 197.344-9.005-55.372-83.552zM327.11 840.429l119.437-57.658-102.816-80.102-16.621 137.76zM577.453 782.726l119.123 57.658-16.262-137.76-102.861 80.102z" fill="#8D8D8D" p-id="5277"></path><path d="M696.531 840.429l-119.123-57.658 9.722 77.37-1.03 32.794 110.431-52.506zM327.11 840.429l110.79 52.506-0.672-32.794 9.363-77.37-119.481 57.658z" fill="#C4C4C4" p-id="5278"></path><path d="M440.006 651.507l-99.008-28.986 69.933-32.122 29.075 61.108zM583.994 651.507l29.075-61.152 70.291 32.122-99.366 29.03z" fill="#313131" p-id="5279"></path><path d="M327.11 840.429l17.338-142.285-110.074 3.091 92.736 139.194zM679.552 698.144l16.979 142.285 93.139-139.194-110.118-3.091zM763.014 541.344l-197.344 9.005 18.368 101.203 29.075-61.152 70.291 32.122 79.61-81.178zM340.998 622.522l69.933-32.122 29.075 61.152 18.323-101.203-197.344-9.005 80.013 81.178z" fill="#7B7B7B" p-id="5280"></path><path d="M260.986 541.344l82.746 161.235-2.778-80.102-79.968-81.133zM683.36 622.522l-3.091 80.102 82.746-161.235-79.655 81.133zM458.33 550.304l-18.368 101.203 23.162 119.482 5.197-157.472-9.991-63.213zM565.67 550.304l-9.722 62.854 4.838 157.83 23.162-119.482-18.278-101.202z" fill="#8D8D8D" p-id="5281"></path><path d="M583.994 651.507l-23.162 119.482 16.621 11.782 102.816-80.102 3.091-80.102-99.366 28.94zM340.998 622.522l2.778 80.102 102.816 80.102 16.621-11.782-23.162-119.482-99.053-28.94z" fill="#9B9B9B" p-id="5282"></path><path d="M586.099 892.934l1.03-32.794-9.005-7.571h-132.25l-8.646 7.571 0.672 32.794-110.79-52.506 38.752 31.763 78.579 54.208H579.11l78.938-54.208 38.438-31.763-110.387 52.506z" fill="#B0B0B0" p-id="5283"></path><path d="M577.453 782.726l-16.621-11.782h-97.664l-16.621 11.782-9.318 77.37 8.646-7.571h132.25l9.005 7.571-9.677-77.37z" fill="#161616" p-id="5284"></path><path d="M930.566 373.523L960 230.566 915.693 97.6l-338.24 250.387 130.189 109.805 183.814 53.536 40.499-47.309-17.696-12.768 28.045-25.581-21.459-16.576 28.045-21.414-18.324-14.157zM64 230.566l29.792 142.957-19.085 14.157 28.358 21.414-21.37 16.576 28.045 25.581-17.696 12.768 40.499 47.309 183.814-53.536 130.189-109.805L108.307 97.6 64 230.566z" fill="#4B4B4B" p-id="5285"></path><path d="M891.456 511.328l-183.814-53.536 55.418 83.552-82.746 161.235 109.402-1.389h163.43l-61.69-189.862zM316.358 457.792l-183.814 53.536-61.242 189.907h163.072l109.402 1.389-82.746-161.235 55.328-83.597zM565.67 550.349l11.782-202.362L630.765 204h-237.53l53.312 143.987 11.782 202.362 4.525 63.526 0.358 157.114h97.619l0.358-157.114 4.481-63.526z" fill="#9B9B9B" p-id="5286"></path></svg>