<?xml version="1.0" standalone="no"?><!DOCTYPE svg PUBLIC "-//W3C//DTD SVG 1.1//EN" "http://www.w3.org/Graphics/SVG/1.1/DTD/svg11.dtd"><svg t="1703494337928" class="icon" viewBox="0 0 1024 1024" version="1.1" xmlns="http://www.w3.org/2000/svg" p-id="5141" xmlns:xlink="http://www.w3.org/1999/xlink" width="128" height="128"><path d="M988.16 289.6l-15.36-25.6a716.48 716.48 0 0 0-220.8-220.8A77.76 77.76 0 0 0 672 176.32a530.88 530.88 0 0 1 50.88 37.12l-224 17.6a72.96 72.96 0 0 0 0 145.6l225.6 17.6A424.32 424.32 0 0 1 672 431.68a77.76 77.76 0 1 0 80 133.12 716.48 716.48 0 0 0 220.8-220.8l15.36-25.6a27.84 27.84 0 0 0 0-28.8zM526.08 647.04l-225.6-17.6A424.64 424.64 0 0 1 352 592.32a77.76 77.76 0 1 0-80-133.12 716.16 716.16 0 0 0-220.8 220.8l-15.36 25.6a27.84 27.84 0 0 0 0 28.48l15.36 25.6a716.16 716.16 0 0 0 220.8 220.8 77.76 77.76 0 1 0 80-132.8 531.84 531.84 0 0 1-50.88-37.12l224-17.6a72.96 72.96 0 0 0 0-145.6z" fill="#231F20" p-id="5142"></path></svg>