<?xml version="1.0" standalone="no"?><!DOCTYPE svg PUBLIC "-//W3C//DTD SVG 1.1//EN" "http://www.w3.org/Graphics/SVG/1.1/DTD/svg11.dtd"><svg t="1703739776182" class="icon" viewBox="0 0 1024 1024" version="1.1" xmlns="http://www.w3.org/2000/svg" p-id="13023" xmlns:xlink="http://www.w3.org/1999/xlink" width="128" height="128"><path d="M703.328 921.984l0-218.656 81.984 0 0-164-245.984 0 0 164 81.984 0 0 218.656-218.656 0 0-218.656 81.984 0 0-164-245.984 0 0 164 81.984 0 0 218.656-218.656 0 0-218.656 81.984 0 0-218.656 300.64 0 0-164-81.984 0 0-218.656 218.656 0 0 218.656-81.984 0 0 164 300.64 0 0 218.656 81.984 0 0 218.656-218.656 0zM156.704 757.984l0 109.312 109.312 0 0-109.312-109.312 0zM566.656 266.016l0-109.312-109.312 0 0 109.312 109.312 0zM457.344 757.984l0 109.312 109.312 0 0-109.312-109.312 0zM867.296 757.984l-109.312 0 0 109.312 109.312 0 0-109.312z" fill="#444444" p-id="13024"></path></svg>