<?xml version="1.0" standalone="no"?><!DOCTYPE svg PUBLIC "-//W3C//DTD SVG 1.1//EN" "http://www.w3.org/Graphics/SVG/1.1/DTD/svg11.dtd"><svg height="1024" node-id="1" sillyvg="true" template-height="1024" template-width="1024" version="1.1" viewBox="0 0 1024 1024" width="1024" xmlns="http://www.w3.org/2000/svg" xmlns:xlink="http://www.w3.org/1999/xlink"><defs node-id="37"><linearGradient gradientUnits="objectBoundingBox" id="linearGradient-1" node-id="3" spreadMethod="pad" x1="0.75774837" x2="0.26300043" y1="0.89788246" y2="0.06672812"><stop offset="0" stop-color="#dce2ec"></stop><stop offset="1" stop-color="#eef1f5"></stop></linearGradient><linearGradient gradientUnits="objectBoundingBox" id="linearGradient-2" node-id="6" spreadMethod="pad" x1="0.2833117" x2="0.47835723" y1="0.5" y2="0.15123942"><stop offset="0" stop-color="#dce2ec" stop-opacity="0"></stop><stop offset="1" stop-color="#dce2ec"></stop></linearGradient><linearGradient gradientUnits="objectBoundingBox" id="linearGradient-3" node-id="9" spreadMethod="pad" x1="0.52506536" x2="0.5369437" y1="0.8267667" y2="0.1585097"><stop offset="0" stop-color="#dce0e9"></stop><stop offset="1" stop-color="#dce0e9"></stop></linearGradient><linearGradient gradientUnits="objectBoundingBox" id="linearGradient-4" node-id="12" spreadMethod="pad" x1="1.1537404" x2="-0.101114154" y1="0.5805712" y2="0.41226244"><stop offset="0" stop-color="#f0f4f8"></stop><stop offset="1" stop-color="#dee4ed"></stop></linearGradient><linearGradient gradientUnits="objectBoundingBox" id="linearGradient-5" node-id="15" spreadMethod="pad" x1="0.110735975" x2="0.9418903" y1="0.62347084" y2="0.3693628"><stop offset="0" stop-color="#f0f4f8"></stop><stop offset="1" stop-color="#dee4ed"></stop></linearGradient></defs><path d="M 0.00 0.00 L 1024.00 0.00 L 1024.00 1024.00 L 0.00 1024.00 Z" fill="none" id="bg" node-id="19" stroke="none" target-height="1024" target-width="1024" target-x="0" target-y="0"></path><g node-id="68"><path d="M 64.00 64.00 L 960.00 64.00 L 960.00 960.00 L 64.00 960.00 Z" fill="none" group-id="1" id="矩形" node-id="21" stroke="none" target-height="896" target-width="896" target-x="64" target-y="64"></path><g node-id="69"><path d="M 209.60 758.40 L 512.00 664.01 L 512.00 282.80 L 209.60 370.51 Z" fill="#ced3de" fill-rule="nonzero" group-id="1,2" id="Path" node-id="23" stroke="none" target-height="475.60004" target-width="302.4" target-x="209.6" target-y="282.8"></path><g node-id="70"><path d="M 814.40 758.40 L 512.00 664.01 L 512.00 282.80 L 814.40 370.51 Z" fill="#6d7c9a" fill-opacity="0.4" fill-rule="nonzero" group-id="1,2,3" id="Path" node-id="25" stroke="none" target-height="475.60004" target-width="302.40002" target-x="512" target-y="282.8"></path></g><path d="M 213.24 750.41 L 509.83 656.44 L 509.83 281.95 L 213.24 364.24 Z" fill="#ced3dc" fill-rule="nonzero" group-id="1,2" id="Path" node-id="26" stroke="none" target-height="468.45996" target-width="296.58997" target-x="213.24" target-y="281.95"></path><path d="M 806.43 750.41 L 509.83 656.44 L 509.83 281.95 L 806.43 364.24 Z" fill="#d8dce3" fill-rule="nonzero" group-id="1,2" id="Path" node-id="27" stroke="none" target-height="468.45996" target-width="296.6" target-x="509.83" target-y="281.95"></path><path d="M 512.00 848.00 L 209.60 753.52 L 209.60 366.40 L 512.00 460.88 Z" fill="url(#linearGradient-1)" fill-rule="nonzero" group-id="1,2" id="Path" node-id="28" stroke="none" target-height="481.6" target-width="302.4" target-x="209.6" target-y="366.4"></path><path d="M 512.00 848.00 L 814.40 753.52 L 814.40 366.40 L 512.00 460.88 Z" fill="url(#linearGradient-1)" fill-rule="nonzero" group-id="1,2" id="Path" node-id="29" stroke="none" target-height="481.6" target-width="302.40002" target-x="512" target-y="366.4"></path><path d="M 443.48 780.80 L 209.60 754.53 L 209.60 366.40 L 512.00 461.12 Z" fill="url(#linearGradient-2)" fill-opacity="0.09" fill-rule="nonzero" group-id="1,2" id="Path" node-id="30" stroke="none" target-height="414.4" target-width="302.4" target-x="209.6" target-y="366.4"></path><path d="M 580.52 717.01 L 814.40 758.40 L 814.40 377.60 L 512.00 470.53 Z" fill="url(#linearGradient-3)" fill-opacity="0.2" fill-rule="nonzero" group-id="1,2" id="Path" node-id="31" stroke="none" target-height="380.80002" target-width="302.40002" target-x="512" target-y="377.6"></path><path d="M 512.00 283.00 L 370.34 176.00 L 64.00 280.07 L 210.70 377.60 Z" fill="url(#linearGradient-4)" fill-rule="nonzero" group-id="1,2" id="Path" node-id="32" stroke="none" target-height="201.6" target-width="448" target-x="64" target-y="176"></path><path d="M 512.00 283.00 L 653.66 176.00 L 960.00 280.07 L 813.30 377.60 Z" fill="url(#linearGradient-5)" fill-rule="nonzero" group-id="1,2" id="Path" node-id="33" stroke="none" target-height="201.6" target-width="448" target-x="512" target-y="176"></path><path d="M 210.70 366.40 L 512.00 460.92 L 361.70 556.80 L 64.00 458.01 Z" fill="#f4f8fd" fill-rule="nonzero" group-id="1,2" id="Path" node-id="34" stroke="none" target-height="190.4" target-width="448" target-x="64" target-y="366.4"></path><path d="M 813.30 366.40 L 512.00 460.92 L 662.29 556.80 L 960.00 458.01 Z" fill="#f2f6fa" fill-rule="nonzero" group-id="1,2" id="Path" node-id="35" stroke="none" target-height="190.4" target-width="448" target-x="512" target-y="366.4"></path></g></g></svg>