<?xml version="1.0" standalone="no"?><!DOCTYPE svg PUBLIC "-//W3C//DTD SVG 1.1//EN" "http://www.w3.org/Graphics/SVG/1.1/DTD/svg11.dtd"><svg height="1500" node-id="1" sillyvg="true" template-height="1500" template-width="1734" version="1.1" viewBox="0 0 1734 1500" width="1734" xmlns="http://www.w3.org/2000/svg" xmlns:xlink="http://www.w3.org/1999/xlink"><defs node-id="68"><linearGradient gradientUnits="userSpaceOnUse" id="未命名的渐变_17" node-id="5" spreadMethod="pad" x1="95679.305" x2="95756.695" y1="144357.94" y2="144357.94"><stop offset="0" stop-color="#eaeff5"></stop><stop offset="0.99" stop-color="#dee1f0"></stop></linearGradient><linearGradient gradientUnits="userSpaceOnUse" id="未命名的渐变_23" node-id="8" spreadMethod="pad" x1="94716.39" x2="94793.32" y1="56299.832" y2="56299.832"><stop offset="0" stop-color="#548fff"></stop><stop offset="1" stop-color="#949fff"></stop></linearGradient><linearGradient gradientUnits="userSpaceOnUse" id="未命名的渐变_49" node-id="11" spreadMethod="pad" x1="354.95" x2="432.67" y1="489.82" y2="489.82"><stop offset="0" stop-color="#ebf4ff"></stop><stop offset="1" stop-color="#ebebff"></stop></linearGradient><linearGradient gradientUnits="userSpaceOnUse" id="未命名的渐变_94" node-id="14" spreadMethod="pad" x1="345" x2="383" y1="1015" y2="1015"><stop offset="0" stop-color="#ebf4ff"></stop><stop offset="1" stop-color="#ebe1ff"></stop></linearGradient><linearGradient gradientUnits="userSpaceOnUse" id="未命名的渐变_94-2" node-id="17" spreadMethod="pad" x1="422" x2="460" y1="980" y2="980"><stop offset="0" stop-color="#ebf4ff"></stop><stop offset="1" stop-color="#ebe1ff"></stop></linearGradient><linearGradient gradientTransform="matrix(0.61290705 -0.79015501 0.79015501 0.61290705 -184.02 1452.98)" gradientUnits="userSpaceOnUse" id="未命名的渐变_94-3" node-id="18" spreadMethod="pad" x1="1346.27" x2="1441.25" y1="916.62" y2="916.62"><stop offset="0" stop-color="#ebf4ff"></stop><stop offset="1" stop-color="#ebe1ff"></stop></linearGradient><linearGradient gradientTransform="matrix(0.61290705 -0.79015501 0.79015501 0.61290705 -265.23 1406.92)" gradientUnits="userSpaceOnUse" id="未命名的渐变_94-4" node-id="19" spreadMethod="pad" x1="1261.9" x2="1356.88" y1="976" y2="976"><stop offset="0" stop-color="#ebf4ff"></stop><stop offset="1" stop-color="#ebe1ff"></stop></linearGradient><linearGradient gradientTransform="matrix(0.61290705 -0.79015501 0.79015501 0.61290705 -347.63 1364.51)" gradientUnits="userSpaceOnUse" id="未命名的渐变_94-5" node-id="20" spreadMethod="pad" x1="1180.61" x2="1275.59" y1="1038.3" y2="1038.3"><stop offset="0" stop-color="#ebf4ff"></stop><stop offset="1" stop-color="#ebe1ff"></stop></linearGradient><linearGradient gradientUnits="userSpaceOnUse" id="未命名的渐变_94-6" node-id="21" spreadMethod="pad" x1="479" x2="1200" y1="706.5" y2="706.5"><stop offset="0" stop-color="#ebf4ff"></stop><stop offset="1" stop-color="#ebe1ff"></stop></linearGradient><linearGradient gradientUnits="userSpaceOnUse" id="未命名的渐变_94-7" node-id="22" spreadMethod="pad" x1="719" x2="971" y1="623.5" y2="623.5"><stop offset="0" stop-color="#ebf4ff"></stop><stop offset="1" stop-color="#ebe1ff"></stop></linearGradient><linearGradient gradientUnits="userSpaceOnUse" id="未命名的渐变_94-8" node-id="23" spreadMethod="pad" x1="719" x2="1038" y1="743.5" y2="743.5"><stop offset="0" stop-color="#ebf4ff"></stop><stop offset="1" stop-color="#ebe1ff"></stop></linearGradient><linearGradient gradientUnits="userSpaceOnUse" id="未命名的渐变_94-9" node-id="24" spreadMethod="pad" x1="719" x2="971" y1="863.5" y2="863.5"><stop offset="0" stop-color="#ebf4ff"></stop><stop offset="1" stop-color="#ebe1ff"></stop></linearGradient></defs><path d="M 1484.50 1247.00 L 206.50 1247.00 C 194.09 1246.97 184.03 1236.91 184.00 1224.50 L 184.00 1224.50 C 184.03 1212.09 194.09 1202.03 206.50 1202.00 L 1484.50 1202.00 C 1496.91 1202.03 1506.97 1212.09 1507.00 1224.50 L 1507.00 1224.50 C 1506.97 1236.91 1496.91 1246.97 1484.50 1247.00 Z" fill="none" node-id="144" stroke="#d3dcf4" stroke-linecap="butt" stroke-width="20" target-height="45" target-width="1323" target-x="184" target-y="1202"></path><path d="M 1120.00 1288.00 L 1194.85 1288.00 C 1218.37 1288.00 1242.48 1286.32 1265.90 1288.85 C 1273.27 1289.64 1281.97 1290.30 1288.73 1293.94 C 1295.06 1297.35 1294.15 1302.78 1291.65 1308.47 C 1288.07 1316.61 1284.25 1324.14 1284.87 1333.32 C 1285.54 1343.12 1293.60 1347.03 1302.37 1348.88 C 1328.37 1354.37 1355.73 1350.80 1382.00 1350.00 C 1393.56 1349.65 1393.61 1331.64 1382.00 1332.00 C 1358.19 1332.73 1333.89 1335.61 1310.17 1332.08 C 1309.38 1331.96 1299.93 1329.08 1300.01 1329.00 C 1299.57 1329.39 1303.85 1332.50 1302.87 1333.32 C 1302.91 1332.56 1302.89 1331.80 1302.80 1331.04 C 1302.81 1329.11 1303.15 1327.19 1303.80 1325.37 C 1306.32 1317.61 1311.14 1310.99 1311.72 1302.60 C 1313.20 1281.25 1291.27 1274.23 1274.30 1271.92 C 1250.92 1268.75 1227.30 1270.00 1203.71 1270.00 L 1120.00 1270.00 C 1108.42 1270.00 1108.40 1288.00 1120.00 1288.00 Z" fill="#d3dcf4" fill-rule="nonzero" node-id="146" stroke="none" target-height="85.619995" target-width="285.20996" target-x="1108.4" target-y="1268.75"></path><path d="M 372.00 1296.00 L 632.00 1296.00 C 643.58 1296.00 643.60 1278.00 632.00 1278.00 L 372.00 1278.00 C 360.42 1278.00 360.40 1296.00 372.00 1296.00 Z" fill="#d3dcf4" fill-rule="nonzero" node-id="148" stroke="none" target-height="18" target-width="283.19998" target-x="360.4" target-y="1278"></path><g node-id="231"><g node-id="236"><g node-id="238"><path d="M 1455.70 992.13 L 1422.91 973.22 C 1420.50 971.79 1420.75 969.31 1423.60 967.66 L 1454.75 949.66 C 1457.60 948.02 1461.97 947.84 1464.37 949.27 L 1497.17 968.17 C 1499.65 969.60 1499.33 972.09 1496.48 973.74 L 1465.34 991.74 C 1462.49 993.33 1458.18 993.55 1455.70 992.13 Z" fill="#c9cfe5" fill-opacity="0.3" fill-rule="nonzero" group-id="1,6,8" id="路径" node-id="33" stroke="none" target-height="45.70996" target-width="79.150024" target-x="1420.5" target-y="947.84"></path></g><path d="M 1498.84 955.14 C 1498.85 955.04 1498.85 954.94 1498.84 954.84 L 1498.84 611.84 L 1421.25 611.84 L 1421.25 955.18 C 1421.32 956.23 1421.96 957.15 1422.91 957.59 L 1455.70 976.49 C 1458.18 977.91 1462.49 977.70 1465.33 976.09 L 1496.47 958.09 C 1497.66 957.54 1498.53 956.47 1498.82 955.19 Z" fill="url(#未命名的渐变_17)" fill-rule="nonzero" group-id="1,6" id="路径-2" node-id="34" stroke="none" target-height="366.06995" target-width="77.599976" target-x="1421.25" target-y="611.84"></path><path d="M 1455.70 633.35 L 1422.91 614.44 C 1420.50 613.01 1420.75 610.52 1423.60 608.88 L 1454.75 590.88 C 1457.60 589.23 1461.97 589.05 1464.37 590.47 C 1465.98 591.42 1476.92 597.73 1497.17 609.39 C 1499.65 610.81 1499.33 613.30 1496.48 614.94 L 1465.34 632.94 C 1462.49 634.60 1458.18 634.76 1455.70 633.35 Z" fill="#fafbfd" fill-rule="nonzero" group-id="1,6" id="路径-3" node-id="35" stroke="none" target-height="45.710022" target-width="79.150024" target-x="1420.5" target-y="589.05"></path></g><g node-id="237"><g node-id="239"><path d="M 389.46 643.00 L 356.61 624.09 C 354.14 622.67 354.46 620.16 357.31 618.52 L 388.56 600.52 C 391.42 598.87 395.80 598.69 398.21 600.12 L 431.05 619.04 C 433.53 620.47 433.22 622.96 430.36 624.61 L 399.12 642.61 C 396.25 644.27 391.94 644.45 389.46 643.00 Z" fill="#a0b3f8" fill-opacity="0.3" fill-rule="nonzero" group-id="1,7,9" id="路径-4" node-id="37" stroke="none" target-height="45.76001" target-width="79.389984" target-x="354.14" target-y="598.69"></path></g><path d="M 432.66 606.00 C 432.67 605.90 432.67 605.80 432.66 605.70 L 432.66 489.70 L 355.00 489.70 L 355.00 606.07 C 355.07 607.11 355.71 608.03 356.66 608.47 L 389.51 627.39 C 391.99 628.82 396.30 628.59 399.15 626.99 L 430.34 608.99 C 431.54 608.45 432.41 607.37 432.69 606.09 L 432.69 606.09 Z" fill="url(#未命名的渐变_23)" fill-rule="nonzero" group-id="1,7" id="路径-5" node-id="38" stroke="none" target-height="139.12" target-width="77.69" target-x="355" target-y="489.7"></path><path d="M 389.46 511.24 L 356.61 492.32 C 354.14 490.90 354.46 488.41 357.31 486.77 L 388.50 468.77 C 391.36 467.12 395.74 466.94 398.15 468.36 L 431.00 487.31 C 433.48 488.74 433.17 491.23 430.31 492.88 L 399.12 510.88 C 396.25 512.48 391.94 512.66 389.46 511.24 Z" fill="url(#未命名的渐变_49)" fill-rule="nonzero" group-id="1,7" id="路径-6" node-id="39" stroke="none" target-height="45.71997" target-width="79.34" target-x="354.14" target-y="466.94"></path></g></g><path d="M 562.49 1022.57 L 374.20 1106.11 L 348.00 1192.00 C 337.00 1176.00 311.00 1126.34 307.37 1118.26 L 249.37 987.55 C 247.65 983.67 247.54 979.27 249.06 975.31 C 250.58 971.34 253.62 968.15 257.50 966.43 L 491.50 862.61 C 495.38 860.89 499.78 860.78 503.74 862.30 C 507.71 863.82 510.90 866.86 512.62 870.74 L 570.62 1001.45 C 572.34 1005.33 572.45 1009.73 570.93 1013.69 C 569.41 1017.66 566.37 1020.85 562.49 1022.57 Z" fill="#3a3a77" fill-rule="nonzero" node-id="168" stroke="none" target-height="331.21997" target-width="324.91003" target-x="247.54" target-y="860.78"></path><path d="M 383.00 1015.00 C 383.00 1025.49 374.49 1034.00 364.00 1034.00 C 353.51 1034.00 345.00 1025.49 345.00 1015.00 C 345.00 1004.51 353.51 996.00 364.00 996.00 C 374.49 996.00 383.00 1004.51 383.00 1015.00 Z" fill="url(#未命名的渐变_94)" fill-rule="nonzero" node-id="170" stroke="none" target-height="38" target-width="38" target-x="345" target-y="996"></path><path d="M 460.00 980.00 C 460.00 990.49 451.49 999.00 441.00 999.00 C 430.51 999.00 422.00 990.49 422.00 980.00 C 422.00 969.51 430.51 961.00 441.00 961.00 C 451.49 961.00 460.00 969.51 460.00 980.00 Z" fill="url(#未命名的渐变_94-2)" fill-rule="nonzero" node-id="172" stroke="none" target-height="38" target-width="38" target-x="422" target-y="961"></path><path d="M 1056.97 1192.44 L 1056.66 1192.01" fill="#3a3a77" fill-rule="nonzero" node-id="174" stroke="none" target-height="0.42993164" target-width="0.30993652" target-x="1056.66" target-y="1192.01"></path><path d="M 1308.50 1190.77 L 1306.81 1192.01" fill="#3a3a77" fill-rule="nonzero" node-id="176" stroke="none" target-height="1.2399902" target-width="1.6899414" target-x="1306.81" target-y="1190.77"></path><path d="M 1056.66 1192.00 L 911.22 993.27 C 904.70 984.36 906.64 971.84 915.55 965.32 L 1332.00 660.59 C 1336.28 657.44 1341.65 656.13 1346.90 656.94 C 1352.15 657.75 1356.87 660.63 1360.00 664.92 L 1580.87 966.73 C 1587.39 975.64 1585.45 988.16 1576.54 994.68 L 1307.54 1191.77" fill="#3a3a77" fill-rule="nonzero" node-id="178" stroke="none" target-height="535.87" target-width="682.69" target-x="904.7" target-y="656.13"></path><path d="M 1365.64 857.85 L 1438.88 957.92 L 1439.77 959.41 L 1440.36 960.95 L 1440.66 962.55 L 1440.60 964.98 L 1439.92 967.31 L 1439.15 968.75 L 1438.12 970.04 L 1436.82 971.19 L 1436.82 971.19 L 1435.33 972.09 L 1433.79 972.67 L 1432.18 972.98 L 1429.76 972.91 L 1427.42 972.24 L 1425.99 971.47 L 1424.70 970.44 L 1423.54 969.14 L 1350.31 869.07 L 1349.41 867.58 L 1348.82 866.04 L 1348.52 864.44 L 1348.59 862.01 L 1349.26 859.68 L 1350.03 858.24 L 1351.06 856.95 L 1352.36 855.80 L 1352.36 855.80 L 1353.86 854.90 L 1355.40 854.31 L 1357.00 854.01 L 1359.43 854.07 L 1361.76 854.75 L 1363.20 855.52 L 1364.49 856.55 L 1365.64 857.85 Z" fill="url(#未命名的渐变_94-3)" fill-rule="nonzero" group-id="2" node-id="182" stroke="none" target-height="118.96997" target-width="92.140015" target-x="1348.52" target-y="854.01"></path><path d="M 1279.64 914.86 L 1352.88 1014.92 L 1353.77 1016.42 L 1354.36 1017.95 L 1354.66 1019.56 L 1354.60 1021.99 L 1353.92 1024.32 L 1353.15 1025.76 L 1352.12 1027.04 L 1350.82 1028.20 L 1350.82 1028.20 L 1349.33 1029.09 L 1347.79 1029.68 L 1346.19 1029.98 L 1343.76 1029.92 L 1341.42 1029.25 L 1339.99 1028.47 L 1338.70 1027.45 L 1337.54 1026.14 L 1264.31 926.08 L 1263.41 924.58 L 1262.83 923.05 L 1262.52 921.44 L 1262.59 919.02 L 1263.26 916.68 L 1264.03 915.24 L 1265.06 913.96 L 1266.36 912.80 L 1266.36 912.80 L 1267.86 911.91 L 1269.40 911.32 L 1271.00 911.02 L 1273.43 911.08 L 1275.76 911.75 L 1277.20 912.53 L 1278.49 913.55 L 1279.64 914.86 Z" fill="url(#未命名的渐变_94-4)" fill-rule="nonzero" group-id="3" node-id="187" stroke="none" target-height="118.95996" target-width="92.140015" target-x="1262.52" target-y="911.02"></path><path d="M 1196.64 974.87 L 1269.88 1074.93 L 1270.77 1076.42 L 1271.36 1077.96 L 1271.66 1079.57 L 1271.60 1081.99 L 1270.93 1084.33 L 1270.15 1085.76 L 1269.13 1087.05 L 1267.82 1088.21 L 1267.82 1088.21 L 1266.33 1089.10 L 1264.79 1089.69 L 1263.19 1089.99 L 1260.76 1089.93 L 1258.42 1089.25 L 1256.99 1088.48 L 1255.70 1087.46 L 1254.55 1086.15 L 1181.31 986.09 L 1180.42 984.59 L 1179.83 983.06 L 1179.53 981.45 L 1179.59 979.02 L 1180.26 976.69 L 1181.04 975.25 L 1182.06 973.97 L 1183.37 972.81 L 1183.37 972.81 L 1184.86 971.92 L 1186.40 971.33 L 1188.00 971.03 L 1190.43 971.09 L 1192.76 971.76 L 1194.20 972.54 L 1195.49 973.56 L 1196.64 974.87 Z" fill="url(#未命名的渐变_94-5)" fill-rule="nonzero" group-id="4" node-id="192" stroke="none" target-height="118.95996" target-width="92.130005" target-x="1179.53" target-y="971.03"></path><path d="M 1309.50 780.50 C 1307.72 800.50 1305.72 820.50 1303.50 840.50 C 1302.96 845.34 1308.02 849.50 1312.50 849.50 C 1317.81 849.50 1320.96 845.35 1321.50 840.50 C 1323.71 820.50 1325.71 800.50 1327.50 780.50 C 1327.93 775.65 1323.06 771.50 1318.50 771.50 C 1313.27 771.50 1309.93 775.64 1309.50 780.50 Z" fill="#fe9f39" fill-rule="nonzero" node-id="195" stroke="none" target-height="78" target-width="24.970093" target-x="1302.96" target-y="771.5"></path><path d="M 1283.11 814.18 C 1302.26 818.91 1321.77 822.32 1341.11 826.18 C 1352.42 828.44 1357.26 811.09 1345.89 808.82 C 1326.55 804.96 1307.05 801.56 1287.89 796.82 C 1276.65 794.04 1271.89 811.40 1283.11 814.18 Z" fill="#fe9f39" fill-rule="nonzero" node-id="197" stroke="none" target-height="34.400024" target-width="85.369995" target-x="1271.89" target-y="794.04"></path><path d="M 1224.73 835.00 C 1222.15 840.25 1220.00 845.71 1217.63 851.06 C 1216.42 853.79 1215.20 856.53 1213.81 859.17 C 1213.27 860.17 1212.70 861.17 1212.10 862.17 C 1211.50 863.17 1211.58 862.95 1212.37 861.87 C 1211.16 863.03 1212.07 862.53 1215.10 860.37 C 1204.65 862.59 1207.88 877.37 1217.49 878.05 C 1238.96 879.64 1260.17 883.34 1281.49 886.05 C 1286.32 886.66 1290.49 881.47 1290.49 877.05 C 1290.49 871.68 1286.33 868.66 1281.49 868.05 C 1281.12 868.05 1279.03 867.73 1280.49 867.93 L 1277.49 867.51 C 1275.16 867.19 1272.83 866.85 1270.49 866.51 C 1264.90 865.71 1259.32 864.93 1253.73 864.16 C 1241.67 862.52 1229.58 860.94 1217.44 860.04 L 1219.83 877.72 C 1226.14 876.37 1229.26 868.59 1231.65 863.41 C 1234.65 857.01 1237.12 850.41 1240.22 844.08 C 1245.31 833.72 1229.79 824.59 1224.68 835.00 Z" fill="#fe9f39" fill-rule="nonzero" node-id="199" stroke="none" target-height="62.069946" target-width="85.839966" target-x="1204.65" target-y="824.59"></path><path d="M 512.00 291.00 L 1167.00 291.00 C 1185.23 291.00 1200.00 305.77 1200.00 324.00 L 1200.00 1089.00 C 1200.00 1107.23 1185.23 1122.00 1167.00 1122.00 L 512.00 1122.00 C 493.77 1122.00 479.00 1107.23 479.00 1089.00 L 479.00 324.00 C 479.00 305.77 493.77 291.00 512.00 291.00 Z" fill="url(#未命名的渐变_94-6)" fill-rule="nonzero" node-id="201" stroke="#5d83ff" stroke-linecap="butt" stroke-width="18" target-height="831" target-width="721" target-x="479" target-y="291"></path><path d="M 822.00 1029.00 L 567.00 1029.00 C 552.64 1029.00 541.00 1017.36 541.00 1003.00 L 541.00 395.00 C 541.00 380.64 552.64 369.00 567.00 369.00 L 1116.00 369.00 C 1130.36 369.00 1142.00 380.64 1142.00 395.00 L 1142.00 787.00 C 1118.12 884.42 1022.00 1017.00 822.00 1029.00 Z" fill="#ffffff" fill-rule="nonzero" node-id="203" stroke="none" target-height="660" target-width="601" target-x="541" target-y="369"></path><path d="M 724.00 224.00 L 954.00 224.00 C 966.15 224.00 976.00 233.85 976.00 246.00 L 976.00 269.00 C 976.00 281.15 966.15 291.00 954.00 291.00 L 724.00 291.00 C 711.85 291.00 702.00 281.15 702.00 269.00 L 702.00 246.00 C 702.00 233.85 711.85 224.00 724.00 224.00 Z" fill="#3a3a77" fill-rule="nonzero" node-id="205" stroke="none" target-height="67" target-width="274" target-x="702" target-y="224"></path><path d="M 1355.00 238.00 L 1317.00 199.00 L 1258.00 291.00 L 1355.00 238.00 Z" fill="#d3dcf4" fill-rule="nonzero" node-id="207" stroke="none" target-height="92" target-width="97" target-x="1258" target-y="199"></path><path d="M 1412.00 297.00 L 1298.00 314.00 L 1407.00 354.00 L 1412.00 297.00 Z" fill="#d3dcf4" fill-rule="nonzero" node-id="209" stroke="none" target-height="57" target-width="114" target-x="1298" target-y="297"></path><path d="M 692.00 499.00 C 692.00 513.91 679.91 526.00 665.00 526.00 C 650.09 526.00 638.00 513.91 638.00 499.00 C 638.00 484.09 650.09 472.00 665.00 472.00 C 679.91 472.00 692.00 484.09 692.00 499.00 Z" fill="#fe9f39" fill-rule="nonzero" group-id="5" node-id="212" stroke="none" target-height="54" target-width="54" target-x="638" target-y="472"></path><path d="M 738.50 481.00 L 1018.50 481.00 C 1029.27 481.00 1038.00 489.73 1038.00 500.50 L 1038.00 500.50 C 1038.00 511.27 1029.27 520.00 1018.50 520.00 L 738.50 520.00 C 727.73 520.00 719.00 511.27 719.00 500.50 L 719.00 500.50 C 719.00 489.73 727.73 481.00 738.50 481.00 Z" fill="#5d83ff" fill-rule="nonzero" group-id="5" node-id="214" stroke="none" target-height="39" target-width="319" target-x="719" target-y="481"></path><path d="M 692.00 622.00 C 692.00 636.91 679.91 649.00 665.00 649.00 C 650.09 649.00 638.00 636.91 638.00 622.00 C 638.00 607.09 650.09 595.00 665.00 595.00 C 679.91 595.00 692.00 607.09 692.00 622.00 Z" fill="#fe9f39" fill-rule="nonzero" group-id="5" node-id="216" stroke="none" target-height="54" target-width="54" target-x="638" target-y="595"></path><path d="M 738.50 604.00 L 951.50 604.00 C 962.27 604.00 971.00 612.73 971.00 623.50 L 971.00 623.50 C 971.00 634.27 962.27 643.00 951.50 643.00 L 738.50 643.00 C 727.73 643.00 719.00 634.27 719.00 623.50 L 719.00 623.50 C 719.00 612.73 727.73 604.00 738.50 604.00 Z" fill="url(#未命名的渐变_94-7)" fill-rule="nonzero" group-id="5" node-id="218" stroke="none" target-height="39" target-width="252" target-x="719" target-y="604"></path><path d="M 692.00 742.00 C 692.00 756.91 679.91 769.00 665.00 769.00 C 650.09 769.00 638.00 756.91 638.00 742.00 C 638.00 727.09 650.09 715.00 665.00 715.00 C 679.91 715.00 692.00 727.09 692.00 742.00 Z" fill="#fe9f39" fill-rule="nonzero" group-id="5" node-id="220" stroke="none" target-height="54" target-width="54" target-x="638" target-y="715"></path><path d="M 738.50 724.00 L 1018.50 724.00 C 1029.27 724.00 1038.00 732.73 1038.00 743.50 L 1038.00 743.50 C 1038.00 754.27 1029.27 763.00 1018.50 763.00 L 738.50 763.00 C 727.73 763.00 719.00 754.27 719.00 743.50 L 719.00 743.50 C 719.00 732.73 727.73 724.00 738.50 724.00 Z" fill="url(#未命名的渐变_94-8)" fill-rule="nonzero" group-id="5" node-id="222" stroke="none" target-height="39" target-width="319" target-x="719" target-y="724"></path><path d="M 692.00 862.00 C 692.00 876.91 679.91 889.00 665.00 889.00 C 650.09 889.00 638.00 876.91 638.00 862.00 C 638.00 847.09 650.09 835.00 665.00 835.00 C 679.91 835.00 692.00 847.09 692.00 862.00 Z" fill="#fe9f39" fill-rule="nonzero" group-id="5" node-id="224" stroke="none" target-height="54" target-width="54" target-x="638" target-y="835"></path><path d="M 738.50 844.00 L 951.50 844.00 C 962.27 844.00 971.00 852.73 971.00 863.50 L 971.00 863.50 C 971.00 874.27 962.27 883.00 951.50 883.00 L 738.50 883.00 C 727.73 883.00 719.00 874.27 719.00 863.50 L 719.00 863.50 C 719.00 852.73 727.73 844.00 738.50 844.00 Z" fill="url(#未命名的渐变_94-9)" fill-rule="nonzero" group-id="5" node-id="226" stroke="none" target-height="39" target-width="252" target-x="719" target-y="844"></path><path d="M 805.00 1029.00 C 805.00 1029.00 916.00 978.00 912.00 875.00 C 1028.00 887.00 1106.00 855.00 1142.00 787.00 C 1139.00 814.00 1101.00 900.00 1039.00 950.00 C 969.16 1006.32 936.00 1030.00 805.00 1029.00 Z" fill="#d7d7f4" fill-rule="nonzero" node-id="229" stroke="none" target-height="243" target-width="337" target-x="805" target-y="787"></path></svg>