<?xml version="1.0" standalone="no"?><!DOCTYPE svg PUBLIC "-//W3C//DTD SVG 1.1//EN" "http://www.w3.org/Graphics/SVG/1.1/DTD/svg11.dtd"><svg t="1692978659092" class="icon" viewBox="0 0 1024 1024" version="1.1" xmlns="http://www.w3.org/2000/svg" p-id="10893" xmlns:xlink="http://www.w3.org/1999/xlink" width="128" height="128"><path d="M960 515.797333c-141.568 192-290.901333 287.978667-448 287.978667a386.986667 386.986667 0 0 1-115.072-17.6l72-70.912c12.053333 1.770667 24.106667 2.816 36.181333 3.093333l6.890667 0.085334c112.362667 0 224.853333-64.426667 337.813333-200.192l3.072-3.776-2.837333-3.626667c-27.221333-34.56-54.421333-64.746667-81.578667-90.666667l60.736-59.882666c44.309333 42.581333 87.893333 94.421333 130.794667 155.498666zM512 213.333333c86.357333 0 170.389333 30.464 252.053333 91.413334L702.506667 365.44c-61.568-43.413333-122.88-65.216-183.893334-66.666667L512 298.666667c-111.808 0-224.533333 68.16-338.048 212.181333l-2.858667 3.626667 3.093334 3.776c67.541333 81.152 134.890667 136.832 202.154666 168.469333l-64.021333 63.061333C227.050667 702.634667 144.277333 624.661333 64 515.797333 205.568 314.154667 354.901333 213.333333 512 213.333333z" fill="#515151" p-id="10894"></path><path d="M512 405.333333a106.645333 106.645333 0 0 1 93.610667 55.488l-146.176 144A106.666667 106.666667 0 0 1 512 405.333333z" fill="#515151" p-id="10895"></path><path d="M848.896 118.933333l59.882667 60.8L179.285333 898.346667l-59.904-60.8z" fill="#515151" p-id="10896"></path></svg>