<?xml version="1.0" standalone="no"?><!DOCTYPE svg PUBLIC "-//W3C//DTD SVG 1.1//EN" "http://www.w3.org/Graphics/SVG/1.1/DTD/svg11.dtd"><svg t="1711130407913" class="icon" viewBox="0 0 1024 1024" version="1.1" xmlns="http://www.w3.org/2000/svg" p-id="4825" xmlns:xlink="http://www.w3.org/1999/xlink" width="128" height="128"><path d="M277.333 298.667v490.666h437.334v64H309.333a96 96 0 0 1-95.893-91.477l-0.107-4.523V298.667h64z m472.79-127.787a64 64 0 0 1 64 64v451.243a64 64 0 0 1-64 64H319.787V234.88a64 64 0 0 1 64-64h366.336z m0 64H383.787v451.243h366.336V234.88zM660.16 361.259l45.013 45.482-170.112 168.406-88.341-88.32 45.227-45.248 43.328 43.306L660.16 361.26z" p-id="4826"></path></svg>