<?xml version="1.0" standalone="no"?><!DOCTYPE svg PUBLIC "-//W3C//DTD SVG 1.1//EN" "http://www.w3.org/Graphics/SVG/1.1/DTD/svg11.dtd"><svg t="1711175580806" class="icon" viewBox="0 0 1024 1024" version="1.1" xmlns="http://www.w3.org/2000/svg" p-id="21057" xmlns:xlink="http://www.w3.org/1999/xlink" width="128" height="128"><path d="M567.488 119.936v111.872H455.616V119.936h111.872zM623.36 64H399.616v223.808h223.808V64z" fill="#515151" p-id="21058"></path><path d="M903.04 791.232v111.872h-111.808v-111.872h111.872z m-335.552 0v111.872H455.616v-111.872h111.872z m-335.68 0v111.872H120v-111.872h111.872-0.064zM539.52 287.808h-55.936v167.808H147.84v279.68H64v223.744h223.744v-223.744H203.84V511.488h279.68v223.808h-83.84v223.744H623.36v-223.744H539.52V511.488h279.68v223.808h-83.968v223.744h223.808v-223.744h-83.968v-279.68H539.52V287.744z" fill="#515151" p-id="21059"></path></svg>