<?xml version="1.0" standalone="no"?><!DOCTYPE svg PUBLIC "-//W3C//DTD SVG 1.1//EN" "http://www.w3.org/Graphics/SVG/1.1/DTD/svg11.dtd"><svg t="1682349076821" class="icon" viewBox="0 0 1024 1024" version="1.1" xmlns="http://www.w3.org/2000/svg" p-id="9537" xmlns:xlink="http://www.w3.org/1999/xlink" width="128" height="128"><path d="M320 777.152h384v64H320z" fill="#ffffff" p-id="9538"></path><path d="M320 928H128a32 32 0 0 1-32-32v-192a32 32 0 0 1 32-32h192a32 32 0 0 1 32 32v192a32 32 0 0 1-32 32z m-160-64h128v-128H160v128zM896 928h-192a32 32 0 0 1-32-32v-192a32 32 0 0 1 32-32h192a32 32 0 0 1 32 32v192a32 32 0 0 1-32 32z m-160-64h128v-128h-128v128zM480 512h64v288h-64z" fill="#ffffff" p-id="9539"></path><path d="M656.288 250.016C638.112 180.064 571.744 128 492.064 128c-82.048 0-150.464 55.072-166.08 128.16C251.84 256.992 192 313.856 192 384c0 70.688 60.704 128 135.584 128h351.872C763.68 512 832 447.552 832 368c0-73.344-56.928-156.416-175.712-117.984z" fill="#ffffff" p-id="9540"></path><path d="M679.424 544H327.584C235.168 544 160 472.224 160 384c0-79.232 61.472-145.728 141.312-157.888C328.672 149.472 405.248 96 492.064 96c81.344 0 153.152 46.304 184.576 115.808 12.448-2.336 24.576-3.52 36.256-3.52C811.04 208.288 864 290.592 864 368c0 97.056-82.784 176-184.576 176zM492.064 160c-65.376 0-122.048 43.264-134.784 102.848a32 32 0 0 1-30.944 25.312C269.92 288.8 224 331.808 224 384c0 52.928 46.464 96 103.584 96h351.872C745.92 480 800 429.76 800 368c0-33.12-18.208-95.712-87.136-95.712a153.6 153.6 0 0 0-46.752 8.16 32.032 32.032 0 0 1-40.8-22.4C610.304 200.32 555.52 160 492.064 160z" fill="#ffffff" p-id="9541"></path></svg>