<?xml version="1.0" standalone="no"?><!DOCTYPE svg PUBLIC "-//W3C//DTD SVG 1.1//EN" "http://www.w3.org/Graphics/SVG/1.1/DTD/svg11.dtd"><svg t="1703662808372" class="icon" viewBox="0 0 1024 1024" version="1.1" xmlns="http://www.w3.org/2000/svg" p-id="6659" xmlns:xlink="http://www.w3.org/1999/xlink" width="128" height="128"><path d="M224 416.096V224l192-0.096 0.096 192.096L224 416.096zM416.096 160H223.904A64 64 0 0 0 160 223.904v192.192A64 64 0 0 0 223.904 480h192.192A64 64 0 0 0 480 416.096V223.904A64 64 0 0 0 416.096 160zM224 800.096V608l192-0.096 0.096 192.096L224 800.096zM416.096 544H223.904A64 64 0 0 0 160 607.904v192.192A64 64 0 0 0 223.904 864h192.192A64 64 0 0 0 480 800.096v-192.192A64 64 0 0 0 416.096 544zM608 416.096V224l192-0.096 0.096 192.096-192.096 0.096zM800.096 160h-192.192A64 64 0 0 0 544 223.904v192.192A64 64 0 0 0 607.904 480h192.192A64 64 0 0 0 864 416.096V223.904A64 64 0 0 0 800.096 160zM704 608a32 32 0 0 0-32 32v192a32 32 0 0 0 64 0v-192a32 32 0 0 0-32-32M576 608a32 32 0 0 0-32 32v192a32 32 0 0 0 64 0v-192a32 32 0 0 0-32-32M832 544a32 32 0 0 0-32 32v256a32 32 0 0 0 64 0v-256a32 32 0 0 0-32-32" fill="#3E3A39" p-id="6660"></path></svg>