<?xml version="1.0" standalone="no"?><!DOCTYPE svg PUBLIC "-//W3C//DTD SVG 1.1//EN" "http://www.w3.org/Graphics/SVG/1.1/DTD/svg11.dtd"><svg t="1711474860306" class="icon" viewBox="0 0 1024 1024" version="1.1" xmlns="http://www.w3.org/2000/svg" p-id="8663" xmlns:xlink="http://www.w3.org/1999/xlink" width="128" height="128"><path d="M461.327835 871.983505c0 26.180619 20.268866 47.294021 45.18268 47.294021s45.18268-21.113402 45.182681-47.294021-20.268866-47.294021-45.182681-47.29402-45.18268 21.113402-45.18268 47.29402z" fill="#E0EBFE" p-id="8664"></path><path d="M150.960825 304.03299v622.423092c0 53.628041 54.050309 97.121649 120.76866 97.12165h461.961237c66.718351 0 120.76866-43.493608 120.768659-97.12165V304.03299c0-53.628041-54.050309-97.121649-120.768659-97.12165h-35.470516v-31.247835c0-17.31299-17.31299-31.247835-39.270928-31.247835s-39.270928 13.934845-39.270927 31.247835v31.247835H271.729485c-66.718351 0-120.76866 43.493608-120.76866 97.12165z m571.32866-1.266804c22.380206 0 40.537732 10.978969 40.537731 24.069278v439.158763c0 13.090309-18.157526 24.069278-40.537731 24.069278H282.286186c-22.380206 0-40.537732-10.978969-40.537732-24.069278V326.835464c0-13.512577 18.157526-24.069278 40.537732-24.069278h440.425567z m-123.302269-203.110928c-5.911753 5.911753-6.334021 16.046186 0 22.380206 5.911753 6.334021 15.201649 6.334021 21.113403 0 19.42433-19.42433 50.249897-19.42433 69.674226 0 2.955876 2.955876 6.756289 4.644948 10.556701 4.22268a15.117196 15.117196 0 0 0 14.779382-15.623917c0-4.22268-1.689072-8.023093-4.644949-10.978969-31.247835-30.825567-80.230928-30.825567-111.478763 0z" fill="#8a8a8a" p-id="8665"></path><path d="M728.623505 71.785567c6.334021 0 11.823505-3.800412 13.934846-9.712165 2.11134-5.911753 0.844536-12.668041-3.378145-17.31299a120.684206 120.684206 0 0 0-171.863093-0.422268c-5.911753 5.911753-6.334021 16.046186 0 22.380207 5.911753 6.334021 15.201649 6.334021 21.113402 0 35.892784-36.315052 94.165773-36.315052 129.636289 0 2.955876 2.955876 6.756289 4.22268 10.556701 4.22268z" fill="#8a8a8a" p-id="8666"></path><path d="M502.287835 808.643299c-33.359175 0-60.38433 28.291959-60.38433 63.340206s27.025155 63.340206 60.38433 63.340206 60.38433-28.291959 60.38433-63.340206-27.025155-63.340206-60.38433-63.340206z" fill="#FFFFFF" p-id="8667"></path><path d="M501.021031 903.653608c-16.468454 0-29.981031-14.357113-29.981031-31.670103s13.512577-31.670103 29.981031-31.670103 29.981031 14.357113 29.981031 31.670103-13.512577 31.670103-29.981031 31.670103z" fill="#8a8a8a" p-id="8668"></path><path d="M396.720825 855.93732h-29.981031c-8.445361 0-15.201649 7.178557-15.20165 15.623917s6.756289 15.623918 15.20165 15.623918h29.981031c8.445361 0 15.201649-7.178557 15.201649-15.623918s-6.756289-15.623918-15.201649-15.623917zM637.835876 855.93732h-29.981031c-8.445361 0-15.201649 7.178557-15.201649 15.623917s6.756289 15.623918 15.201649 15.623918h29.981031c8.445361 0 15.201649-7.178557 15.20165-15.623918s-6.756289-15.623918-15.20165-15.623917z" fill="#FFFFFF" p-id="8669"></path><path d="M387.853196 600.887423h-20.691134l-30.825567-63.762475h-22.380206v63.762475h-19.846598v-147.371547h43.07134c13.934845 0 24.913814 3.378144 33.781443 9.712165 8.445361 6.756289 13.090309 17.31299 13.09031 32.514639 0 11.401237-2.955876 20.268866-8.445361 26.602887-5.911753 6.334021-12.245773 10.134433-19.846598 12.245773l32.936907 66.296083z m-24.069278-105.144743a25.758351 25.758351 0 0 0-7.178557-19.002061c-5.067216-4.644948-12.668041-6.756289-23.64701-6.756289h-19.002062v51.094433h24.069278c6.756289 0 13.090309-1.689072 18.157526-5.489485s7.600825-10.134433 7.600825-19.42433zM494.68701 600.887423H406.855258v-147.371547h83.609072v16.468454H426.701856v45.604948h58.695257v16.468454H426.701856v52.783505h67.985154v16.468454zM611.23299 600.887423h-20.691134l-12.245774-45.604949h-38.004123l-12.245773 45.604949h-20.691134l43.07134-149.060619h17.312989l43.071341 149.060619z m-37.159588-62.073402l-13.934845-52.783506h-1.689072l-13.934846 52.783506h29.136495zM716.377732 527.835052c0 26.602887-5.489485 45.18268-16.890722 56.583917s-26.180619 16.890722-45.18268 16.890722h-29.136495v-147.371547h29.136495c21.113402 0 37.159588 5.911753 46.871752 17.31299 10.134433 11.401237 15.201649 30.403299 15.20165 57.006186z m-20.691134 0c0-21.113402-3.378144-36.315052-10.556701-44.760413-6.756289-8.867629-17.31299-13.090309-31.247835-13.090309h-9.289897v114.856907h9.289897c13.934845 0 24.069278-4.22268 31.247835-12.668041s10.556701-23.224742 10.556701-44.338144z" fill="#8a8a8a" p-id="8670"></path></svg>