<?xml version="1.0" standalone="no"?><!DOCTYPE svg PUBLIC "-//W3C//DTD SVG 1.1//EN" "http://www.w3.org/Graphics/SVG/1.1/DTD/svg11.dtd"><svg t="1703493884451" class="icon" viewBox="0 0 1024 1024" version="1.1" xmlns="http://www.w3.org/2000/svg" p-id="3433" xmlns:xlink="http://www.w3.org/1999/xlink" width="128" height="128"><path d="M937.371022 380.534502L758.110262 311.423976a31.995614 31.995614 0 1 0-22.994181 59.725146l92.488655 35.621783a10.665205 10.665205 0 0 1 0 19.879942l-311.807923 124.740233a10.96383 10.96383 0 0 1-7.892252 0L194.987457 426.138917a10.622544 10.622544 0 0 1 0-19.879942L288.585293 371.149122a31.995614 31.995614 0 1 0-22.482251-59.725146L84.453276 379.681285a32.806169 32.806169 0 0 0-20.434532 30.71579v380.406519a21.330409 21.330409 0 0 0 11.817047 19.069386l426.608186 211.981607h0.597251a20.135906 20.135906 0 0 0 17.874883 0h0.597252l426.608185-211.981607a21.330409 21.330409 0 0 0 11.774386-19.069386V405.277777c0.042661-0.51193 2.047719-15.315234-22.524912-24.743275z" p-id="3434"></path><path d="M477.871345 430.874268a42.660819 42.660819 0 0 0 68.25731 0l127.982456-170.643275a42.660819 42.660819 0 0 0-34.128655-68.257309h-63.991228v-127.982456a63.991228 63.991228 0 0 0-127.982456 0v127.982456H384.017544a42.660819 42.660819 0 0 0-34.128655 68.257309z" p-id="3435"></path></svg>