<?xml version="1.0" standalone="no"?><!DOCTYPE svg PUBLIC "-//W3C//DTD SVG 1.1//EN" "http://www.w3.org/Graphics/SVG/1.1/DTD/svg11.dtd"><svg t="1690375382222" class="icon" viewBox="0 0 1024 1024" version="1.1" xmlns="http://www.w3.org/2000/svg" p-id="6655" xmlns:xlink="http://www.w3.org/1999/xlink" width="128" height="128"><path d="M469.539054 924.393018v-72.868382c-5.32013-0.357874-11.253044-0.25591-16.419227-0.76773a42.578031 42.578031 0 0 1-38.670405-46.207755c2.099262-23.491741 22.81298-41.193518 46.240743-38.737382q24.322449 2.226217 51.45791 2.251209c294.477473 0 312.175251-207.041212 312.690069-215.842118 1.687407-23.436761 20.613753-40.834644 45.217104-39.811004a42.518052 42.518052 0 0 1 39.897973 44.826241c-0.099965 2.814011-20.102933 272.387239-355.143145 293.981647v73.174274a42.635011 42.635011 0 0 1-85.270022 0z m-342.712515-26.660627a42.633012 42.633012 0 0 1 0-60.33179l85.422969-85.456956c-89.566512-84.381335-97.596689-189.949221-97.852599-194.810512a42.649006 42.649006 0 0 1 40.208864-44.877223c21.227537-1.79137 43.478715 16.528189 44.911211 40.016932 0.306892 4.093561 7.263446 79.265133 72.890374 139.544941l66.496623-66.523613c-42.711984-44.724277-51.918747-121.123418-53.811082-148.909649-0.25591-3.786669-0.25591-7.164481-0.25591-10.746222V284.745894C284.83199 159.323988 386.776151 57.338842 512.148075 57.338842c106.957398 0 196.263001 74.454824 220.410511 174.138779l104.707189-104.801156a42.652005 42.652005 0 0 1 60.306799 60.33179L187.133337 897.732391a42.777961 42.777961 0 0 1-60.306798 0z m243.275474-612.984498v180.890406c2.609083 41.551392 13.606217 82.438018 29.002803 99.376063l255.141302-255.245265v-25.023203c0-78.395439-63.683611-142.150025-142.098043-142.150025-78.36345-0.004998-142.047062 63.754586-142.047062 142.150025z" p-id="6656" fill="#ffffff"></path></svg>