<?xml version="1.0" standalone="no"?><!DOCTYPE svg PUBLIC "-//W3C//DTD SVG 1.1//EN" "http://www.w3.org/Graphics/SVG/1.1/DTD/svg11.dtd"><svg t="1689262671303" class="icon" viewBox="0 0 1024 1024" version="1.1" xmlns="http://www.w3.org/2000/svg" p-id="3175" width="128" height="128" xmlns:xlink="http://www.w3.org/1999/xlink"><path d="M850.273818 458.225259c-1.769296-110.756523-1.769296-110.756523-1.769296-110.756523l-56.281841-0.463558c0 0 0 0-0.207731 114.734114C791.735587 615.72334 664.063813 740.53395 508.4128 740.53395c-155.653059 0-284.652062-124.836193-281.832853-278.794657 1.962701-107.156532 2.303462-115.109668 2.303462-115.109668l-57.363476-0.88823c0 0 0 8.15882 0 112.484887 0 166.088736 121.939213 303.989479 282.083563 330.929038l0 116.408243-169.254845 0 0 52.30732 451.326129 0 0-52.30732L559.379589 905.563564 559.379589 790.525528C724.283336 767.272941 852.97637 627.346051 850.273818 458.225259zM510.019391 626.515127c93.462648 0 169.242566-74.961272 169.242566-167.426197l0.877997-225.402633c0-93.194542-74.604138-168.736029-168.795381-168.736029-94.208639 0-170.583097 75.541487-170.583097 168.736029l0 225.402633C340.761476 551.553854 416.542416 626.515127 510.019391 626.515127z" fill="#ffffff" p-id="3176"></path></svg>