<?xml version="1.0" standalone="no"?><!DOCTYPE svg PUBLIC "-//W3C//DTD SVG 1.1//EN" "http://www.w3.org/Graphics/SVG/1.1/DTD/svg11.dtd"><svg t="1703862776513" class="icon" viewBox="0 0 1024 1024" version="1.1" xmlns="http://www.w3.org/2000/svg" p-id="5371" xmlns:xlink="http://www.w3.org/1999/xlink" width="128" height="128"><path d="M511.556908 64.644299c-247.096724 0-447.424262 200.286606-447.424262 447.428356s200.327538 447.428356 447.424262 447.428356c247.13254 0 447.428356-200.269209 447.428356-447.406866C958.985264 264.931928 758.64033 64.644299 511.556908 64.644299L511.556908 64.644299zM511.502673 870.015953c-197.670012 0-357.88497-160.246681-357.88497-357.943298 0-197.670012 160.210865-357.943298 357.88497-357.943298 197.700711 0 358.001627 160.246681 358.001627 357.943298S709.24841 870.015953 511.502673 870.015953L511.502673 870.015953zM716.573235 723.6934c0 0-4.545526 12.094456-10.576893 0 0 0-67.480904-212.166167-231.902674-158.725024l0 65.866127c0 0-2.635013 38.711673-34.984792 13.471826L277.413194 498.892471c0 0-34.313503-19.436678 2.067079-45.995567L442.899202 306.59584c0 0 24.536836-18.237363 30.438243 11.67797l0.25992 71.092152c-0.039909-0.049119 306.416761 15.244192 242.98508 334.327438L716.573235 723.6934zM716.573235 723.6934" fill="#242333" p-id="5372"></path></svg>