<?xml version="1.0" standalone="no"?><!DOCTYPE svg PUBLIC "-//W3C//DTD SVG 1.1//EN" "http://www.w3.org/Graphics/SVG/1.1/DTD/svg11.dtd"><svg t="1714443240618" class="icon" viewBox="0 0 1024 1024" version="1.1" xmlns="http://www.w3.org/2000/svg" p-id="7022" xmlns:xlink="http://www.w3.org/1999/xlink" width="128" height="128"><path d="M347.80076563 113.30810311H679.96634075a33.20490667 33.20490667 0 0 0 0-66.40981333H347.80076563a33.20490667 33.20490667 0 0 0 0 66.40981333zM82.08384 246.16656592h863.59942637a33.20490667 33.20490667 0 1 0 0-66.44864947H82.08384a33.20490667 33.20490667 0 0 0 0 66.44864947z m99.65355615 99.65355616v531.58919584a99.49821155 99.49821155 0 0 0 99.57588385 99.49821156h465.95610548a99.49821155 99.49821155 0 0 0 99.65355615-99.65355615V611.18752237a33.20490667 33.20490667 0 1 0-66.44864948 0V877.25397333a33.08839822 33.08839822 0 0 1-33.20490667 33.28257897H281.3909523a33.01072592 33.01072592 0 0 1-33.20490667-33.16607052V345.82012208a33.20490667 33.20490667 0 0 0-66.44864948 0z m199.3071123 132.85846281v265.71692563a33.20490667 33.20490667 0 1 0 66.44864947 0V478.67858489a33.20490667 33.20490667 0 0 0-66.44864947 0z m199.26827614 132.85846281v132.85846282a33.20490667 33.20490667 0 1 0 66.44864949 0V611.5370477a33.20490667 33.20490667 0 0 0-66.44864949 0z m315.73788444-191.57871881c-33.4767597 106.13919289-310.10664297 186.41351111-505.53014044-53.74922904 91.34262045 72.81777778 359.77807645 106.83824355 419.85759763-18.7190234-80.89569659-42.05954845-107.61496652-53.82690133-107.61496652-53.82690134l274.68807585-18.99087644-19.06854873 267.3092077s-41.98187615-79.30341452-62.33201779-122.02317748" fill="#707070" p-id="7023"></path></svg>