<?xml version="1.0" standalone="no"?><!DOCTYPE svg PUBLIC "-//W3C//DTD SVG 1.1//EN" "http://www.w3.org/Graphics/SVG/1.1/DTD/svg11.dtd"><svg t="1711718693504" class="icon" viewBox="0 0 1024 1024" version="1.1" xmlns="http://www.w3.org/2000/svg" p-id="8180" xmlns:xlink="http://www.w3.org/1999/xlink" width="128" height="128"><path d="M170.666667 128c395.946667 0 717.866667 317.312 725.205333 711.552L896 853.333333a42.666667 42.666667 0 0 1-85.333333 0c0-353.450667-286.549333-640-640-640a42.666667 42.666667 0 1 1 0-85.333333z m42.666666 597.333333a85.333333 85.333333 0 1 1 0 170.666667 85.333333 85.333333 0 0 1 0-170.666667z m-42.666666-213.333333a42.666667 42.666667 0 0 1 0-85.333333c231.68 0 420.181333 184.618667 426.496 414.72L597.333333 853.333333a42.666667 42.666667 0 0 1-85.333333 0 341.333333 341.333333 0 0 0-341.333333-341.333333z" fill="#515151" p-id="8181"></path></svg>