<?xml version="1.0" standalone="no"?><!DOCTYPE svg PUBLIC "-//W3C//DTD SVG 1.1//EN" "http://www.w3.org/Graphics/SVG/1.1/DTD/svg11.dtd"><svg t="1683453271955" class="icon" viewBox="0 0 1024 1024" version="1.1" xmlns="http://www.w3.org/2000/svg" p-id="9389" xmlns:xlink="http://www.w3.org/1999/xlink" width="128" height="128"><path d="M192 96v832h384v96h448V576h-192V96H192z m64 64h224v32h64V160h224v416H723.008l-10.016 8.992-128 128-8.992 10.016V864H256V160z m224 64v64h64V224h-64z m0 96v64h64v-64h-64z m0 96v70.016c-36.992 13.376-64 48.64-64 89.984 0 52.64 43.36 96 96 96s96-43.36 96-96c0-41.344-27.008-76.608-64-90.016V416h-64z m32 128c18.048 0 32 13.952 32 32 0 18.048-13.952 32-32 32-18.048 0-32-13.952-32-32 0-18.048 13.952-32 32-32z m238.016 96H960v320H640v-210.016L750.016 640zM768 672v64h128v-64h-128z m32 128a64 64 0 1 0 0 128 64 64 0 0 0 0-128z" p-id="9390" fill="#ffffff"></path></svg>