<?xml version="1.0" standalone="no"?><!DOCTYPE svg PUBLIC "-//W3C//DTD SVG 1.1//EN" "http://www.w3.org/Graphics/SVG/1.1/DTD/svg11.dtd"><svg t="1681820276785" class="icon" viewBox="0 0 1024 1024" version="1.1" xmlns="http://www.w3.org/2000/svg" p-id="2641" xmlns:xlink="http://www.w3.org/1999/xlink" width="128" height="128"><path d="M870.826667 273.493333l-120.32-120.32A85.333333 85.333333 0 0 0 689.92 128H213.333333a85.333333 85.333333 0 0 0-85.333333 85.333333v597.333334a85.333333 85.333333 0 0 0 85.333333 85.333333h597.333334a85.333333 85.333333 0 0 0 85.333333-85.333333V334.08a85.333333 85.333333 0 0 0-25.173333-60.586667zM384 277.333333V213.333333h256v64a21.333333 21.333333 0 0 1-21.333333 21.333334h-213.333334a21.333333 21.333333 0 0 1-21.333333-21.333334zM725.333333 810.666667H298.666667v-320a21.333333 21.333333 0 0 1 21.333333-21.333334h384a21.333333 21.333333 0 0 1 21.333333 21.333334z m-106.666666-170.666667h-213.333334a21.333333 21.333333 0 0 0-21.333333 21.333333v42.666667a21.333333 21.333333 0 0 0 21.333333 21.333333h213.333334a21.333333 21.333333 0 0 0 21.333333-21.333333v-42.666667a21.333333 21.333333 0 0 0-21.333333-21.333333z" p-id="2642" fill="#ffffff"></path></svg>