<?xml version="1.0" standalone="no"?><!DOCTYPE svg PUBLIC "-//W3C//DTD SVG 1.1//EN" "http://www.w3.org/Graphics/SVG/1.1/DTD/svg11.dtd"><svg t="1681528425367" class="icon" viewBox="0 0 1024 1024" version="1.1" xmlns="http://www.w3.org/2000/svg" p-id="17927" xmlns:xlink="http://www.w3.org/1999/xlink" width="128" height="128"><path d="M896 156.8v-3.2c0-3.2-3.2-6.4-3.2-9.6 0 0 0-3.2-3.2-3.2 0-3.2-3.2-3.2-3.2-6.4h-3.2s-3.2 0-3.2-3.2h-3.2-3.2-3.2C867.2 128 864 128 864 128h-3.2-3.2c-3.2 0-3.2 0-6.4 3.2h-3.2l-704 352c-12.8 6.4-19.2 19.2-16 32 3.2 12.8 12.8 25.6 25.6 25.6l192 32h6.4c6.4 0 12.8-3.2 19.2-6.4l278.4-208-195.2 227.2c-3.2 3.2-3.2 6.4-6.4 9.6v265.6c0 16 9.6 28.8 25.6 32h6.4c12.8 0 22.4-6.4 28.8-16l80-144 192 153.6c6.4 3.2 12.8 6.4 19.2 6.4 3.2 0 9.6 0 12.8-3.2 9.6-3.2 19.2-16 19.2-25.6l64-704v-3.2" p-id="17928" fill="#ffffff"></path></svg>