<?xml version="1.0" standalone="no"?><!DOCTYPE svg PUBLIC "-//W3C//DTD SVG 1.1//EN" "http://www.w3.org/Graphics/SVG/1.1/DTD/svg11.dtd"><svg t="1693153062103" class="icon" viewBox="0 0 1024 1024" version="1.1" xmlns="http://www.w3.org/2000/svg" p-id="19026" xmlns:xlink="http://www.w3.org/1999/xlink" width="128" height="128"><path d="M992 512a480 480 0 0 0-960 0c0 156.48 75.52 251.2 192 302.72V960a32 32 0 0 0 32 32h64a32 32 0 0 0 32-32v-48a48 48 0 0 1 96 0V960a32 32 0 0 0 32 32h64a32 32 0 0 0 32-32v-48a48 48 0 0 1 96 0V960a32 32 0 0 0 32 32h64a32 32 0 0 0 32-32v-146.88c116.48-51.52 192-146.24 192-301.12z m-320-48a112 112 0 1 1-112 112 112 112 0 0 1 112-112z m-320 0A112 112 0 1 1 240 576a112 112 0 0 1 112-112z" fill="#231F20" p-id="19027"></path></svg>