<?xml version="1.0" standalone="no"?><!DOCTYPE svg PUBLIC "-//W3C//DTD SVG 1.1//EN" "http://www.w3.org/Graphics/SVG/1.1/DTD/svg11.dtd"><svg t="1681541490787" class="icon" viewBox="0 0 1024 1024" version="1.1" xmlns="http://www.w3.org/2000/svg" p-id="29063" xmlns:xlink="http://www.w3.org/1999/xlink" width="128" height="128"><path d="M512 832c-176.448 0-320-143.552-320-320S335.552 192 512 192s320 143.552 320 320-143.552 320-320 320m0-704C300.256 128 128 300.256 128 512s172.256 384 384 384 384-172.256 384-384S723.744 128 512 128" fill="#ffffff" p-id="29064"></path><path d="M619.072 429.088l-151.744 165.888-62.112-69.6a32 32 0 1 0-47.744 42.624l85.696 96a32 32 0 0 0 23.68 10.688h0.192c8.96 0 17.536-3.776 23.616-10.4l175.648-192a32 32 0 0 0-47.232-43.2" fill="#ffffff" p-id="29065"></path></svg>