<?xml version="1.0" standalone="no"?><!DOCTYPE svg PUBLIC "-//W3C//DTD SVG 1.1//EN" "http://www.w3.org/Graphics/SVG/1.1/DTD/svg11.dtd"><svg t="1711942194306" class="icon" viewBox="0 0 1024 1024" version="1.1" xmlns="http://www.w3.org/2000/svg" p-id="6867" xmlns:xlink="http://www.w3.org/1999/xlink" width="128" height="128"><path d="M512 0C229.9 0 0 228.4 0 510.5s229.9 512 512 512 512-229.9 512-512C1022.5 228.4 792.6 0 512 0z m0 947.2C278 947.2 72.7 743.4 72.7 511 72.7 278 278 74.8 512 74.8 749.1 74.8 948.2 274 948.2 511S747.5 947.2 512 947.2z" p-id="6868" fill="#515151"></path><path d="M591.8 467c0 22 15.9 34.8 42 34.8 7.2 0 14.3-1.5 22-5.6l113.7-100.4c8.7-8.7 14.3-20.5 14.3-32.3 3.1-7.1 0.1-15.9-4-24.6L665.1 237.1l-7.2-4.6c-5.6-4.6-14.3-5.6-22-5.6-24.6 0-41 15.9-41 39.4 0 8.7 3.1 17.4 7.2 24.6h-1.5l36.4 34.8H459.9l-58.3-101c-13.3-23-42.6-30.9-65.6-17.6-23 13.3-30.9 42.6-17.6 65.6l30.6 53h-61.3c-24.6 0-42 15.9-42 39.4 0 23 17.4 39.4 42 39.4h106.8L517.2 617H385.5l30.7-27.6 7.2-7.2-1.5-1.5c5.6-8.7 8.7-20.5 8.7-29.2 0-22-15.9-34.8-42-34.8-7.2 0-14.3 1.5-22 5.6L254.5 624.1c-8.7 8.7-14.3 20.5-14.3 32.3 0 8.7 3.1 17.4 7.2 24.6l-1.5 1.5 113.7 101.9 5.6 5.6c7.2 4.6 14.3 5.6 22 5.6 24.6 0 42-15.9 42-39.4 0-8.7-3.1-17.4-8.7-24.6l1.5-1.5-36.4-33.3h177.7l59.1 102.4c13.3 23 42.6 30.9 65.6 17.6 23-13.2 30.8-42.6 17.6-65.6l-31.4-54.4h60.6c24.6 0 42-15.9 42-39.4-0.1-23-17.5-40.4-42.1-40.4H628.1L505.4 404.5h133l-37.9 37.9c-5.6 7.2-8.7 15.9-8.7 24.6z" p-id="6869" fill="#515151"></path></svg>