<?xml version="1.0" standalone="no"?><!DOCTYPE svg PUBLIC "-//W3C//DTD SVG 1.1//EN" "http://www.w3.org/Graphics/SVG/1.1/DTD/svg11.dtd"><svg t="1711175541978" class="icon" viewBox="0 0 1024 1024" version="1.1" xmlns="http://www.w3.org/2000/svg" p-id="17459" xmlns:xlink="http://www.w3.org/1999/xlink" width="128" height="128"><path d="M716.608 673.792c4.928 0 8.832 4.032 8.576 8.896a214.144 214.144 0 0 1-213.632 205.376 213.248 213.248 0 0 1-161.28-73.472l-24.832 19.456a8.512 8.512 0 0 1-13.824-6.72l0.448-108.672c0-5.44 5.248-9.536 10.624-8.256l105.216 25.728a8.576 8.576 0 0 1 3.2 15.104l-26.752 20.992 4.352 4.608a145.28 145.28 0 0 0 248-94.912 8.64 8.64 0 0 1 8.64-8.128zM512.192 135.936a343.04 343.04 0 0 1 320.64 221.696A214.656 214.656 0 0 1 992 566.4c-0.768 111.68-87.36 202.496-196.288 212.352a8.704 8.704 0 0 1-9.408-8.512v-64.832c0-4.288 3.072-7.936 7.36-8.512a133.376 133.376 0 0 0 77.056-36.928 133.056 133.056 0 0 0-58.88-223.488l-40.448-10.752-14.784-39.168a258.24 258.24 0 0 0-38.272-68.032 261.12 261.12 0 0 0-206.08-101.056 259.392 259.392 0 0 0-206.208 100.928 258.24 258.24 0 0 0-38.208 68.032l-14.912 39.296-40.576 10.752a133.44 133.44 0 0 0-70.848 46.784c-18.304 23.616-28.096 51.84-28.096 81.92 0 35.84 14.144 69.76 39.872 94.912 20.992 20.672 48.32 33.28 77.248 36.928a8.576 8.576 0 0 1 7.488 8.448v64.768c0 4.992-4.288 8.96-9.28 8.512C119.424 769.024 32.64 678.08 32 566.272a214.656 214.656 0 0 1 159.616-208.768 342.912 342.912 0 0 1 320.64-221.568z m0.32 323.648c64.384 0 122.048 28.544 161.28 73.536l24.832-19.52a8.512 8.512 0 0 1 13.824 6.784l-0.512 108.48a8.576 8.576 0 0 1-10.624 8.32l-105.216-25.728a8.576 8.576 0 0 1-3.2-15.104l26.752-21.056-4.352-4.608A145.28 145.28 0 0 0 367.296 665.6a8.64 8.64 0 0 1-8.512 8.32h-51.328a8.512 8.512 0 0 1-8.576-8.96 214.144 214.144 0 0 1 213.632-205.376z" p-id="17460"></path></svg>