<?xml version="1.0" standalone="no"?><!DOCTYPE svg PUBLIC "-//W3C//DTD SVG 1.1//EN" "http://www.w3.org/Graphics/SVG/1.1/DTD/svg11.dtd"><svg t="1691119535850" class="icon" viewBox="0 0 1024 1024" version="1.1" xmlns="http://www.w3.org/2000/svg" p-id="6057" xmlns:xlink="http://www.w3.org/1999/xlink" width="128" height="128"><path d="M724.037742 298.854529 299.961234 298.854529c-4.962012 0-8.986675 4.025687-8.986675 8.986675l0 141.375891c0 2.434445 0.986467 4.76349 2.732228 6.458085 1.74576 1.689479 4.108574 2.560312 6.53995 2.52552l18.751063-0.590448c4.422729-0.143263 8.081049-3.479241 8.633634-7.871271 5.910617-47.37396 45.466518-80.044034 65.949015-85.027535 6.048763-1.479701 14.475689-2.223644 25.052582-2.223644 12.94073 0 26.145473 1.147126 34.21015 2.003634-0.091074 50.063209-0.581238 317.875744-0.581238 336.347444 0 11.675924-16.414855 18.71934-20.794605 20.388353l-36.028565 0.569982c-4.827959 0.081864-8.731872 3.953032-8.845459 8.779967l-0.590448 25.816992c-0.056282 2.418073 0.86674 4.758374 2.555196 6.483668 1.690502 1.736551 4.010337 2.711761 6.42841 2.711761l234.05878 0c4.962012 0 8.987698-4.027733 8.987698-8.987698l0-25.186635c0-4.963035-4.02671-8.987698-8.987698-8.987698l-42.36897 0c-10.383488-1.199315-19.057031-13.290701-22.532179-19.600407l0.512676-341.29206c4.220115-0.37453 10.122545-0.73678 17.359366-0.73678 14.281261 0 28.963659 1.345648 43.645033 3.996011 30.609135 5.526877 61.848627 66.543555 71.301929 89.584318 1.384533 3.375887 4.669346 5.583159 8.320503 5.583159l18.751063 0c4.962012 0 8.986675-4.02671 8.986675-8.988722L733.021348 307.845297C733.025441 302.879192 728.998731 298.854529 724.037742 298.854529L724.037742 298.854529zM724.037742 298.854529" fill="#ffffff" p-id="6058"></path><path d="M847.028914 65.290005 176.965969 65.290005C115.289258 65.290005 65.290517 115.293863 65.290517 176.965457l0 687.470407c8.414647 53.352115 55.961546 94.27413 111.675452 94.27413l670.068062 0 0 0c61.675688 0 111.675452-50.003857 111.675452-111.676475L958.709483 176.965457C958.70846 115.297956 908.709719 65.290005 847.028914 65.290005L847.028914 65.290005zM847.033008 791.193747c0 30.843472-24.998347 55.839773-55.839773 55.839773l-558.387493-0.004093c-30.838356 0-55.839773-24.99937-55.839773-55.839773l0 0L176.965969 265.597077l0-32.790824c0-30.838356 24.998347-55.840796 55.839773-55.840796l558.387493 0c30.838356 0 55.839773 24.998347 55.839773 55.840796l0 0L847.033008 791.193747 847.033008 791.193747zM847.033008 791.193747" fill="#ffffff" p-id="6059"></path></svg>