<?xml version="1.0" standalone="no"?><!DOCTYPE svg PUBLIC "-//W3C//DTD SVG 1.1//EN" "http://www.w3.org/Graphics/SVG/1.1/DTD/svg11.dtd"><svg t="1711173383763" class="icon" viewBox="0 0 1024 1024" version="1.1" xmlns="http://www.w3.org/2000/svg" p-id="15652" xmlns:xlink="http://www.w3.org/1999/xlink" width="128" height="128"><path d="M512 66.964578c60.12861 0 118.443597 11.718801 173.270845 34.877384 53.013624 22.461035 100.586376 54.548229 141.46267 95.424523s72.963488 88.449046 95.424523 141.46267c23.158583 54.827248 34.877384 113.142234 34.877384 173.270845s-11.718801 118.443597-34.877384 173.270845c-22.461035 53.013624-54.548229 100.586376-95.424523 141.46267-40.876294 40.876294-88.449046 72.963488-141.46267 95.424523-54.827248 23.158583-113.142234 34.877384-173.270845 34.877384s-118.443597-11.718801-173.270845-34.877384c-53.013624-22.461035-100.586376-54.548229-141.46267-95.424523-40.876294-40.876294-72.963488-88.449046-95.424523-141.46267-23.158583-54.827248-34.877384-113.142234-34.877384-173.270845s11.718801-118.443597 34.877384-173.270845c22.461035-53.013624 54.548229-100.586376 95.424523-141.46267S285.855041 124.302997 338.729155 101.841962c54.827248-23.158583 113.142234-34.877384 173.270845-34.877384m0-66.964578C229.214169 0 0 229.214169 0 512s229.214169 512 512 512 512-229.214169 512-512S794.785831 0 512 0z" p-id="15653"></path><path d="M576.174387 309.571662v285.157493c-1.395095 78.40436-42.829428 118.304087-124.023978 119.699183-81.33406-1.395095-122.628883-41.294823-124.023978-119.699183V309.571662h56.640871v296.039237c1.395095 40.597275 23.99564 61.663215 67.522616 63.19782 43.526975-1.395095 65.988011-22.461035 67.522616-63.19782V309.571662H576.174387zM639.372207 712.335695V309.571662h56.640872v402.764033h-56.640872z" p-id="15654"></path></svg>