<?xml version="1.0" standalone="no"?><!DOCTYPE svg PUBLIC "-//W3C//DTD SVG 1.1//EN" "http://www.w3.org/Graphics/SVG/1.1/DTD/svg11.dtd"><svg t="1693011993887" class="icon" viewBox="0 0 1024 1024" version="1.1" xmlns="http://www.w3.org/2000/svg" p-id="16124" xmlns:xlink="http://www.w3.org/1999/xlink" width="128" height="128"><path d="M512 981.333333C251.733333 981.333333 42.666667 772.266667 42.666667 512S251.733333 42.666667 512 42.666667s469.333333 209.066667 469.333333 469.333333-209.066667 469.333333-469.333333 469.333333z m0-85.333333c213.333333 0 384-170.666667 384-384s-170.666667-384-384-384-384 170.666667-384 384 170.666667 384 384 384z m209.066667-268.8c-17.066667 17.066667-42.666667 17.066667-59.733334 0L512 477.866667l-149.333333 149.333333c-17.066667 17.066667-42.666667 17.066667-59.733334 0-17.066667-17.066667-17.066667-42.666667 0-59.733333L482.133333 384c8.533333-8.533333 17.066667-12.8 29.866667-12.8 12.8 0 21.333333 4.266667 29.866667 12.8l179.2 179.2c8.533333 8.533333 12.8 17.066667 12.8 29.866667 0 17.066667-4.266667 25.6-12.8 34.133333z" p-id="16125"></path></svg>