<?xml version="1.0" standalone="no"?><!DOCTYPE svg PUBLIC "-//W3C//DTD SVG 1.1//EN" "http://www.w3.org/Graphics/SVG/1.1/DTD/svg11.dtd"><svg t="1693011848012" class="icon" viewBox="0 0 1024 1024" version="1.1" xmlns="http://www.w3.org/2000/svg" p-id="15969" xmlns:xlink="http://www.w3.org/1999/xlink" width="128" height="128"><path d="M779.997242 65.311495 243.998665 65.311495c-98.623181 0-178.709171 80.08599-178.709171 178.709171l0 535.9996c0 98.713232 80.08599 178.667216 178.709171 178.667216l535.998577 0c98.711186 0 178.711218-79.953983 178.711218-178.667216L958.70846 244.020666C958.70846 145.397485 878.708428 65.311495 779.997242 65.311495zM869.374852 735.353974c0 73.979922-60.021002 134.042879-133.998877 134.042879L288.623002 869.396853c-73.979922 0-133.912919-60.062957-133.912919-134.042879L154.710083 288.643979c0-73.979922 59.932997-133.912919 133.912919-133.912919l446.752973 0c73.977875 0 133.998877 59.932997 133.998877 133.912919L869.374852 735.353974zM511.999488 244.020666l134.042879 178.711218L556.620755 422.731884l0 357.288382-89.245603 0L467.375152 422.73086l-89.333608 0L511.999488 244.020666z" p-id="15970"></path></svg>