<?xml version="1.0" standalone="no"?><!DOCTYPE svg PUBLIC "-//W3C//DTD SVG 1.1//EN" "http://www.w3.org/Graphics/SVG/1.1/DTD/svg11.dtd"><svg t="1712124289030" class="icon" viewBox="0 0 1024 1024" version="1.1" xmlns="http://www.w3.org/2000/svg" p-id="10718" xmlns:xlink="http://www.w3.org/1999/xlink" width="128" height="128"><path d="M825.6 428.373A319.573 319.573 0 0 0 512 170.667c-123.307 0-230.4 69.973-283.733 172.373A255.744 255.744 0 0 0 0 597.333c0 141.227 114.773 256 256 256h554.667C928.427 853.333 1024 757.76 1024 640c0-112.64-87.467-203.947-198.4-211.627zM810.667 768H256c-94.293 0-170.667-76.373-170.667-170.667 0-87.466 65.28-160.426 151.894-169.386l45.653-4.694 21.333-40.533A233.344 233.344 0 0 1 512 256c111.787 0 208.213 79.36 229.973 189.013l12.8 64 65.28 4.694A127.147 127.147 0 0 1 938.667 640c0 70.4-57.6 128-128 128zM341.333 554.667h108.8v128h123.734v-128h108.8L512 384z" p-id="10719" fill="#515151"></path></svg>