<?xml version="1.0" standalone="no"?><!DOCTYPE svg PUBLIC "-//W3C//DTD SVG 1.1//EN" "http://www.w3.org/Graphics/SVG/1.1/DTD/svg11.dtd"><svg t="1712331207444" class="icon" viewBox="0 0 1024 1024" version="1.1" xmlns="http://www.w3.org/2000/svg" p-id="12724" xmlns:xlink="http://www.w3.org/1999/xlink" width="128" height="128"><path d="M109.653333 42.666667c116.224 0.768 196.693333 9.386667 244.266667 27.221333 65.92 24.746667 129.792 66.218667 191.488 124.074667l18.517333 17.834666 17.066667 17.706667 16.725333 18.176 17.962667 20.48 20.650667 24.576 208.896-8.917333L981.333333 578.005333l-146.304 31.488c36.608 50.645333 64.64 131.157333 87.082667 243.498667l4.394667 22.912 11.605333 61.952-62.336-9.514667-23.210667-3.754666c-106.410667-17.706667-184.576-41.856-235.52-74.453334l-10.538666-7.168-16.042667 82.645334-11.008 55.893333-295.04-136.832 8.874667-208.938667-32.810667-27.904a1045.76 1045.76 0 0 1-47.786667-44.16C141.994667 492.629333 93.781333 423.424 67.968 354.986667c-13.909333-36.736-21.76-96.725333-24.32-181.973334l-0.554667-20.053333L42.666667 109.909333 42.922667 42.666667h66.688z m22.741334 89.813333l0.768 36.821333c2.304 76.032 8.746667 128 18.56 153.984 19.2 50.858667 55.338667 104.704 109.013333 161.365334l15.018667 15.488 19.285333 18.432 13.568 12.330666 24.746667 21.418667 51.285333 42.965333-8.234667 193.28 137.301334 63.744 21.461333-109.056c28.416-86.186667 87.594667-152.96 164.266667-189.44l14.549333-6.442666 18.048-6.912 121.088-26.282667-64-138.325333-193.408 8.192-24.832-30.037334c-13.653333-16.554667-27.648-32.853333-41.941333-48.896l-14.122667-15.36-14.378667-14.805333c-58.581333-58.325333-118.186667-98.773333-177.92-121.130667-30.293333-11.392-88.234667-18.645333-171.776-20.906666l-18.261333-0.341334zM737.536 634.88a223.872 223.872 0 0 0-100.864 96.170667l-6.357333 12.842666 16.085333 16.042667 5.632 5.162667c24.661333 20.736 70.912 39.808 137.984 55.722666l17.152 4.010667 18.176 3.754667-4.352-17.664c-18.56-74.794667-39.850667-126.421333-62.250667-154.154667l-5.205333-5.973333-16-15.914667zM281.856 238.165333c13.013333 0 24.277333 4.565333 33.536 13.653334a44.074667 44.074667 0 0 1 13.952 32.64 43.776 43.776 0 0 1-13.952 32.725333 46.293333 46.293333 0 0 1-33.536 13.653333 45.909333 45.909333 0 0 1-33.493333-13.653333 44.074667 44.074667 0 0 1-14.037334-32.725333 43.776 43.776 0 0 1 14.037334-32.682667 46.293333 46.293333 0 0 1 33.493333-13.653333z" p-id="12725" fill="#515151"></path></svg>