<?xml version="1.0" standalone="no"?><!DOCTYPE svg PUBLIC "-//W3C//DTD SVG 1.1//EN" "http://www.w3.org/Graphics/SVG/1.1/DTD/svg11.dtd"><svg t="1693192171940" class="icon" viewBox="0 0 1024 1024" version="1.1" xmlns="http://www.w3.org/2000/svg" p-id="6832" xmlns:xlink="http://www.w3.org/1999/xlink" width="128" height="128"><path d="M1004.416 543.914667c-25.984-58.88-75.008-105.642667-131.925333-134.442667-100.437333-50.858667-225.322667-50.56-325.504 1.28-69.589333 35.712-127.701333 99.712-144.170667 177.578667-13.568 57.344-1.408 119.082667 29.013333 169.002666 45.269333 75.178667 127.104 123.178667 212.096 138.581334 61.568 12.501333 125.269333 5.077333 185.088-12.16 35.925333 13.909333 67.925333 36.437333 102.741334 53.162666a2238.762667 2238.762667 0 0 0-28.842667-89.685333c39.082667-27.733333 74.496-62.336 95.744-105.770667 31.744-60.373333 33.664-135.296 5.76-197.546666z m-423.424-403.882667c-106.453333-59.904-239.018667-68.906667-353.536-27.52-75.264 27.093333-143.36 77.44-185.429333 145.92-38.186667 61.866667-52.48 139.008-34.090667 209.792 18.474667 78.506667 73.002667 144.341333 139.178667 188.288-12.8 36.266667-24.96 72.490667-36.48 109.013333 41.6-21.76 83.2-44.501333 124.842666-66.602666 49.92 16 103.04 23.850667 156.16 22.101333a262.784 262.784 0 0 1-10.88-125.909333c9.6-58.496 41.6-112 85.077334-151.637334 73.642667-68.906667 177.962667-97.962667 277.162666-90.922666-18.602667-91.093333-82.602667-168.064-163.157333-212.48h1.152z m73.941333 426.197333c-8.917333 27.818667-49.322667 36.181333-68.906666 15.018667-21.589333-19.584-13.184-60.501333 15.146666-69.248 31.317333-13.226667 67.498667 22.912 53.76 54.229333z m204.586667 3.925334c-10.922667 25.002667-48.682667 30.848-67.242667 11.52-8.917333-8.149333-11.52-20.437333-14.677333-31.146667 4.437333-19.541333 17.92-39.808 39.68-40.746667 30.08-4.181333 57.002667 32.981333 41.6 60.416h0.64zM554.24 294.784c0.341333 41.002667-54.4 66.602667-85.12 38.784-31.872-22.826667-22.826667-78.378667 14.592-89.856 33.493333-13.44 73.088 14.677333 70.442667 50.56l0.085333 0.512z m-258.517333 10.410667c-7.338667 35.626667-55.082667 52.821333-83.029334 28.928-32.384-22.826667-23.296-79.402667 14.72-90.922667 37.248-14.336 79.573333 23.466667 68.309334 61.994667z" p-id="6833"></path></svg>