<?xml version="1.0" standalone="no"?><!DOCTYPE svg PUBLIC "-//W3C//DTD SVG 1.1//EN" "http://www.w3.org/Graphics/SVG/1.1/DTD/svg11.dtd"><svg t="1691201112335" class="icon" viewBox="0 0 1025 1024" version="1.1" xmlns="http://www.w3.org/2000/svg" p-id="3968" xmlns:xlink="http://www.w3.org/1999/xlink" width="128.125" height="128"><path d="M511.801 0c-0.106 0-0.211 0.002-0.317 0.002l-0.006-0.002-21 0 0 254.583 86.652 0-1.024-185.359c216.507 31.177 382.885 217.431 382.885 442.575 0 246.988-200.216 447.204-447.191 447.204s-447.185-200.216-447.185-447.204c0-125.359 51.579-238.663 134.671-319.855l-40.9-50.325c-97.589 93.196-158.386 224.589-158.386 370.18 0 282.654 229.145 511.805 511.799 511.805 282.66 0 511.799-229.151 511.799-511.805S794.461 0 511.801 0zM561.846 456.442c-6.358-5.75-13.716-10.41-21.775-13.712l-262.84-165.513 165.514 262.9c3.29 8.015 7.925 15.333 13.639 21.665l2.107 3.347 0.547-0.547c13.505 13.5 32.159 21.85 52.764 21.85 41.219 0 74.633-33.414 74.633-74.633 0-20.603-8.351-39.257-21.853-52.761l0.536-0.536L561.846 456.442z" fill="#272636" p-id="3969"></path></svg>