<?xml version="1.0" standalone="no"?><!DOCTYPE svg PUBLIC "-//W3C//DTD SVG 1.1//EN" "http://www.w3.org/Graphics/SVG/1.1/DTD/svg11.dtd"><svg t="1691201143779" class="icon" viewBox="0 0 1024 1024" version="1.1" xmlns="http://www.w3.org/2000/svg" p-id="4972" xmlns:xlink="http://www.w3.org/1999/xlink" width="128" height="128"><path d="M841.92 224c-76.23-74.95-177-115.68-283.85-114.7s-206.85 43.56-281.69 119.91-115.5 177.32-114.51 284.32l2.07 223.26c0.52 56.31-44.8 102.54-101 103.06l0.7 75.63c94.29-0.87 170.94-75.64 175.58-168.77a406.54 406.54 0 0 0 42.42 49c76.23 75 177 115.68 283.85 114.7s206.83-43.61 281.67-119.96 115.5-177.32 114.51-284.32S918.15 298.94 841.92 224z m-48.64 513.46a324.67 324.67 0 0 1-463-455.26 324.67 324.67 0 0 1 463 455.26z" fill="#333333" p-id="4973"></path><path d="M560.13 332.09c-97.85 0.9-176.72 81.37-175.81 179.38s81.25 177 179.09 176.1 176.72-81.37 175.81-179.38S658 331.18 560.13 332.09z m2.58 279.85c-56.22 0.52-102.38-44.86-102.9-101.17s44.8-102.53 101-103 102.38 44.86 102.9 101.17-44.78 102.48-101 103z" fill="#333333" p-id="4974"></path></svg>