<?xml version="1.0" standalone="no"?><!DOCTYPE svg PUBLIC "-//W3C//DTD SVG 1.1//EN" "http://www.w3.org/Graphics/SVG/1.1/DTD/svg11.dtd"><svg t="1693277525683" class="icon" viewBox="0 0 1024 1024" version="1.1" xmlns="http://www.w3.org/2000/svg" p-id="2851" xmlns:xlink="http://www.w3.org/1999/xlink" width="128" height="128"><path d="M509.824 117.333333a202.666667 202.666667 0 0 1 202.666667 202.666667c0 99.84-72.213333 182.826667-167.253334 199.594667l-0.042666 110.613333h105.792v64h-105.792v122.837333a351.701333 351.701333 0 0 0 237.866666-125.824l-58.944-35.434666 167.744-92.8-3.178666 191.68-50.197334-30.165334a415.701333 415.701333 0 0 1-293.269333 156.778667v100.394667h-64v-100.202667a415.701333 415.701333 0 0 1-297.408-159.168L129.92 754.666667l-3.157333-191.68 167.744 92.8-55.381334 33.28a351.701333 351.701333 0 0 0 242.048 128.192V694.186667h-107.456v-64h107.456v-109.546667c-96.512-13.653333-171.157333-95.274667-173.952-194.901333l-0.085333-5.76a202.666667 202.666667 0 0 1 202.666667-202.666667z m0 64a138.666667 138.666667 0 1 0 0 277.333334 138.666667 138.666667 0 0 0 0-277.333334z" fill="#515151" p-id="2852"></path></svg>