<?xml version="1.0" standalone="no"?><!DOCTYPE svg PUBLIC "-//W3C//DTD SVG 1.1//EN" "http://www.w3.org/Graphics/SVG/1.1/DTD/svg11.dtd"><svg t="1691201196970" class="icon" viewBox="0 0 1024 1024" version="1.1" xmlns="http://www.w3.org/2000/svg" p-id="6292" xmlns:xlink="http://www.w3.org/1999/xlink" width="128" height="128"><path d="M891.55584 714.35264c-142.63296 142.68416-363.31008 159.39584-524.4416 50.4832l-64.03072 64.05632 97.64864 97.67936c17.98144 17.97632 17.98144 47.14496 0 65.12128-17.9712 17.98656-47.11424 17.98656-65.08032 0L237.99808 894.0032l-97.64352 97.68448c-17.9712 17.98656-47.11936 17.98656-65.1008 0-17.9712-17.97632-17.9712-47.13984 0-65.12128l97.65376-97.67936-97.65376-97.6896c-17.9712-17.97632-17.9712-47.1296 0-65.1008 17.98656-18.00192 47.1296-18.00192 65.1008 0l97.64352 97.67936 59.01312-59.02848c-152.6528-162.43712-150.02624-417.7408 8.67328-576.4864 161.78176-161.84832 424.08448-161.84832 585.86624 0C1053.35808 290.09408 1053.35808 552.51456 891.55584 714.35264L891.55584 714.35264zM824.69376 193.1264c-125.5168-125.89056-329.00096-125.89056-454.49728 0-125.52192 125.8752-125.52192 329.9584 0 455.84896 1.99168 2.00192 13.8496 19.52256 40.87808 33.49504 125.5424 90.18368 300.8256 79.62112 413.61408-33.49504C950.1952 523.08992 950.1952 319.0016 824.69376 193.1264L824.69376 193.1264z" fill="#262536" p-id="6293"></path></svg>