<?xml version="1.0" standalone="no"?><!DOCTYPE svg PUBLIC "-//W3C//DTD SVG 1.1//EN" "http://www.w3.org/Graphics/SVG/1.1/DTD/svg11.dtd"><svg t="1691201211557" class="icon" viewBox="0 0 1024 1024" version="1.1" xmlns="http://www.w3.org/2000/svg" p-id="6447" xmlns:xlink="http://www.w3.org/1999/xlink" width="128" height="128"><path d="M901.7 371.42L437.41 835.78c-67 67-176 67-243 0a171.74 171.74 0 0 1 0-242.87l422.05-422.15a112.1 112.1 0 1 1 158.62 158.45L353 751.35a52.52 52.52 0 0 1-74.2 0 52.33 52.33 0 0 1 0-74l358.77-358.84-52.43-52.63-358.77 358.83A126.69 126.69 0 1 0 405.42 804L827.5 381.83a186.5 186.5 0 0 0 0-263.7c-72.64-72.65-190.83-72.65-263.46 0L142 540.28a246.08 246.08 0 0 0 347.84 348.13l464.29-464.36z" fill="#333333" p-id="6448"></path></svg>