<?xml version="1.0" standalone="no"?><!DOCTYPE svg PUBLIC "-//W3C//DTD SVG 1.1//EN" "http://www.w3.org/Graphics/SVG/1.1/DTD/svg11.dtd"><svg t="1693277384989" class="icon" viewBox="0 0 1024 1024" version="1.1" xmlns="http://www.w3.org/2000/svg" p-id="1945" xmlns:xlink="http://www.w3.org/1999/xlink" width="128" height="128"><path d="M744.277333 501.717333l179.797334 103.808v207.616l-179.797334 103.808-179.797333-103.808v-207.616l179.797333-103.808z m-461.866666 0l179.797333 103.808v207.616l-179.818667 103.808-179.797333-103.808v-207.616l179.797333-103.808z m461.866666 73.898667l-115.818666 66.858667v133.696l115.818666 66.858666 115.797334-66.858666v-133.696l-115.797334-66.858667z m-461.888 0l-115.797333 66.858667v133.696l115.797333 66.858666 115.797334-66.858666v-133.696l-115.797334-66.858667zM513.344 101.717333l179.797333 103.808v207.616l-179.797333 103.808-179.797333-103.808V205.525333l179.797333-103.808z m-0.021333 73.898667l-115.797334 66.858667v133.696l115.797334 66.858666 115.797333-66.858666v-133.696l-115.797333-66.858667z" fill="#515151" p-id="1946"></path></svg>