<?xml version="1.0" standalone="no"?><!DOCTYPE svg PUBLIC "-//W3C//DTD SVG 1.1//EN" "http://www.w3.org/Graphics/SVG/1.1/DTD/svg11.dtd"><svg t="1691155597191" class="icon" viewBox="0 0 1024 1024" version="1.1" xmlns="http://www.w3.org/2000/svg" p-id="17822" xmlns:xlink="http://www.w3.org/1999/xlink" width="128" height="128"><path d="M627.402942 326.901872q0 45.707756-32.543922 77.959149t-77.666619 32.251393q-34.2991 0-63.405799-19.965148-35.396086 38.24825-65.672904 83.444079-141.145551 211.937723-115.402942 490.791601 0.585059 12.578774-7.166976 22.012855t-19.745751 10.604199l-2.852164 0q-11.408656 0-19.965148-7.678903t-9.72661-19.160691q-7.971433-71.962291-1.974575-141.43808t16.820454-123.959434 30.861877-106.261391 39.418369-88.855878 42.270533-71.450364q34.884159-51.412084 75.399514-94.267676-9.141551-19.965148-9.141551-44.025711 0-45.707756 32.251393-77.959149t77.959149-32.251393 77.959149 32.251393 32.251393 77.959149zM845.118126 333.191259q0 90.245394-44.537637 166.815026t-121.3998 121.10727-167.107556 44.537637q-36.566205 0-74.814455-7.971433-11.993715-2.852164-18.575632-13.456363t-3.729753-22.597915q2.852164-11.408656 13.163834-17.990573t22.305385-4.314812q29.106699 7.459506 61.723754 7.459506 55.434367 0 106.261391-21.720326t87.39323-58.28653 58.28653-87.39323 21.720326-106.261391-21.720326-106.261391-58.28653-87.39323-87.39323-58.28653-106.261391-21.720326-106.261391 21.720326-87.39323 58.28653-58.28653 87.39323-21.720326 106.261391q0 65.160977 29.691758 124.544494 5.704328 11.408656 1.974575 22.817312t-14.55335 17.112984-22.597915 1.682045-17.405513-14.845879q-36.566205-70.280246-36.566205-151.384088 0-68.013141 26.547065-129.663762t71.157835-106.261391 106.261391-70.865305 129.151835-26.254535q90.245394 0 167.107556 44.537637t121.3998 121.3998 44.537637 167.107556z" fill="#272636" p-id="17823"></path></svg>