<?xml version="1.0" standalone="no"?><!DOCTYPE svg PUBLIC "-//W3C//DTD SVG 1.1//EN" "http://www.w3.org/Graphics/SVG/1.1/DTD/svg11.dtd"><svg t="1693278174621" class="icon" viewBox="0 0 1024 1024" version="1.1" xmlns="http://www.w3.org/2000/svg" p-id="8589" xmlns:xlink="http://www.w3.org/1999/xlink" width="128" height="128"><path d="M264.362667 172.568381c97.938286 9.362286 176.566857 51.395048 210.407619 130.438095l0.804571 2.121143c20.358095 57.051429 22.089143 116.370286 5.436953 176.956952 19.846095 28.476952 36.473905 57.417143 48.371809 84.187429 11.410286-15.043048 23.527619-29.013333 36.327619-41.984 11.215238-93.622857 45.104762-159.085714 103.716572-193.024 44.27581-25.6 104.423619-29.184 168.033523-17.188571 24.551619 4.632381 48.128 11.483429 66.681905 19.163428 9.532952 3.949714 17.67619 8.094476 24.161524 12.434286 13.799619 9.289143 22.552381 19.114667 22.552381 37.619809 0 21.113905-6.290286 52.150857-19.334095 82.115048a235.349333 235.349333 0 0 1-93.988572 108.30019c-28.94019 17.798095-73.728 30.256762-135.704381 38.88762a36.035048 36.035048 0 0 1-40.228571-31.036953 36.254476 36.254476 0 0 1 30.403047-40.886857l6.972953-0.999619c49.249524-7.314286 83.382857-17.066667 101.156571-27.989333a163.206095 163.206095 0 0 0 65.511619-75.459048 174.08 174.08 0 0 0 10.093715-30.646857l0.804571-3.730286 0.26819-1.438476-2.462476-0.975238a281.283048 281.283048 0 0 0-46.592-13.287619l-3.510857-0.707048c-48.39619-9.118476-92.574476-6.509714-119.027809 8.825905-20.992 12.141714-37.668571 32.49981-49.664 61.70819a392.655238 392.655238 0 0 1 42.349714-20.187428 35.693714 35.693714 0 0 1 35.791238 4.924952 36.473905 36.473905 0 0 1-8.94781 62.415238 317.732571 317.732571 0 0 0-94.74438 59.63581c-3.047619 4.778667-7.192381 8.777143-12.166096 11.654095-25.86819 25.916952-48.664381 57.10019-68.412952 93.622857v68.315429a429.83619 429.83619 0 0 1 116.49219 26.526476c18.602667 7.070476 27.964952 28.038095 20.943238 46.811429a35.864381 35.864381 0 0 1-46.372571 21.113904c-96.792381-36.912762-209.310476-30.695619-338.822095 20.065524a35.864381 35.864381 0 0 1-46.567619-20.723809 36.425143 36.425143 0 0 1 20.528762-46.982096c70.802286-27.745524 138.142476-43.641905 201.874285-47.591619v-93.866666c0-24.966095-29.281524-85.113905-71.338666-139.629715-46.908952-60.830476-99.864381-103.521524-142.336-113.030095l-2.121143-0.438857c-19.504762-3.900952-32.182857-22.991238-28.330667-42.666667 1.852952-9.435429 7.314286-17.749333 15.262476-23.113143 7.92381-5.36381 17.627429-7.314286 26.989715-5.461333 48.249905 9.606095 98.206476 42.593524 144.579047 90.477714a208.822857 208.822857 0 0 0-11.215238-74.922666l-0.731428-2.096762-0.512-1.194667c-21.869714-48.323048-75.190857-76.897524-146.944-84.431238l-3.218286-0.316952c-30.841905-2.950095-62.561524-1.560381-88.81981 3.291428a187.489524 187.489524 0 0 0-18.480762 4.315429l-2.82819 0.853333 0.121905 0.950857c19.285333 144.944762 87.82019 217.624381 210.407619 227.693715l3.925333 0.292571c12.921905 0.75581 24.478476 8.46019 30.183619 20.187429a36.59581 36.59581 0 0 1-2.511238 36.473904 35.84 35.84 0 0 1-32.670476 15.774477c-169.130667-11.946667-265.581714-121.61219-283.623619-317.44a36.571429 36.571429 0 0 1 6.509714-24.429715c23.015619-32.646095 105.252571-47.835429 184.56381-40.277333z" p-id="8590" fill="#515151"></path></svg>