<?xml version="1.0" standalone="no"?><!DOCTYPE svg PUBLIC "-//W3C//DTD SVG 1.1//EN" "http://www.w3.org/Graphics/SVG/1.1/DTD/svg11.dtd"><svg t="1691148470869" class="icon" viewBox="0 0 1024 1024" version="1.1" xmlns="http://www.w3.org/2000/svg" p-id="10048" xmlns:xlink="http://www.w3.org/1999/xlink" width="128" height="128"><path d="M925.11 337.47A449.81 449.81 0 1 0 960.35 512a446.83 446.83 0 0 0-35.24-174.53z m-144.94 442.7A379.25 379.25 0 1 1 891.25 512a376.73 376.73 0 0 1-111.08 268.17z" fill="#333333" p-id="10049"></path><path d="M512 167.24A344.77 344.77 0 0 0 167.24 512h69.1A275.66 275.66 0 0 1 512 236.34zM512 385.49A126.51 126.51 0 1 0 638.51 512 126.65 126.65 0 0 0 512 385.49z m0 183.92A57.41 57.41 0 1 1 569.41 512 57.48 57.48 0 0 1 512 569.41z" fill="#333333" p-id="10050"></path></svg>