<?xml version="1.0" standalone="no"?><!DOCTYPE svg PUBLIC "-//W3C//DTD SVG 1.1//EN" "http://www.w3.org/Graphics/SVG/1.1/DTD/svg11.dtd"><svg t="1691148236146" class="icon" viewBox="0 0 1024 1024" version="1.1" xmlns="http://www.w3.org/2000/svg" p-id="3402" xmlns:xlink="http://www.w3.org/1999/xlink" width="128" height="128"><path d="M238.7968 237.1584C290.816 206.9504 299.008 230.4 363.4176 230.4a352 352 0 0 1 352 352c0 67.6352 33.0752 90.0096 0 143.6672a352 352 0 1 1-476.6208-488.96z m-46.8992 121.088c-103.424 96.4096-93.3888 255.0784 15.104 371.4048 108.4416 116.3264 274.3296 146.2784 377.7024 49.8688 103.424-96.4608 99.328-268.9024-9.216-385.2288-108.4416-116.3264-280.2176-132.4544-383.5904-36.0448z" fill="#333333" p-id="3403"></path><path d="M342.016 471.3472l345.3952-183.8592-179.0976 337.7664c-41.6256 12.8-83.8144 0-126.5664-38.6048s-56.0128-77.0048-39.7824-115.3024z" fill="#333333" p-id="3404"></path><path d="M642.2528 149.6064l5.7344 0.512c0.5632 0.1024 2.5088 0.2048 7.3216 0.3072 48.64 1.1264 83.0976 12.9024 125.2352 57.2416 44.1856 46.5408 56.2176 80.0768 57.344 132.2496v1.5872l0.1024 2.6624c0.1024 6.4512 0.2048 9.0624 0.3072 12.3904a32 32 0 0 1-63.8976 2.7648 530.7904 530.7904 0 0 1-0.4096-13.9264l-0.1024-4.096c-0.768-37.12-7.3216-55.3984-39.7312-89.4976-28.8256-30.3104-47.2064-36.608-80.384-37.376a99.7888 99.7888 0 0 1-17.1008-1.3312 32 32 0 1 1 11.3152-62.976l-5.7344-0.512zM660.6848 0a320 320 0 0 1 320 320 32 32 0 1 1-64 0 256 256 0 0 0-256-256 32 32 0 0 1 0-64zM69.12 535.4496l37.12 65.1776c41.6256 73.2672 75.9296 122.4192 101.7856 146.7392 25.5488 24.0128 71.4752 50.4832 137.2672 78.592l12.5952 5.3248 2.56 13.4144 28.16 148.48 5.7344 30.3616H0l4.096-29.184 54.528-384.6656 10.496-74.24z m30.0544 153.088l-40.192 283.8016h273.5104l-19.8656-104.8064-3.3792-1.4848c-57.344-25.4464-100.1984-50.176-128.8192-74.752l-7.4752-6.656c-20.3264-19.0976-43.4688-48.8448-69.632-89.4976l-4.1472-6.5536z" fill="#333333" p-id="3405"></path></svg>