<?xml version="1.0" standalone="no"?><!DOCTYPE svg PUBLIC "-//W3C//DTD SVG 1.1//EN" "http://www.w3.org/Graphics/SVG/1.1/DTD/svg11.dtd"><svg t="1691148102465" class="icon" viewBox="0 0 1024 1024" version="1.1" xmlns="http://www.w3.org/2000/svg" p-id="2256" xmlns:xlink="http://www.w3.org/1999/xlink" width="128" height="128"><path d="M156.3136 287.744l11.264 4.5056 377.8048 174.7968 14.1824 5.632 1.792 15.2064c8.3968 71.424 3.7376 126.6176-15.1552 166.0928-20.5824 42.9568-70.4512 71.68-147.6608 89.088l-8.8064 1.9456-8.0896-3.9936-297.9328-169.984-7.7824-5.9392C43.4176 528.7424 29.3376 483.84 33.792 432.2816c4.8128-54.528 43.2128-100.608 111.9232-138.6496l10.5984-5.8368z m3.84 56.6272c-48.384 29.0304-72.4992 59.8528-75.3152 92.3648-3.328 37.7856 6.4 68.608 29.2864 94.2592l-2.9184-3.4816 284.7744 163.4304 3.6864-0.8192c51.9168-13.1584 84.0192-31.488 97.536-53.248l2.816-5.0176c11.776-24.6784 16.384-61.5424 13.1072-110.2848l-1.024-12.6464-351.9488-164.5568z" fill="#333333" p-id="2257"></path><path d="M456.9088 498.8416c30.5152 29.4912 34.9184 84.9408-4.352 125.5936-39.2704 40.704-92.672 37.376-123.1872 7.936-19.5584-16.5888-33.3824-77.4656 5.9392-118.1696 39.2704-40.704 91.0848-44.8 121.6-15.36z m-35.584 36.864c-9.216-8.96-29.184-6.7072-49.2032 14.08-13.5168 13.9776-12.288 41.2672-9.6256 43.52l2.4064 2.2528c12.3904 11.9808 33.3824 11.4176 50.8416-6.656 17.664-18.3296 17.664-41.5232 5.5808-53.248zM525.7216 48.0768l11.264 4.4544 458.752 203.9808 14.2336 5.632 1.792 15.1552c8.3968 71.424 3.7376 126.6176-15.1552 166.0928-20.5824 43.008-70.4512 71.7312-147.6608 89.088l-8.8064 1.9968-8.0896-3.9936-378.88-199.168-7.7824-5.888c-32.5632-36.4544-46.6432-81.3056-42.1376-132.864 4.7616-54.528 43.2128-100.608 111.9232-138.6496l10.5472-5.8368z m3.8912 56.576c-48.4352 29.0304-72.4992 59.8528-75.3664 92.3648-3.328 37.7856 6.4 68.608 29.2864 94.2592l-2.8672-3.4816 365.7216 192.6144 3.6864-0.8192c51.9168-13.1584 84.0192-31.488 97.536-53.248l2.816-5.0688c11.776-24.6784 16.384-61.4912 13.1072-110.2336l-1.0752-12.6464-432.8448-193.7408z" fill="#333333" p-id="2258"></path><path d="M904.96 293.0176c30.5152 29.4912 34.9696 84.9408-4.352 125.5936-39.2704 40.704-92.672 37.376-123.1872 7.936-19.5584-16.5888-33.3312-77.5168 5.9392-118.1696 39.2704-40.704 91.136-44.8 121.6-15.36z m-35.584 36.864c-9.216-8.96-29.1328-6.7072-49.152 14.08-13.568 13.9776-12.3392 41.2672-9.6768 43.52l2.4576 2.2528c12.3904 11.9296 33.3312 11.4176 50.7904-6.656 17.7152-18.3296 17.7152-41.5232 5.632-53.248zM526.1312 321.4336l78.6432 32.9728-253.952 75.3664-14.1824-49.152zM716.4928 429.7728v179.968a40.96 40.96 0 0 1-28.0064 38.8608l-32.512 10.752v160.512h-51.2v-167.7824a40.96 40.96 0 0 1 27.9552-38.8608l32.5632-10.9056v-172.544h51.2zM358.0928 711.3216v140.4416h51.2v-140.4416z" fill="#333333" p-id="2259"></path><path d="M530.8928 770.048a40.96 40.96 0 0 1 28.0576 0.9216l160.8704 64.5632a40.96 40.96 0 0 1-1.6384 76.6464L506.88 986.9312a51.2 51.2 0 0 1-43.5712-4.4544l-127.1296-77.0048a40.96 40.96 0 0 1 8.3968-73.9328l186.368-61.44z m12.4928 49.8176l-161.7408 53.248 108.1344 65.536 185.7536-65.6896-132.096-53.0944z" fill="#333333" p-id="2260"></path></svg>