<?xml version="1.0" standalone="no"?><!DOCTYPE svg PUBLIC "-//W3C//DTD SVG 1.1//EN" "http://www.w3.org/Graphics/SVG/1.1/DTD/svg11.dtd"><svg t="1693278128395" class="icon" viewBox="0 0 1024 1024" version="1.1" xmlns="http://www.w3.org/2000/svg" p-id="8375" xmlns:xlink="http://www.w3.org/1999/xlink" width="128" height="128"><path d="M558.811429 155.574857a73.142857 73.142857 0 0 1 9.386666 9.386667L707.047619 331.580952l153.161143-113.103238a73.142857 73.142857 0 0 1 114.419809 76.556191L828.952381 877.714286H195.047619L49.371429 295.058286A73.142857 73.142857 0 0 1 163.791238 218.453333L316.952381 331.580952l138.849524-166.619428a73.142857 73.142857 0 0 1 103.033905-9.386667zM512 211.772952l-183.003429 219.623619-208.65219-154.087619L252.14781 804.571429h519.70438l131.803429-527.262477-208.65219 154.087619L512 211.772952z m170.666667 457.874286v78.019048H341.333333v-78.019048h341.333334z" p-id="8376" fill="#515151"></path></svg>