<?xml version="1.0" standalone="no"?><!DOCTYPE svg PUBLIC "-//W3C//DTD SVG 1.1//EN" "http://www.w3.org/Graphics/SVG/1.1/DTD/svg11.dtd"><svg t="1691148424348" class="icon" viewBox="0 0 1024 1024" version="1.1" xmlns="http://www.w3.org/2000/svg" p-id="9036" xmlns:xlink="http://www.w3.org/1999/xlink" width="128" height="128"><path d="M840.71 282.78v-68.31H580.25V64.27h-136.5v150.2H183.29v68.31h35.42v275.86h-35.42V627h145.83L197 959.73h140l106.25-267.67v267.67h136.5v-270.2L687 959.73h140L694.88 627h145.83v-68.36h-35.42V282.78z m-351.54-173h45.66v104.69h-45.66z m-183 804.38H264L378 627h42.2z m182.49 0V627h45.66v287.19z m271.34 0h-42.18L603.8 627H646z m-22.85-355.52h-450.3V282.78h450.3z" fill="#333333" p-id="9037"></path></svg>