<?xml version="1.0" standalone="no"?><!DOCTYPE svg PUBLIC "-//W3C//DTD SVG 1.1//EN" "http://www.w3.org/Graphics/SVG/1.1/DTD/svg11.dtd"><svg t="1691148609370" class="icon" viewBox="0 0 1052 1024" version="1.1" xmlns="http://www.w3.org/2000/svg" p-id="15031" xmlns:xlink="http://www.w3.org/1999/xlink" width="131.5" height="128"><path d="M526.656128 748.8m-115.2 0a36 36 0 1 0 230.4 0 36 36 0 1 0-230.4 0Z" p-id="15032"></path><path d="M522.496128 396.8C386.496128 396.8 255.296128 453.44 162.176128 552.64c-21.76 23.04-20.8 59.52 2.56 81.28 23.04 21.76 59.52 20.8 81.28-2.56 72.32-77.12 170.56-119.68 276.48-119.68 105.28 0 206.72 44.48 278.4 121.92 11.2 12.16 26.88 18.56 42.24 18.56 14.08 0 28.16-5.12 39.04-15.36 23.36-21.76 24.64-57.92 3.2-81.28C792.256128 454.72 659.776128 396.8 522.496128 396.8z" p-id="15033"></path><path d="M1040.896128 421.12c-118.72-168.64-312.64-269.12-518.4-269.12-101.12 0-201.92 24.32-291.2 70.72-86.4 44.8-162.56 110.08-220.16 188.48-18.88 25.6-13.12 61.76 12.48 80.64 25.6 18.88 61.76 13.12 80.64-12.48 97.28-132.8 253.76-212.16 418.24-212.16 168.64 0 327.04 82.24 424.32 220.48 11.2 16 29.12 24.32 47.04 24.32 11.52 0 23.04-3.52 32.96-10.56C1053.056128 483.2 1059.136128 447.36 1040.896128 421.12z" p-id="15034"></path></svg>