<?xml version="1.0" standalone="no"?><!DOCTYPE svg PUBLIC "-//W3C//DTD SVG 1.1//EN" "http://www.w3.org/Graphics/SVG/1.1/DTD/svg11.dtd"><svg t="1691201103238" class="icon" viewBox="0 0 1024 1024" version="1.1" xmlns="http://www.w3.org/2000/svg" p-id="3813" xmlns:xlink="http://www.w3.org/1999/xlink" width="128" height="128"><path d="M512.5 381.732c-123.997 0-224.511 100.557-224.511 224.554 0 124.027 100.513 224.592 224.511 224.592 123.99 0 224.511-100.565 224.511-224.592C737.011 482.289 636.49 381.732 512.5 381.732zM511.327 766.89c-88.114 0-159.539-71.46-159.539-159.605 0-88.113 71.426-159.573 159.539-159.573 88.106 0 159.54 71.46 159.54 159.573C670.867 695.431 599.433 766.89 511.327 766.89zM900.153 256.595l-148.772 0-55.201-112.681c-5.431-10.241-15.121-16.145-25.226-16.576-1.037-0.113-2.088-0.171-3.153-0.171L363.198 127.167c-6.112 0-11.8 1.911-16.57 5.189-4.767 2.825-8.903 7.068-11.814 12.558L279.178 256.595l-85.618 0 0-32.145c0-18.114-14.677-32.816-32.791-32.816-18.107 0-32.791 14.702-32.791 32.816l0 32.145-4.136 0c-67.293 0-121.842 54.574-121.842 121.897l0 458.625c0 67.317 54.549 121.891 121.842 121.891l776.311 0c67.299 0 121.847-52.574 121.847-119.891L1022 378.493C1022 311.169 967.452 256.595 900.153 256.595zM961.08 837.118c0 33.671-27.274 60.955-60.927 60.955l-776.311 0c-33.646 0-60.927-27.284-60.927-60.955L62.915 380.493c0-33.707 27.28-60.961 60.927-60.961l177.975 0 0-0.152c9.515-0.965 18.474-6.77 23.612-16.461l55.429-111.284 269.66 0 54.503 111.284c5.241 9.878 14.444 15.726 24.161 16.518l0 0.095 170.97 0c33.652 0 60.927 27.254 60.927 60.961L961.079 837.118zM799.821 384.232c-17.654 0-31.959 14.297-31.959 31.951 0 17.648 14.305 31.977 31.959 31.977 17.647 0 31.958-14.329 31.958-31.977C831.78 398.529 817.469 384.232 799.821 384.232z" fill="#272636" p-id="3814"></path></svg>