<?xml version="1.0" standalone="no"?><!DOCTYPE svg PUBLIC "-//W3C//DTD SVG 1.1//EN" "http://www.w3.org/Graphics/SVG/1.1/DTD/svg11.dtd"><svg t="1691201242246" class="icon" viewBox="0 0 1024 1024" version="1.1" xmlns="http://www.w3.org/2000/svg" p-id="7434" xmlns:xlink="http://www.w3.org/1999/xlink" width="128" height="128"><path d="M309.56394 467.051275m-50.542116 0a49.391 49.391 0 1 0 101.084233 0 49.391 49.391 0 1 0-101.084233 0ZM511.734452 416.509159c-27.913746 0-50.544163 22.630417-50.544163 50.542116 0 27.912723 22.630417 50.542116 50.544163 50.542116 27.909653 0 50.54314-22.629393 50.54314-50.542116C562.277592 439.139575 539.644105 416.509159 511.734452 416.509159zM890.80186 138.527007 132.664997 138.527007c-27.9117 0-50.542116 22.630417-50.542116 50.54314l0 555.965328c0 27.9117 22.630417 50.541093 50.542116 50.541093l263.612886 0 102.177124 152.553465 26.542516 0 102.184287-152.553465L890.80186 795.576567c27.910677 0 50.541093-22.62837 50.541093-50.541093L941.342953 189.070146C941.34193 161.157423 918.712537 138.527007 890.80186 138.527007zM890.80186 719.763904c0 13.966083-11.316743 25.270547-25.270547 25.270547L661.03892 745.034451l0.86981-1.300622-59.390645 0.496304-1.25048 0.334621-0.286526 0.468674-30.839379 50.541093-59.06421 96.79044-58.20361-96.79044-30.393217-50.541093-0.005117-0.010233-60.438511-0.574075 0.38988 0.583285L157.93759 745.032404c-13.95585 0-25.272593-11.304464-25.272593-25.270547L132.664997 214.340693c0-13.95585 11.316743-25.270547 25.272593-25.270547l707.593723 0c13.954827 0 25.270547 11.314697 25.270547 25.270547L890.80186 719.763904zM713.902918 416.509159c-27.9117 0-50.544163 22.630417-50.544163 50.542116 0 27.912723 22.63144 50.542116 50.544163 50.542116 27.910677 0 50.542116-22.629393 50.542116-50.542116C764.444011 439.139575 741.813594 416.509159 713.902918 416.509159z" fill="#272636" p-id="7435"></path></svg>