<?xml version="1.0" standalone="no"?><!DOCTYPE svg PUBLIC "-//W3C//DTD SVG 1.1//EN" "http://www.w3.org/Graphics/SVG/1.1/DTD/svg11.dtd"><svg t="1691148079771" class="icon" viewBox="0 0 1024 1024" version="1.1" xmlns="http://www.w3.org/2000/svg" p-id="1876" xmlns:xlink="http://www.w3.org/1999/xlink" width="128" height="128"><path d="M512 30.72c51.4048 46.6432 116.8896 82.2272 196.4032 106.6496 45.0048 13.824 90.3168 22.784 135.9872 26.9312a102.4 102.4 0 0 1 92.7232 113.664l-47.9232 422.2464-0.3584 2.8672c-8.704 61.7984-50.3808 119.296-124.928 172.3904-74.6496 53.248-158.6176 95.8976-251.904 128-98.9184-36.4032-182.3232-79.104-250.1632-128-63.1808-45.568-105.728-98.6624-127.6416-159.2832a102.656 102.656 0 0 1-5.5808-24.8832L89.088 272.896a102.4 102.4 0 0 1 92.2624-111.5136 621.4144 621.4144 0 0 0 126.6176-24.064C371.3536 117.6576 439.3984 82.0736 512 30.72z m15.7696 923.9552l-15.3088-5.8368 9.216-3.2256a927.8464 927.8464 0 0 0 191.0784-97.024l21.504-14.7968c64-45.6704 97.3312-91.6992 103.7312-136.8576l0.1024-0.7168 0.2048-1.792 47.872-421.6832 0.2048-1.9456a51.2 51.2 0 0 0-46.592-55.5008 716.9536 716.9536 0 0 1-146.432-28.9792c-66.4576-20.4288-124.416-48.2816-173.7728-83.7632l-10.5984-7.936-5.4272 3.6864c-62.8224 40.7552-122.88 70.144-180.4288 87.9616-41.1648 12.8-86.8352 21.504-137.0112 26.112a51.2 51.2 0 0 0-46.08 55.7568l39.5776 418.304c0.4096 4.2496 1.3312 8.3968 2.7648 12.3392 18.176 50.432 54.2208 95.3856 109.4144 135.168 58.0096 41.8304 128.8192 79.1552 212.48 111.8208l23.552 8.9088z" fill="#333333" p-id="1877"></path><path d="M512 266.5472a230.4 230.4 0 1 1 0 460.8 230.4 230.4 0 0 1 0-460.8z m0 51.2a179.2 179.2 0 1 0 0 358.4 179.2 179.2 0 0 0 0-358.4z" fill="#333333" p-id="1878"></path><path d="M511.744 169.6256a25.6 25.6 0 0 1 25.856 25.2928l1.7408 167.6288a25.6 25.6 0 0 1-51.2 0.512L486.4 195.4816a25.6 25.6 0 0 1 25.344-25.856zM511.744 630.4256a25.6 25.6 0 0 1 25.856 25.2928l1.7408 167.6288a25.6 25.6 0 0 1-51.2 0.512L486.4 656.2816a25.6 25.6 0 0 1 25.344-25.856zM791.9104 482.6624a25.6 25.6 0 0 1 0.512 51.2l-167.5776 1.7408a25.6 25.6 0 0 1-0.512-51.2l167.5776-1.7408zM391.4752 482.6624a25.6 25.6 0 0 1 0.512 51.2l-167.5776 1.7408a25.6 25.6 0 0 1-0.512-51.2l167.5776-1.7408z" fill="#333333" p-id="1879"></path><path d="M494.7968 478.6176c25.1392-7.5264 31.5392-4.608 36.1984 0a25.4976 25.4976 0 0 1-18.1248 43.6736 25.4976 25.4976 0 0 1-18.0736-43.6736z" fill="#FFAA30" p-id="1880"></path></svg>