<?xml version="1.0" standalone="no"?><!DOCTYPE svg PUBLIC "-//W3C//DTD SVG 1.1//EN" "http://www.w3.org/Graphics/SVG/1.1/DTD/svg11.dtd"><svg t="1694243704859" class="icon" viewBox="0 0 1042 1024" version="1.1" xmlns="http://www.w3.org/2000/svg" p-id="1045" xmlns:xlink="http://www.w3.org/1999/xlink" width="130.25" height="128"><path d="M360.228571 784.457143l-27.428571-25.6-20.114286 20.114286V749.714286h-36.571428v29.257143L256 758.857143l-25.6 25.6 20.114286 20.114286h-29.257143v36.571428h29.257143l-20.114286 20.114286 25.6 25.6 20.114286-20.114286V896h36.571428v-29.257143l20.114286 20.114286 27.428571-25.6-21.942857-20.114286h29.257143v-36.571428h-29.257143l21.942857-20.114286zM579.657143 784.457143l-25.6-25.6-20.114286 20.114286V749.714286h-36.571428v29.257143L475.428571 758.857143l-25.6 25.6 21.942858 20.114286h-29.257143v36.571428h29.257143l-21.942858 20.114286 25.6 25.6 21.942858-20.114286V896h36.571428v-29.257143l20.114286 20.114286 25.6-25.6-20.114286-20.114286h29.257143v-36.571428h-29.257143l20.114286-20.114286zM799.085714 784.457143l-27.428571-25.6-20.114286 20.114286V749.714286h-36.571428v29.257143L694.857143 758.857143l-25.6 25.6 20.114286 20.114286h-29.257143v36.571428h29.257143l-20.114286 20.114286 25.6 25.6 20.114286-20.114286V896h36.571428v-29.257143l20.114286 20.114286 27.428571-25.6-21.942857-20.114286h29.257143v-36.571428h-29.257143l21.942857-20.114286zM747.885714 303.542857h-9.142857C735.085714 186.514286 636.342857 91.428571 517.485714 91.428571c-120.685714 0-219.428571 95.085714-221.257143 212.114286h-9.142857c-113.371429 0-206.628571 91.428571-206.628571 202.971429s93.257143 202.971429 206.628571 202.971428H768c3.657143 0 7.314286 0 10.971429-1.828571 104.228571-12.8 181.028571-98.742857 181.028571-201.142857-5.485714-111.542857-98.742857-202.971429-212.114286-202.971429z m12.8 332.8H307.2c-3.657143 0-7.314286-1.828571-10.971429 0h-12.8c-73.142857 0-133.485714-58.514286-133.485714-129.828571 0-71.314286 60.342857-129.828571 133.485714-129.828572 12.8 0 27.428571 1.828571 40.228572 5.485715 12.8 3.657143 25.6 0 34.742857-7.314286 9.142857-9.142857 14.628571-21.942857 10.971429-34.742857-1.828571-9.142857-3.657143-20.114286-3.657143-29.257143 0-80.457143 67.657143-144.457143 149.942857-144.457143 82.285714 0 149.942857 65.828571 149.942857 144.457143 0 9.142857-1.828571 20.114286-3.657143 29.257143-1.828571 12.8 1.828571 25.6 10.971429 34.742857s23.771429 10.971429 34.742857 7.314286c12.8-3.657143 25.6-5.485714 40.228571-5.485715 73.142857 0 133.485714 58.514286 133.485715 129.828572 0 67.657143-51.2 124.342857-120.685715 129.828571z" fill="#515151" p-id="1046"></path></svg>