<?xml version="1.0" standalone="no"?><!DOCTYPE svg PUBLIC "-//W3C//DTD SVG 1.1//EN" "http://www.w3.org/Graphics/SVG/1.1/DTD/svg11.dtd"><svg t="1691148137148" class="icon" viewBox="0 0 1024 1024" version="1.1" xmlns="http://www.w3.org/2000/svg" p-id="2582" xmlns:xlink="http://www.w3.org/1999/xlink" width="128" height="128"><path d="M665.6 153.6a102.4 102.4 0 0 1 102.4 102.4v512a102.4 102.4 0 0 1-102.4 102.4H153.6a102.4 102.4 0 0 1-102.4-102.4V256a102.4 102.4 0 0 1 102.4-102.4h512z m0 51.2H153.6a51.2 51.2 0 0 0-51.2 51.2v512a51.2 51.2 0 0 0 51.2 51.2h512a51.2 51.2 0 0 0 51.2-51.2V256a51.2 51.2 0 0 0-51.2-51.2z" fill="#333333" p-id="2583"></path><path d="M950.784 281.6c14.08 14.0288 22.016 33.1264 22.016 52.992v354.816a74.9568 74.9568 0 0 1-128 52.992l-97.9968-97.9968A102.4 102.4 0 0 1 716.8 572.0064V451.9936a102.4 102.4 0 0 1 30.0032-72.3968L844.8 281.6a74.9568 74.9568 0 0 1 105.984 0z m-69.7856 36.1984l-97.9968 97.9968a51.2 51.2 0 0 0-15.0016 36.1984v120.0128a51.2 51.2 0 0 0 15.0016 36.1984l97.9968 97.9968a23.7568 23.7568 0 0 0 40.5504-16.7936v-354.816a23.7568 23.7568 0 0 0-40.5504-16.7936z" fill="#333333" p-id="2584"></path><path d="M256 358.4m-51.2 0a51.2 51.2 0 1 0 102.4 0 51.2 51.2 0 1 0-102.4 0Z" fill="#333333" p-id="2585"></path></svg>