<?xml version="1.0" standalone="no"?><!DOCTYPE svg PUBLIC "-//W3C//DTD SVG 1.1//EN" "http://www.w3.org/Graphics/SVG/1.1/DTD/svg11.dtd"><svg t="1691148569101" class="icon" viewBox="0 0 1024 1024" version="1.1" xmlns="http://www.w3.org/2000/svg" p-id="13867" xmlns:xlink="http://www.w3.org/1999/xlink" width="128" height="128"><path d="M932.497 179.162c-14.091-14.053-32.823-21.792-52.743-21.792-160.71 0-311.412-132.152-312.9-133.472-13.673-12.41-31.44-19.244-50.026-19.244-18.399 0-36.132 6.785-49.929 19.102-0.38 0.339-38.764 34.236-96.928 67.585-52.536 30.122-132.652 66.03-215.986 66.03-41.181 0-74.684 33.37-74.684 74.385v218.718c0 198.798 118.086 365.582 394.85 557.683 12.514 8.695 27.272 13.292 42.677 13.292 15.41 0 30.165-4.597 42.671-13.292C836.264 816.054 954.35 649.27 954.35 450.473V231.754c0.001-19.861-7.759-38.538-21.852-52.592z m-54.79 271.31c0 120.378-42.91 273.204-360.879 494.098C198.93 723.662 156.03 570.842 156.03 450.472V233.795c43.727-0.245 89.77-8.302 136.889-23.96 38.246-12.71 77.286-30.429 116.035-52.664 59.39-34.08 100.05-68.59 107.872-75.407 7.818 6.817 48.46 41.326 107.85 75.407 38.75 22.235 77.795 39.953 116.056 52.663 47.135 15.659 93.209 23.716 136.974 23.96l0.002 216.678z" p-id="13868"></path><path d="M704.679 553.045l-26.7-15.558c1.426-9.017 2.122-17.4 2.122-25.487 0-8.029-0.698-16.41-2.127-25.484l26.699-15.546c16.4-9.539 22.048-30.75 12.588-47.286l-26.73-46.695c-6.126-10.699-17.56-17.344-29.839-17.344a34.283 34.283 0 0 0-17.212 4.658l-26.978 15.709c-13.632-11.027-28.171-19.64-43.347-25.679v-17.568c0-19.097-15.44-34.634-34.418-34.634h-53.472c-18.971 0-34.405 15.537-34.405 34.634v17.58c-15.18 6.036-29.725 14.65-43.36 25.68l-26.982-15.71a34.266 34.266 0 0 0-17.205-4.658c-12.273 0-23.704 6.646-29.83 17.342L306.74 423.68c-9.464 16.526-3.817 37.733 12.583 47.273l26.697 15.545c-1.426 9.017-2.122 17.398-2.122 25.487 0 8.027 0.698 16.41 2.127 25.485l-26.694 15.554c-16.411 9.53-22.06 30.731-12.592 47.265l26.742 46.691c6.121 10.699 17.554 17.344 29.837 17.343a34.25 34.25 0 0 0 17.202-4.655l26.976-15.709c13.62 11.029 28.166 19.646 43.363 25.69v17.583c0 19.097 15.435 34.635 34.405 34.635h53.472c18.979 0 34.418-15.538 34.418-34.635v-17.571c15.2-6.055 29.74-14.671 43.349-25.69l26.98 15.712a34.254 34.254 0 0 0 17.199 4.654c12.28 0 23.717-6.645 29.85-17.342l26.727-46.69c9.469-16.516 3.822-37.718-12.58-47.26z m-217.865 83.509c-26.424-5.405-50.941-19.715-69.035-40.292l-4.17-4.742-42.586 24.794a5.57 5.57 0 0 1-2.828 0.77c-2.05 0-3.888-1.076-4.922-2.882l-13.372-23.348c-1.599-2.789-0.658-6.36 2.095-7.963l42.672-24.838-1.964-5.916c-4.454-13.416-6.712-26.921-6.712-40.136 0-13.17 2.263-26.68 6.728-40.156l1.96-5.913L352 441.097c-2.752-1.601-3.69-5.178-2.094-7.97l13.355-23.341a5.716 5.716 0 0 1 4.938-2.882c0.992 0 1.935 0.257 2.806 0.765l42.609 24.813 4.169-4.745c18.075-20.57 42.584-34.884 69.01-40.305l6.133-1.258v-35.929c0-3.2 2.555-5.804 5.697-5.804h26.73c3.141 0 5.696 2.603 5.696 5.804v35.932l6.137 1.256c26.425 5.406 50.942 19.715 69.035 40.293l4.17 4.74 42.606-24.796a5.524 5.524 0 0 1 2.816-0.768c2.054 0 3.896 1.077 4.928 2.883l13.369 23.343c1.599 2.794 0.659 6.381-2.077 7.982l-42.687 24.835 1.963 5.916c4.455 13.43 6.714 26.94 6.714 40.152 0 13.203-2.259 26.709-6.714 40.14l-1.963 5.915 42.683 24.836c2.75 1.601 3.69 5.178 2.096 7.965l-13.374 23.351c-1.031 1.803-2.873 2.879-4.926 2.879-0.993 0-1.94-0.26-2.815-0.768l-42.591-24.797-4.169 4.74c-18.107 20.58-42.626 34.891-69.037 40.294l-6.137 1.256v35.932c0 3.201-2.555 5.804-5.697 5.804h-26.73c-3.141 0-5.696-2.603-5.696-5.804V637.81l-6.14-1.255z" p-id="13869"></path><path d="M586.526 512c0-41.396-33.43-75.073-74.52-75.073-41.09 0-74.52 33.678-74.52 75.073 0 41.395 33.429 75.072 74.52 75.072 41.075 0 74.506-33.676 74.52-75.072z m-74.52-32.764c17.88 0 32.426 14.698 32.426 32.764 0 18.065-14.547 32.764-32.426 32.764-17.88 0-32.426-14.698-32.426-32.764 0-18.066 14.546-32.764 32.426-32.764z" p-id="13870"></path></svg>