<?xml version="1.0" standalone="no"?><!DOCTYPE svg PUBLIC "-//W3C//DTD SVG 1.1//EN" "http://www.w3.org/Graphics/SVG/1.1/DTD/svg11.dtd"><svg t="1691148122124" class="icon" viewBox="0 0 1024 1024" version="1.1" xmlns="http://www.w3.org/2000/svg" p-id="2419" xmlns:xlink="http://www.w3.org/1999/xlink" width="128" height="128"><path d="M442.7776 38.8096L665.6 86.7328l27.2896 67.2256-53.76 3.84-10.752-26.7264-196.352-42.1888a51.2 51.2 0 0 0-49.9712 17.152l-268.288 319.6928a51.2 51.2 0 0 0 6.2976 72.192L195.584 561.152l-33.6896 38.5536-74.752-62.6688a102.4 102.4 0 0 1-12.5952-144.2304l268.288-319.744a102.4 102.4 0 0 1 99.9424-34.304z" fill="#333333" p-id="2420"></path><path d="M861.696 253.952l85.2992 209.7152a102.4 102.4 0 0 1-17.7664 105.984l-359.8336 411.2384a102.4 102.4 0 0 1-142.8992 11.008l-235.3152-197.4272a102.4 102.4 0 0 1-11.264-145.8688l359.0144-410.2144a102.4 102.4 0 0 1 98.56-32.6656l224.2048 48.2304z m-37.2224 44.3392l-197.7344-42.496a51.2 51.2 0 0 0-49.3056 16.3328l-358.912 410.2144-0.7168 0.768a51.2 51.2 0 0 0 6.2976 72.192l235.3152 197.376a51.2 51.2 0 0 0 71.424-5.4784l359.8336-411.2384a51.2 51.2 0 0 0 8.9088-52.992l-75.1104-184.6784z" fill="#333333" p-id="2421"></path><path d="M596.992 396.9024a25.6 25.6 0 0 1 38.0416 34.2528l-226.816 250.2144a25.6 25.6 0 0 1-38.0928-34.2528l226.816-250.2144zM621.7728 585.0624a24.832 24.832 0 0 1 35.0208-2.9184l1.0752 1.024a25.6 25.6 0 0 1 2.4064 35.584l-182.9376 215.6032a24.832 24.832 0 0 1-35.0208 2.8672l-1.0752-0.9728a25.6 25.6 0 0 1-2.4064-35.584l182.9376-215.6032zM768 358.4a51.2 51.2 0 1 1 0 102.4 51.2 51.2 0 0 1 0-102.4z" fill="#333333" p-id="2422"></path><path d="M460.8 204.8m-51.2 0a51.2 51.2 0 1 0 102.4 0 51.2 51.2 0 1 0-102.4 0Z" fill="#333333" p-id="2423"></path></svg>